%TF.GenerationSoftware,KiCad,Pcbnew,(6.0.1)*%
%TF.CreationDate,2022-05-25T14:38:50-05:00*%
%TF.ProjectId,aatr-sensor,61617472-2d73-4656-9e73-6f722e6b6963,1*%
%TF.SameCoordinates,Original*%
%TF.FileFunction,Copper,L2,Bot*%
%TF.FilePolarity,Positive*%
%FSLAX46Y46*%
G04 Gerber Fmt 4.6, Leading zero omitted, Abs format (unit mm)*
G04 Created by KiCad (PCBNEW (6.0.1)) date 2022-05-25 14:38:50*
%MOMM*%
%LPD*%
G01*
G04 APERTURE LIST*
G04 Aperture macros list*
%AMRoundRect*
0 Rectangle with rounded corners*
0 $1 Rounding radius*
0 $2 $3 $4 $5 $6 $7 $8 $9 X,Y pos of 4 corners*
0 Add a 4 corners polygon primitive as box body*
4,1,4,$2,$3,$4,$5,$6,$7,$8,$9,$2,$3,0*
0 Add four circle primitives for the rounded corners*
1,1,$1+$1,$2,$3*
1,1,$1+$1,$4,$5*
1,1,$1+$1,$6,$7*
1,1,$1+$1,$8,$9*
0 Add four rect primitives between the rounded corners*
20,1,$1+$1,$2,$3,$4,$5,0*
20,1,$1+$1,$4,$5,$6,$7,0*
20,1,$1+$1,$6,$7,$8,$9,0*
20,1,$1+$1,$8,$9,$2,$3,0*%
G04 Aperture macros list end*
%TA.AperFunction,ComponentPad*%
%ADD10RoundRect,0.200000X-0.450000X0.200000X-0.450000X-0.200000X0.450000X-0.200000X0.450000X0.200000X0*%
%TD*%
%TA.AperFunction,ComponentPad*%
%ADD11O,1.300000X0.800000*%
%TD*%
%TA.AperFunction,SMDPad,CuDef*%
%ADD12R,1.350000X4.200000*%
%TD*%
%TA.AperFunction,ComponentPad*%
%ADD13R,1.700000X1.700000*%
%TD*%
%TA.AperFunction,ComponentPad*%
%ADD14O,1.700000X1.700000*%
%TD*%
%TA.AperFunction,ViaPad*%
%ADD15C,0.500000*%
%TD*%
%TA.AperFunction,ViaPad*%
%ADD16C,0.800000*%
%TD*%
%TA.AperFunction,Conductor*%
%ADD17C,0.250000*%
%TD*%
%TA.AperFunction,Conductor*%
%ADD18C,0.400000*%
%TD*%
%TA.AperFunction,Conductor*%
%ADD19C,0.200000*%
%TD*%
G04 APERTURE END LIST*
D10*
%TO.P,U3,1,RXD*%
%TO.N,/SC0_RXD*%
X105425000Y-99625000D03*
D11*
%TO.P,U3,2,CTS*%
%TO.N,/SC0_CTS*%
X105425000Y-100875000D03*
%TO.P,U3,3,RTS*%
%TO.N,/SC0_RTS*%
X105425000Y-102125000D03*
%TO.P,U3,4,NET*%
%TO.N,/RB_NET*%
X105425000Y-103375000D03*
%TO.P,U3,5,RI*%
%TO.N,/RB_RI*%
X105425000Y-104625000D03*
%TO.P,U3,6,TXD*%
%TO.N,/SC0_TXD*%
X105425000Y-105875000D03*
%TO.P,U3,7,SLP*%
%TO.N,/RB_SLP*%
X105425000Y-107125000D03*
%TO.P,U3,8,5V*%
%TO.N,+5V*%
X105425000Y-108375000D03*
%TO.P,U3,9,BAT*%
%TO.N,unconnected-(U3-Pad9)*%
X105425000Y-109625000D03*
%TO.P,U3,10,GND*%
%TO.N,GND*%
X105425000Y-110875000D03*
%TD*%
D12*
%TO.P,J6,2,Ext*%
%TO.N,GND*%
X144050000Y-74500000D03*
X149700000Y-74500000D03*
%TD*%
D13*
%TO.P,J5,1,Pin_1*%
%TO.N,Net-(J5-Pad1)*%
X145100000Y-101750000D03*
D14*
%TO.P,J5,2,Pin_2*%
%TO.N,GND*%
X147640000Y-101750000D03*
%TD*%
D13*
%TO.P,J7,1,Pin_1*%
%TO.N,+3V3*%
X113650000Y-103250000D03*
D14*
%TO.P,J7,2,Pin_2*%
%TO.N,Net-(C8-Pad2)*%
X111110000Y-103250000D03*
%TD*%
D13*
%TO.P,J3,1,Pin_1*%
%TO.N,+5V*%
X119875000Y-108837500D03*
D14*
%TO.P,J3,2,Pin_2*%
%TO.N,GND*%
X119875000Y-111377500D03*
%TD*%
D15*
%TO.N,/~{CS}*%
X109743749Y-79000000D03*
X130214987Y-94756593D03*
%TO.N,/SC1_SDO*%
X130197032Y-96186809D03*
X109924660Y-80549660D03*
%TO.N,+3V3*%
X134875000Y-98250000D03*
X137625000Y-98750000D03*
X122625000Y-88750000D03*
X113375000Y-76000000D03*
%TO.N,/SC1_SCK*%
X130625000Y-95500000D03*
X112721950Y-79846950D03*
%TO.N,GND*%
X139625000Y-83500000D03*
X138625000Y-88500000D03*
X123625000Y-92250000D03*
X125375000Y-83250000D03*
X110375000Y-97750000D03*
X107625000Y-93250000D03*
X122625000Y-92250000D03*
X116375000Y-100500000D03*
X103375000Y-94000000D03*
X116375000Y-101750000D03*
X144375000Y-88000000D03*
X117625000Y-106000000D03*
X122125000Y-86750000D03*
X123375000Y-83250000D03*
X118125000Y-102000000D03*
X122625000Y-94500000D03*
X105125000Y-90750000D03*
X121625000Y-102250000D03*
X106375000Y-114500000D03*
X117875000Y-100500000D03*
X109125000Y-97500000D03*
X121375000Y-101250000D03*
X108625000Y-103250000D03*
X99875000Y-90500000D03*
X126125000Y-87000000D03*
X103000000Y-111000000D03*
X112375000Y-98750000D03*
X148125000Y-88000000D03*
X124375000Y-94250000D03*
X120375000Y-103250000D03*
X135875000Y-83750000D03*
X100125000Y-95000000D03*
X127875000Y-82750000D03*
X148375000Y-84500000D03*
X132625000Y-83500000D03*
X148375000Y-91500000D03*
X127875000Y-84000000D03*
X135625000Y-88750000D03*
%TO.N,/SC1_SDI*%
X130949500Y-93770679D03*
X116375000Y-80000000D03*
%TO.N,/IMU_INT2*%
X120618075Y-81236151D03*
X134125000Y-80000000D03*
%TO.N,/GPS_~{RST}*%
X122125000Y-100500000D03*
X116875000Y-95500000D03*
%TO.N,/GPS_1PPS*%
X120526556Y-93212153D03*
X127510492Y-90697958D03*
%TO.N,/SC0_TXD*%
X112875000Y-96250000D03*
D16*
%TO.N,/SC0_CTS*%
X112850500Y-100525500D03*
D15*
%TO.N,/SC2_DI*%
X118499346Y-93562827D03*
X123125111Y-97925500D03*
%TO.N,/SC2_~{CS}*%
X128375000Y-78000000D03*
X119125000Y-93250000D03*
X119625000Y-80500000D03*
X123499020Y-97279807D03*
%TO.N,/SC2_DO*%
X117875000Y-94000000D03*
X124158888Y-97511923D03*
%TO.N,/SC2_SCK*%
X124771324Y-98018575D03*
X117125000Y-94500000D03*
%TO.N,/RB_SLP*%
X128149010Y-96500000D03*
%TO.N,/RB_NET*%
X127100989Y-92024539D03*
%TO.N,/RB_RI*%
X127550500Y-91444832D03*
%TO.N,Net-(D1-Pad2)*%
X116887173Y-92406626D03*
X126819338Y-90551059D03*
%TO.N,/~{SRST}*%
X126375000Y-90000000D03*
X134125000Y-104500000D03*
%TO.N,Net-(D2-Pad2)*%
X116020501Y-91435966D03*
X124875000Y-88000000D03*
%TO.N,/SWCLK*%
X121843767Y-89968767D03*
X131375000Y-103000000D03*
%TO.N,/SWDIO*%
X120949500Y-90425500D03*
X130625000Y-103500000D03*
%TD*%
D17*
%TO.N,/~{CS}*%
X116044239Y-85300490D02*
X109743749Y-79000000D01*
X126311194Y-85300490D02*
X116044239Y-85300490D01*
X129923043Y-88912339D02*
X126311194Y-85300490D01*
X130214987Y-94756593D02*
X129923043Y-94464649D01*
X129923043Y-94464649D02*
X129923043Y-88912339D01*
%TO.N,/SC1_SDO*%
X129473532Y-95104942D02*
X130072043Y-95703453D01*
X130072043Y-95703453D02*
X130072042Y-96061819D01*
X129473532Y-89098532D02*
X129473532Y-95104942D01*
X115125000Y-85750000D02*
X126125000Y-85750000D01*
X130072042Y-96061819D02*
X130197032Y-96186809D01*
X126125000Y-85750000D02*
X129473532Y-89098532D01*
X109924660Y-80549660D02*
X115125000Y-85750000D01*
D18*
%TO.N,+3V3*%
X113650000Y-94725000D02*
X113650000Y-88275000D01*
X108875000Y-76000000D02*
X113375000Y-76000000D01*
X107375000Y-82000000D02*
X107375000Y-77500000D01*
D19*
X134875000Y-98250000D02*
X137125000Y-98250000D01*
D18*
X122625000Y-88750000D02*
X119625000Y-88750000D01*
D19*
X137125000Y-98250000D02*
X137625000Y-98750000D01*
D18*
X113650000Y-94725000D02*
X113650000Y-103250000D01*
X119625000Y-88750000D02*
X113650000Y-94725000D01*
X113650000Y-88275000D02*
X107375000Y-82000000D01*
X107375000Y-77500000D02*
X108875000Y-76000000D01*
D17*
%TO.N,/SC1_SCK*%
X130789488Y-95335512D02*
X130625000Y-95500000D01*
X130372554Y-94101692D02*
X130789488Y-94518626D01*
X130372554Y-88726146D02*
X130372554Y-94101692D01*
X117725978Y-84850978D02*
X126497388Y-84850980D01*
X126497388Y-84850980D02*
X130372554Y-88726146D01*
X130789488Y-94518626D02*
X130789488Y-95335512D01*
X112721950Y-79846950D02*
X117725978Y-84850978D01*
D19*
%TO.N,GND*%
X127875000Y-82750000D02*
X127875000Y-84000000D01*
D17*
%TO.N,/SC1_SDI*%
X130949500Y-88667388D02*
X130949500Y-93770679D01*
X126683581Y-84401469D02*
X130949500Y-88667388D01*
X116375000Y-80000000D02*
X120776469Y-84401469D01*
X120776469Y-84401469D02*
X126683581Y-84401469D01*
%TO.N,/IMU_INT2*%
X132875000Y-81250000D02*
X120631924Y-81250000D01*
X120631924Y-81250000D02*
X120618075Y-81236151D01*
X134125000Y-80000000D02*
X132875000Y-81250000D01*
%TO.N,/GPS_~{RST}*%
X121875000Y-100500000D02*
X122125000Y-100500000D01*
X116875000Y-95500000D02*
X121875000Y-100500000D01*
%TO.N,/GPS_1PPS*%
X124970711Y-93212153D02*
X120526556Y-93212153D01*
X127312533Y-90870331D02*
X124970711Y-93212153D01*
X127510492Y-90697958D02*
X127338119Y-90870331D01*
X127338119Y-90870331D02*
X127312533Y-90870331D01*
%TO.N,/SC0_TXD*%
X103625000Y-104500000D02*
X103625000Y-98775000D01*
X105025000Y-105875000D02*
X103625000Y-104475000D01*
X103625000Y-98750000D02*
X106125000Y-96250000D01*
X105425000Y-105875000D02*
X105025000Y-105875000D01*
X106125000Y-96250000D02*
X112875000Y-96250000D01*
%TO.N,/SC0_CTS*%
X105425000Y-100875000D02*
X112501000Y-100875000D01*
X112501000Y-100875000D02*
X112850500Y-100525500D01*
%TO.N,/SC2_DI*%
X123125111Y-97925500D02*
X122862019Y-97925500D01*
X122862019Y-97925500D02*
X118499346Y-93562827D01*
%TO.N,/SC2_~{CS}*%
X123499020Y-97279807D02*
X119469213Y-93250000D01*
X119625000Y-80500000D02*
X125875000Y-80500000D01*
X125875000Y-80500000D02*
X128375000Y-78000000D01*
X119469213Y-93250000D02*
X119125000Y-93250000D01*
%TO.N,/SC2_DO*%
X123625000Y-98500000D02*
X122375000Y-98500000D01*
X124158888Y-97511923D02*
X124158888Y-97966112D01*
X124158888Y-97966112D02*
X123625000Y-98500000D01*
X122375000Y-98500000D02*
X117875000Y-94000000D01*
%TO.N,/SC2_SCK*%
X124771324Y-98018575D02*
X123840388Y-98949511D01*
X121574511Y-98949511D02*
X117125000Y-94500000D01*
X123840388Y-98949511D02*
X121574511Y-98949511D01*
%TO.N,/RB_SLP*%
X128125000Y-100000000D02*
X128125000Y-96524010D01*
X128125000Y-96524010D02*
X128149010Y-96500000D01*
X121000000Y-107125000D02*
X128125000Y-100000000D01*
X105425000Y-107125000D02*
X121000000Y-107125000D01*
%TO.N,/RB_NET*%
X107799511Y-104424511D02*
X121450489Y-104424511D01*
X127125000Y-98750000D02*
X127125000Y-92048550D01*
X106750000Y-103375000D02*
X107799511Y-104424511D01*
X105425000Y-103375000D02*
X106750000Y-103375000D01*
X127125000Y-92048550D02*
X127100989Y-92024539D01*
X121450489Y-104424511D02*
X127125000Y-98750000D01*
%TO.N,/RB_RI*%
X127675489Y-92436193D02*
X127675489Y-91569821D01*
X105425000Y-104625000D02*
X105674022Y-104874022D01*
X127574511Y-92537171D02*
X127675489Y-92436193D01*
X127675489Y-91569821D02*
X127550500Y-91444832D01*
X122000978Y-104874022D02*
X127574510Y-99300490D01*
X105674022Y-104874022D02*
X122000978Y-104874022D01*
X127574510Y-99300490D02*
X127574511Y-92537171D01*
%TO.N,Net-(D1-Pad2)*%
X116887173Y-92406626D02*
X118293799Y-91000000D01*
X126819338Y-90586855D02*
X126819338Y-90551059D01*
X126406193Y-91000000D02*
X126819338Y-90586855D01*
X118293799Y-91000000D02*
X126406193Y-91000000D01*
%TO.N,/~{SRST}*%
X128699501Y-103074501D02*
X130125000Y-104500000D01*
X128125000Y-90500000D02*
X128125000Y-95687532D01*
X128723511Y-96737967D02*
X128699501Y-96761977D01*
X130125000Y-104500000D02*
X134125000Y-104500000D01*
X128386977Y-95925499D02*
X128723511Y-96262033D01*
X128699501Y-96761977D02*
X128699501Y-103074501D01*
X126375000Y-90000000D02*
X126398442Y-89976558D01*
X128362967Y-95925499D02*
X128386977Y-95925499D01*
X128723511Y-96262033D02*
X128723511Y-96737967D01*
X127601558Y-89976558D02*
X128125000Y-90500000D01*
X126398442Y-89976558D02*
X127601558Y-89976558D01*
X128125000Y-95687532D02*
X128362967Y-95925499D01*
%TO.N,Net-(D2-Pad2)*%
X119456467Y-88000000D02*
X116020501Y-91435966D01*
X124875000Y-88000000D02*
X119456467Y-88000000D01*
%TO.N,/SWCLK*%
X127622395Y-88725988D02*
X129024022Y-90127615D01*
X129598522Y-101223522D02*
X131375000Y-103000000D01*
X129598522Y-97134364D02*
X129598522Y-101223522D01*
X129622532Y-95889646D02*
X129622532Y-97110354D01*
X121843767Y-89968767D02*
X124958061Y-89968767D01*
X129024022Y-95291136D02*
X129622532Y-95889646D01*
X129024022Y-90127615D02*
X129024022Y-95291136D01*
X126200840Y-88725988D02*
X127622395Y-88725988D01*
X129622532Y-97110354D02*
X129598522Y-97134364D01*
X124958061Y-89968767D02*
X126200840Y-88725988D01*
%TO.N,/SWDIO*%
X121074489Y-90550489D02*
X120949500Y-90425500D01*
X126262043Y-89300489D02*
X125012043Y-90550489D01*
X130625000Y-103500000D02*
X129149011Y-102024011D01*
X128574511Y-95477329D02*
X128574511Y-90313807D01*
X129149011Y-102024011D02*
X129149011Y-96948171D01*
X129173022Y-96924160D02*
X129173021Y-96075839D01*
X129173021Y-96075839D02*
X128574511Y-95477329D01*
X125012043Y-90550489D02*
X121074489Y-90550489D01*
X127561193Y-89300489D02*
X126262043Y-89300489D01*
X128574511Y-90313807D02*
X127561193Y-89300489D01*
X129149011Y-96948171D02*
X129173022Y-96924160D01*
D18*
%TO.N,+5V*%
X109250000Y-108375000D02*
X105425000Y-108375000D01*
X109712500Y-108837500D02*
X109250000Y-108375000D01*
X119875000Y-108837500D02*
X109712500Y-108837500D01*
%TD*%
%TA.AperFunction,Conductor*%
%TO.N,GND*%
G36*
X150809121Y-72778002D02*
G01*
X150855614Y-72831658D01*
X150867000Y-72884000D01*
X150867000Y-116616000D01*
X150846998Y-116684121D01*
X150793342Y-116730614D01*
X150741000Y-116742000D01*
X97509000Y-116742000D01*
X97440879Y-116721998D01*
X97394386Y-116668342D01*
X97383000Y-116616000D01*
X97383000Y-113727874D01*
X98262190Y-113727874D01*
X98278735Y-114014820D01*
X98279560Y-114019025D01*
X98279561Y-114019033D01*
X98313919Y-114194156D01*
X98334070Y-114296865D01*
X98335457Y-114300916D01*
X98411206Y-114522161D01*
X98427171Y-114568792D01*
X98556316Y-114825567D01*
X98558742Y-114829096D01*
X98558745Y-114829102D01*
X98597587Y-114885617D01*
X98719114Y-115062439D01*
X98912553Y-115275026D01*
X98915841Y-115277775D01*
X99129761Y-115456641D01*
X99129766Y-115456645D01*
X99133053Y-115459393D01*
X99254794Y-115535761D01*
X99372895Y-115609846D01*
X99372899Y-115609848D01*
X99376535Y-115612129D01*
X99638493Y-115730407D01*
X99914079Y-115812040D01*
X99918313Y-115812688D01*
X99918318Y-115812689D01*
X100169095Y-115851063D01*
X100198195Y-115855516D01*
X100344580Y-115857815D01*
X100481291Y-115859963D01*
X100481297Y-115859963D01*
X100485582Y-115860030D01*
X100770923Y-115825500D01*
X101048937Y-115752565D01*
X101052897Y-115750925D01*
X101052902Y-115750923D01*
X101195911Y-115691686D01*
X101314481Y-115642573D01*
X101562641Y-115497560D01*
X101788823Y-115320210D01*
X101988844Y-115113804D01*
X101991377Y-115110356D01*
X101991381Y-115110351D01*
X102156464Y-114885617D01*
X102159002Y-114882162D01*
X102296149Y-114629571D01*
X102346947Y-114495137D01*
X102396227Y-114364721D01*
X102396228Y-114364718D01*
X102397745Y-114360703D01*
X102461912Y-114080534D01*
X102468661Y-114004922D01*
X102487243Y-113796715D01*
X102487463Y-113794250D01*
X102487926Y-113750000D01*
X102487757Y-113747519D01*
X102486418Y-113727874D01*
X145762190Y-113727874D01*
X145778735Y-114014820D01*
X145779560Y-114019025D01*
X145779561Y-114019033D01*
X145813919Y-114194156D01*
X145834070Y-114296865D01*
X145835457Y-114300916D01*
X145911206Y-114522161D01*
X145927171Y-114568792D01*
X146056316Y-114825567D01*
X146058742Y-114829096D01*
X146058745Y-114829102D01*
X146097587Y-114885617D01*
X146219114Y-115062439D01*
X146412553Y-115275026D01*
X146415841Y-115277775D01*
X146629761Y-115456641D01*
X146629766Y-115456645D01*
X146633053Y-115459393D01*
X146754794Y-115535761D01*
X146872895Y-115609846D01*
X146872899Y-115609848D01*
X146876535Y-115612129D01*
X147138493Y-115730407D01*
X147414079Y-115812040D01*
X147418313Y-115812688D01*
X147418318Y-115812689D01*
X147669095Y-115851063D01*
X147698195Y-115855516D01*
X147844580Y-115857815D01*
X147981291Y-115859963D01*
X147981297Y-115859963D01*
X147985582Y-115860030D01*
X148270923Y-115825500D01*
X148548937Y-115752565D01*
X148552897Y-115750925D01*
X148552902Y-115750923D01*
X148695911Y-115691686D01*
X148814481Y-115642573D01*
X149062641Y-115497560D01*
X149288823Y-115320210D01*
X149488844Y-115113804D01*
X149491377Y-115110356D01*
X149491381Y-115110351D01*
X149656464Y-114885617D01*
X149659002Y-114882162D01*
X149796149Y-114629571D01*
X149846947Y-114495137D01*
X149896227Y-114364721D01*
X149896228Y-114364718D01*
X149897745Y-114360703D01*
X149961912Y-114080534D01*
X149968661Y-114004922D01*
X149987243Y-113796715D01*
X149987463Y-113794250D01*
X149987926Y-113750000D01*
X149987757Y-113747519D01*
X149968669Y-113467520D01*
X149968668Y-113467514D01*
X149968377Y-113463243D01*
X149963841Y-113441337D01*
X149910962Y-113185998D01*
X149910091Y-113181792D01*
X149902556Y-113160512D01*
X149815579Y-112914897D01*
X149814148Y-112910856D01*
X149682321Y-112655447D01*
X149517052Y-112420293D01*
X149321397Y-112209743D01*
X149098978Y-112027695D01*
X148853910Y-111877517D01*
X148849993Y-111875798D01*
X148849990Y-111875796D01*
X148733678Y-111824739D01*
X148590728Y-111761989D01*
X148586600Y-111760813D01*
X148586597Y-111760812D01*
X148500693Y-111736342D01*
X148314302Y-111683247D01*
X148310060Y-111682643D01*
X148310054Y-111682642D01*
X148033998Y-111643353D01*
X148029747Y-111642748D01*
X147878246Y-111641955D01*
X147746614Y-111641265D01*
X147746608Y-111641265D01*
X147742328Y-111641243D01*
X147738083Y-111641802D01*
X147738081Y-111641802D01*
X147679900Y-111649462D01*
X147457365Y-111678760D01*
X147180129Y-111754603D01*
X146915752Y-111867369D01*
X146912071Y-111869572D01*
X146672806Y-112012768D01*
X146672802Y-112012771D01*
X146669124Y-112014972D01*
X146665781Y-112017650D01*
X146665777Y-112017653D01*
X146583562Y-112083520D01*
X146444811Y-112194681D01*
X146246963Y-112403170D01*
X146079240Y-112636581D01*
X146077231Y-112640376D01*
X146077230Y-112640377D01*
X146071107Y-112651942D01*
X145944746Y-112890596D01*
X145845971Y-113160512D01*
X145784741Y-113441337D01*
X145762698Y-113721415D01*
X145762190Y-113727874D01*
X102486418Y-113727874D01*
X102468669Y-113467520D01*
X102468668Y-113467514D01*
X102468377Y-113463243D01*
X102463841Y-113441337D01*
X102410962Y-113185998D01*
X102410091Y-113181792D01*
X102402556Y-113160512D01*
X102315579Y-112914897D01*
X102314148Y-112910856D01*
X102182321Y-112655447D01*
X102017052Y-112420293D01*
X101821397Y-112209743D01*
X101598978Y-112027695D01*
X101353910Y-111877517D01*
X101349993Y-111875798D01*
X101349990Y-111875796D01*
X101233678Y-111824739D01*
X101090728Y-111761989D01*
X101086600Y-111760813D01*
X101086597Y-111760812D01*
X101000693Y-111736342D01*
X100814302Y-111683247D01*
X100810060Y-111682643D01*
X100810054Y-111682642D01*
X100533998Y-111643353D01*
X100529747Y-111642748D01*
X100378246Y-111641955D01*
X100246614Y-111641265D01*
X100246608Y-111641265D01*
X100242328Y-111641243D01*
X100238083Y-111641802D01*
X100238081Y-111641802D01*
X100179900Y-111649462D01*
X99957365Y-111678760D01*
X99680129Y-111754603D01*
X99415752Y-111867369D01*
X99412071Y-111869572D01*
X99172806Y-112012768D01*
X99172802Y-112012771D01*
X99169124Y-112014972D01*
X99165781Y-112017650D01*
X99165777Y-112017653D01*
X99083562Y-112083520D01*
X98944811Y-112194681D01*
X98746963Y-112403170D01*
X98579240Y-112636581D01*
X98577231Y-112640376D01*
X98577230Y-112640377D01*
X98571107Y-112651942D01*
X98444746Y-112890596D01*
X98345971Y-113160512D01*
X98284741Y-113441337D01*
X98262698Y-113721415D01*
X98262190Y-113727874D01*
X97383000Y-113727874D01*
X97383000Y-111143468D01*
X104303778Y-111143468D01*
X104305310Y-111150675D01*
X104309367Y-111163161D01*
X104381632Y-111325471D01*
X104388198Y-111336843D01*
X104492624Y-111480574D01*
X104501415Y-111490337D01*
X104633442Y-111609214D01*
X104644073Y-111616938D01*
X104797926Y-111705765D01*
X104809934Y-111711111D01*
X104978898Y-111766011D01*
X104991739Y-111768741D01*
X105124138Y-111782656D01*
X105130698Y-111783000D01*
X105152885Y-111783000D01*
X105168124Y-111778525D01*
X105169329Y-111777135D01*
X105171000Y-111769452D01*
X105171000Y-111764885D01*
X105679000Y-111764885D01*
X105683475Y-111780124D01*
X105684865Y-111781329D01*
X105692548Y-111783000D01*
X105719302Y-111783000D01*
X105725862Y-111782656D01*
X105858261Y-111768741D01*
X105871102Y-111766011D01*
X106040066Y-111711111D01*
X106052074Y-111705765D01*
X106156515Y-111645466D01*
X118543257Y-111645466D01*
X118573565Y-111779946D01*
X118576645Y-111789775D01*
X118656770Y-111987103D01*
X118661413Y-111996294D01*
X118772694Y-112177888D01*
X118778777Y-112186199D01*
X118918213Y-112347167D01*
X118925580Y-112354383D01*
X119089434Y-112490416D01*
X119097881Y-112496331D01*
X119281756Y-112603779D01*
X119291042Y-112608229D01*
X119490001Y-112684203D01*
X119499899Y-112687079D01*
X119603250Y-112708106D01*
X119617299Y-112706910D01*
X119621000Y-112696565D01*
X119621000Y-112696017D01*
X120129000Y-112696017D01*
X120133064Y-112709859D01*
X120146478Y-112711893D01*
X120153184Y-112711034D01*
X120163262Y-112708892D01*
X120367255Y-112647691D01*
X120376842Y-112643933D01*
X120568095Y-112550239D01*
X120576945Y-112544964D01*
X120750328Y-112421292D01*
X120758200Y-112414639D01*
X120909052Y-112264312D01*
X120915730Y-112256465D01*
X121040003Y-112083520D01*
X121045313Y-112074683D01*
X121139670Y-111883767D01*
X121143469Y-111874172D01*
X121205377Y-111670410D01*
X121207555Y-111660337D01*
X121208986Y-111649462D01*
X121206775Y-111635278D01*
X121193617Y-111631500D01*
X120147115Y-111631500D01*
X120131876Y-111635975D01*
X120130671Y-111637365D01*
X120129000Y-111645048D01*
X120129000Y-112696017D01*
X119621000Y-112696017D01*
X119621000Y-111649615D01*
X119616525Y-111634376D01*
X119615135Y-111633171D01*
X119607452Y-111631500D01*
X118558225Y-111631500D01*
X118544694Y-111635473D01*
X118543257Y-111645466D01*
X106156515Y-111645466D01*
X106205927Y-111616938D01*
X106216558Y-111609214D01*
X106348585Y-111490337D01*
X106357376Y-111480574D01*
X106461802Y-111336843D01*
X106468368Y-111325471D01*
X106540633Y-111163161D01*
X106544690Y-111150675D01*
X106545530Y-111146722D01*
X106544457Y-111132659D01*
X106534503Y-111129000D01*
X105697115Y-111129000D01*
X105681876Y-111133475D01*
X105680671Y-111134865D01*
X105679000Y-111142548D01*
X105679000Y-111764885D01*
X105171000Y-111764885D01*
X105171000Y-111147115D01*
X105166525Y-111131876D01*
X105165135Y-111130671D01*
X105157452Y-111129000D01*
X104318818Y-111129000D01*
X104305287Y-111132973D01*
X104303778Y-111143468D01*
X97383000Y-111143468D01*
X97383000Y-98729943D01*
X102986780Y-98729943D01*
X102987526Y-98737835D01*
X102990941Y-98773961D01*
X102991500Y-98785819D01*
X102991500Y-104396233D01*
X102990973Y-104407416D01*
X102989298Y-104414909D01*
X102989547Y-104422835D01*
X102989547Y-104422836D01*
X102991438Y-104482986D01*
X102991500Y-104486945D01*
X102991500Y-104539856D01*
X102991996Y-104543784D01*
X102991997Y-104543797D01*
X102993052Y-104552147D01*
X102993984Y-104563976D01*
X102994327Y-104574889D01*
X102996537Y-104582495D01*
X102997778Y-104590330D01*
X102997547Y-104590367D01*
X102998398Y-104594455D01*
X103006526Y-104658797D01*
X103065448Y-104807617D01*
X103159528Y-104937107D01*
X103165634Y-104942158D01*
X103276751Y-105034083D01*
X103276754Y-105034085D01*
X103282856Y-105039133D01*
X103290025Y-105042506D01*
X103296279Y-105046475D01*
X103317862Y-105063766D01*
X104251424Y-105997329D01*
X104285575Y-106060227D01*
X104306206Y-106157288D01*
X104383882Y-106331752D01*
X104387762Y-106337093D01*
X104387763Y-106337094D01*
X104452313Y-106425939D01*
X104476172Y-106492807D01*
X104460091Y-106561958D01*
X104452313Y-106574061D01*
X104383882Y-106668248D01*
X104306206Y-106842712D01*
X104266500Y-107029513D01*
X104266500Y-107220487D01*
X104306206Y-107407288D01*
X104308891Y-107413318D01*
X104308891Y-107413319D01*
X104370559Y-107551827D01*
X104383882Y-107581752D01*
X104387762Y-107587093D01*
X104387763Y-107587094D01*
X104452313Y-107675939D01*
X104476172Y-107742807D01*
X104460091Y-107811958D01*
X104452313Y-107824061D01*
X104398515Y-107898108D01*
X104383882Y-107918248D01*
X104381198Y-107924276D01*
X104381197Y-107924278D01*
X104372958Y-107942783D01*
X104306206Y-108092712D01*
X104266500Y-108279513D01*
X104266500Y-108470487D01*
X104306206Y-108657288D01*
X104383882Y-108831752D01*
X104387762Y-108837093D01*
X104387763Y-108837094D01*
X104452313Y-108925939D01*
X104476172Y-108992807D01*
X104460091Y-109061958D01*
X104452313Y-109074061D01*
X104383882Y-109168248D01*
X104381198Y-109174276D01*
X104381197Y-109174278D01*
X104315844Y-109321065D01*
X104306206Y-109342712D01*
X104286353Y-109436112D01*
X104268368Y-109520726D01*
X104266500Y-109529513D01*
X104266500Y-109720487D01*
X104267872Y-109726939D01*
X104267872Y-109726944D01*
X104282937Y-109797816D01*
X104306206Y-109907288D01*
X104308891Y-109913318D01*
X104308891Y-109913319D01*
X104372480Y-110056142D01*
X104383882Y-110081752D01*
X104452623Y-110176366D01*
X104476480Y-110243230D01*
X104460400Y-110312382D01*
X104452622Y-110324485D01*
X104388198Y-110413157D01*
X104381632Y-110424529D01*
X104309367Y-110586839D01*
X104305310Y-110599325D01*
X104304470Y-110603278D01*
X104305543Y-110617341D01*
X104315497Y-110621000D01*
X106531182Y-110621000D01*
X106544713Y-110617027D01*
X106546222Y-110606532D01*
X106544690Y-110599325D01*
X106540633Y-110586839D01*
X106468368Y-110424529D01*
X106461802Y-110413157D01*
X106397378Y-110324485D01*
X106373519Y-110257617D01*
X106389600Y-110188466D01*
X106397366Y-110176380D01*
X106466118Y-110081752D01*
X106477521Y-110056142D01*
X106541109Y-109913319D01*
X106541109Y-109913318D01*
X106543794Y-109907288D01*
X106567063Y-109797816D01*
X106582128Y-109726944D01*
X106582128Y-109726939D01*
X106583500Y-109720487D01*
X106583500Y-109529513D01*
X106581633Y-109520726D01*
X106563647Y-109436112D01*
X106543794Y-109342712D01*
X106541109Y-109336681D01*
X106541108Y-109336677D01*
X106507302Y-109260748D01*
X106497868Y-109190381D01*
X106527975Y-109126084D01*
X106588064Y-109088271D01*
X106622409Y-109083500D01*
X108904340Y-109083500D01*
X108972461Y-109103502D01*
X108993435Y-109120405D01*
X109191050Y-109318020D01*
X109196904Y-109324285D01*
X109234939Y-109367885D01*
X109241157Y-109372255D01*
X109287197Y-109404612D01*
X109292493Y-109408545D01*
X109342782Y-109447977D01*
X109349704Y-109451102D01*
X109351952Y-109452464D01*
X109366685Y-109460868D01*
X109369024Y-109462122D01*
X109375239Y-109466490D01*
X109382315Y-109469249D01*
X109382319Y-109469251D01*
X109434769Y-109489700D01*
X109440834Y-109492249D01*
X109499073Y-109518545D01*
X109506538Y-109519929D01*
X109509082Y-109520726D01*
X109525348Y-109525359D01*
X109527928Y-109526021D01*
X109535009Y-109528782D01*
X109542542Y-109529774D01*
X109542543Y-109529774D01*
X109575199Y-109534073D01*
X109598357Y-109537122D01*
X109604855Y-109538150D01*
X109667687Y-109549796D01*
X109675267Y-109549359D01*
X109675268Y-109549359D01*
X109729893Y-109546209D01*
X109737147Y-109546000D01*
X118390500Y-109546000D01*
X118458621Y-109566002D01*
X118505114Y-109619658D01*
X118516500Y-109672000D01*
X118516500Y-109735634D01*
X118523255Y-109797816D01*
X118574385Y-109934205D01*
X118661739Y-110050761D01*
X118778295Y-110138115D01*
X118786704Y-110141267D01*
X118786705Y-110141268D01*
X118895960Y-110182226D01*
X118952725Y-110224867D01*
X118977425Y-110291429D01*
X118962218Y-110360778D01*
X118942825Y-110387259D01*
X118819590Y-110516217D01*
X118813104Y-110524227D01*
X118693098Y-110700149D01*
X118688000Y-110709123D01*
X118598338Y-110902283D01*
X118594775Y-110911970D01*
X118539389Y-111111683D01*
X118540912Y-111120107D01*
X118553292Y-111123500D01*
X121193344Y-111123500D01*
X121206875Y-111119527D01*
X121208180Y-111110447D01*
X121166214Y-110943375D01*
X121162894Y-110933624D01*
X121077972Y-110738314D01*
X121073105Y-110729239D01*
X121011857Y-110634564D01*
X125212707Y-110634564D01*
X125241825Y-110827099D01*
X125244028Y-110833085D01*
X125244029Y-110833091D01*
X125306860Y-111003860D01*
X125306862Y-111003865D01*
X125309063Y-111009846D01*
X125312425Y-111015268D01*
X125404123Y-111163161D01*
X125411674Y-111175340D01*
X125545466Y-111316822D01*
X125704975Y-111428511D01*
X125710838Y-111431048D01*
X125877825Y-111503310D01*
X125877829Y-111503311D01*
X125883684Y-111505845D01*
X125889931Y-111507150D01*
X125889934Y-111507151D01*
X126069557Y-111544676D01*
X126069562Y-111544677D01*
X126074293Y-111545665D01*
X126080685Y-111546000D01*
X126223663Y-111546000D01*
X126292951Y-111538962D01*
X126362378Y-111531910D01*
X126362379Y-111531910D01*
X126368727Y-111531265D01*
X126449843Y-111505845D01*
X126548451Y-111474944D01*
X126548456Y-111474942D01*
X126554541Y-111473035D01*
X126641475Y-111424846D01*
X126719271Y-111381723D01*
X126719274Y-111381721D01*
X126724850Y-111378630D01*
X126729691Y-111374481D01*
X126729695Y-111374478D01*
X126867855Y-111256060D01*
X126872698Y-111251909D01*
X126992046Y-111098047D01*
X127032779Y-111015268D01*
X127075200Y-110929056D01*
X127078018Y-110923329D01*
X127083500Y-110902283D01*
X127125492Y-110741075D01*
X127125492Y-110741072D01*
X127127102Y-110734893D01*
X127132360Y-110634564D01*
X129612707Y-110634564D01*
X129641825Y-110827099D01*
X129644028Y-110833085D01*
X129644029Y-110833091D01*
X129706860Y-111003860D01*
X129706862Y-111003865D01*
X129709063Y-111009846D01*
X129712425Y-111015268D01*
X129804123Y-111163161D01*
X129811674Y-111175340D01*
X129945466Y-111316822D01*
X130104975Y-111428511D01*
X130110838Y-111431048D01*
X130277825Y-111503310D01*
X130277829Y-111503311D01*
X130283684Y-111505845D01*
X130289931Y-111507150D01*
X130289934Y-111507151D01*
X130469557Y-111544676D01*
X130469562Y-111544677D01*
X130474293Y-111545665D01*
X130480685Y-111546000D01*
X130623663Y-111546000D01*
X130692951Y-111538962D01*
X130762378Y-111531910D01*
X130762379Y-111531910D01*
X130768727Y-111531265D01*
X130849843Y-111505845D01*
X130948451Y-111474944D01*
X130948456Y-111474942D01*
X130954541Y-111473035D01*
X131041475Y-111424846D01*
X131119271Y-111381723D01*
X131119274Y-111381721D01*
X131124850Y-111378630D01*
X131129691Y-111374481D01*
X131129695Y-111374478D01*
X131267855Y-111256060D01*
X131272698Y-111251909D01*
X131392046Y-111098047D01*
X131432779Y-111015268D01*
X131475200Y-110929056D01*
X131478018Y-110923329D01*
X131483500Y-110902283D01*
X131525492Y-110741075D01*
X131525492Y-110741072D01*
X131527102Y-110734893D01*
X131534861Y-110586839D01*
X131536959Y-110546817D01*
X131536959Y-110546813D01*
X131537293Y-110540436D01*
X131510616Y-110364040D01*
X131509130Y-110354215D01*
X131509130Y-110354214D01*
X131508175Y-110347901D01*
X131505972Y-110341915D01*
X131505971Y-110341909D01*
X131443140Y-110171140D01*
X131443138Y-110171135D01*
X131440937Y-110165154D01*
X131383121Y-110071906D01*
X131341688Y-110005082D01*
X131341687Y-110005081D01*
X131338326Y-109999660D01*
X131204534Y-109858178D01*
X131045025Y-109746489D01*
X130969679Y-109713884D01*
X130872175Y-109671690D01*
X130872171Y-109671689D01*
X130866316Y-109669155D01*
X130860069Y-109667850D01*
X130860066Y-109667849D01*
X130680443Y-109630324D01*
X130680438Y-109630323D01*
X130675707Y-109629335D01*
X130669315Y-109629000D01*
X130526337Y-109629000D01*
X130457049Y-109636038D01*
X130387622Y-109643090D01*
X130387621Y-109643090D01*
X130381273Y-109643735D01*
X130324939Y-109661389D01*
X130201549Y-109700056D01*
X130201544Y-109700058D01*
X130195459Y-109701965D01*
X130128591Y-109739031D01*
X130030729Y-109793277D01*
X130030726Y-109793279D01*
X130025150Y-109796370D01*
X130020309Y-109800519D01*
X130020305Y-109800522D01*
X130014830Y-109805215D01*
X129877302Y-109923091D01*
X129757954Y-110076953D01*
X129755138Y-110082676D01*
X129755136Y-110082679D01*
X129685171Y-110224867D01*
X129671982Y-110251671D01*
X129670373Y-110257849D01*
X129670372Y-110257851D01*
X129626956Y-110424529D01*
X129622898Y-110440107D01*
X129618909Y-110516217D01*
X129613418Y-110621000D01*
X129612707Y-110634564D01*
X127132360Y-110634564D01*
X127134861Y-110586839D01*
X127136959Y-110546817D01*
X127136959Y-110546813D01*
X127137293Y-110540436D01*
X127110616Y-110364040D01*
X127109130Y-110354215D01*
X127109130Y-110354214D01*
X127108175Y-110347901D01*
X127105972Y-110341915D01*
X127105971Y-110341909D01*
X127043140Y-110171140D01*
X127043138Y-110171135D01*
X127040937Y-110165154D01*
X126983121Y-110071906D01*
X126941688Y-110005082D01*
X126941687Y-110005081D01*
X126938326Y-109999660D01*
X126804534Y-109858178D01*
X126645025Y-109746489D01*
X126569679Y-109713884D01*
X126472175Y-109671690D01*
X126472171Y-109671689D01*
X126466316Y-109669155D01*
X126460069Y-109667850D01*
X126460066Y-109667849D01*
X126280443Y-109630324D01*
X126280438Y-109630323D01*
X126275707Y-109629335D01*
X126269315Y-109629000D01*
X126126337Y-109629000D01*
X126057049Y-109636038D01*
X125987622Y-109643090D01*
X125987621Y-109643090D01*
X125981273Y-109643735D01*
X125924939Y-109661389D01*
X125801549Y-109700056D01*
X125801544Y-109700058D01*
X125795459Y-109701965D01*
X125728591Y-109739031D01*
X125630729Y-109793277D01*
X125630726Y-109793279D01*
X125625150Y-109796370D01*
X125620309Y-109800519D01*
X125620305Y-109800522D01*
X125614830Y-109805215D01*
X125477302Y-109923091D01*
X125357954Y-110076953D01*
X125355138Y-110082676D01*
X125355136Y-110082679D01*
X125285171Y-110224867D01*
X125271982Y-110251671D01*
X125270373Y-110257849D01*
X125270372Y-110257851D01*
X125226956Y-110424529D01*
X125222898Y-110440107D01*
X125218909Y-110516217D01*
X125213418Y-110621000D01*
X125212707Y-110634564D01*
X121011857Y-110634564D01*
X120957426Y-110550426D01*
X120951136Y-110542257D01*
X120807293Y-110384177D01*
X120776241Y-110320331D01*
X120784635Y-110249833D01*
X120829812Y-110195064D01*
X120856256Y-110181395D01*
X120963297Y-110141267D01*
X120971705Y-110138115D01*
X121088261Y-110050761D01*
X121175615Y-109934205D01*
X121226745Y-109797816D01*
X121233500Y-109735634D01*
X121233500Y-107939366D01*
X121226745Y-107877184D01*
X121217742Y-107853168D01*
X121212559Y-107782362D01*
X121246479Y-107719993D01*
X121289342Y-107691787D01*
X121307617Y-107684552D01*
X121343387Y-107658564D01*
X121353307Y-107652048D01*
X121384535Y-107633580D01*
X121384538Y-107633578D01*
X121391362Y-107629542D01*
X121405683Y-107615221D01*
X121420717Y-107602380D01*
X121430694Y-107595131D01*
X121437107Y-107590472D01*
X121465298Y-107556395D01*
X121473288Y-107547616D01*
X127850906Y-101169998D01*
X127913218Y-101135972D01*
X127984033Y-101141037D01*
X128040869Y-101183584D01*
X128065680Y-101250104D01*
X128066001Y-101259093D01*
X128066001Y-102995734D01*
X128065474Y-103006917D01*
X128063799Y-103014410D01*
X128064048Y-103022336D01*
X128064048Y-103022337D01*
X128065939Y-103082487D01*
X128066001Y-103086446D01*
X128066001Y-103114357D01*
X128066498Y-103118291D01*
X128066498Y-103118292D01*
X128066506Y-103118357D01*
X128067439Y-103130194D01*
X128068828Y-103174390D01*
X128074479Y-103193840D01*
X128078488Y-103213201D01*
X128081027Y-103233298D01*
X128083946Y-103240669D01*
X128083946Y-103240671D01*
X128097305Y-103274413D01*
X128101150Y-103285643D01*
X128113483Y-103328094D01*
X128117516Y-103334913D01*
X128117518Y-103334918D01*
X128123794Y-103345529D01*
X128132489Y-103363277D01*
X128139949Y-103382118D01*
X128144611Y-103388534D01*
X128144611Y-103388535D01*
X128165937Y-103417888D01*
X128172453Y-103427808D01*
X128176439Y-103434547D01*
X128194959Y-103465863D01*
X128209280Y-103480184D01*
X128222120Y-103495217D01*
X128234029Y-103511608D01*
X128240135Y-103516659D01*
X128268106Y-103539799D01*
X128276885Y-103547789D01*
X129621348Y-104892253D01*
X129628888Y-104900539D01*
X129633000Y-104907018D01*
X129638777Y-104912443D01*
X129682651Y-104953643D01*
X129685493Y-104956398D01*
X129705230Y-104976135D01*
X129708427Y-104978615D01*
X129717447Y-104986318D01*
X129749679Y-105016586D01*
X129756625Y-105020405D01*
X129756628Y-105020407D01*
X129767434Y-105026348D01*
X129783953Y-105037199D01*
X129799959Y-105049614D01*
X129807228Y-105052759D01*
X129807232Y-105052762D01*
X129840537Y-105067174D01*
X129851187Y-105072391D01*
X129889940Y-105093695D01*
X129897615Y-105095666D01*
X129897616Y-105095666D01*
X129909562Y-105098733D01*
X129928267Y-105105137D01*
X129946855Y-105113181D01*
X129954678Y-105114420D01*
X129954688Y-105114423D01*
X129990524Y-105120099D01*
X130002144Y-105122505D01*
X130037289Y-105131528D01*
X130044970Y-105133500D01*
X130065224Y-105133500D01*
X130084934Y-105135051D01*
X130104943Y-105138220D01*
X130112835Y-105137474D01*
X130148961Y-105134059D01*
X130160819Y-105133500D01*
X133670223Y-105133500D01*
X133739216Y-105154068D01*
X133780846Y-105181310D01*
X133787450Y-105183766D01*
X133787452Y-105183767D01*
X133823844Y-105197301D01*
X133940341Y-105240626D01*
X134109015Y-105263132D01*
X134116026Y-105262494D01*
X134116030Y-105262494D01*
X134271462Y-105248348D01*
X134278483Y-105247709D01*
X134285185Y-105245531D01*
X134285187Y-105245531D01*
X134433623Y-105197301D01*
X134433626Y-105197300D01*
X134440322Y-105195124D01*
X134586490Y-105107990D01*
X134591584Y-105103139D01*
X134591588Y-105103136D01*
X134682474Y-105016586D01*
X134709721Y-104990639D01*
X134715292Y-104982255D01*
X134770939Y-104898498D01*
X134803891Y-104848902D01*
X134864319Y-104689825D01*
X134888001Y-104521313D01*
X134888299Y-104500000D01*
X134869331Y-104330892D01*
X134813368Y-104170189D01*
X134723192Y-104025879D01*
X134711145Y-104013747D01*
X134608248Y-103910129D01*
X134603286Y-103905132D01*
X134459608Y-103813951D01*
X134299300Y-103756868D01*
X134130329Y-103736720D01*
X134123326Y-103737456D01*
X134123325Y-103737456D01*
X133968101Y-103753770D01*
X133968097Y-103753771D01*
X133961093Y-103754507D01*
X133800003Y-103809346D01*
X133737468Y-103847818D01*
X133671448Y-103866500D01*
X131860276Y-103866500D01*
X131792155Y-103846498D01*
X131745662Y-103792842D01*
X131735558Y-103722568D01*
X131765052Y-103657988D01*
X131795759Y-103632271D01*
X131830441Y-103611597D01*
X131830447Y-103611592D01*
X131836490Y-103607990D01*
X131841584Y-103603139D01*
X131841588Y-103603136D01*
X131937701Y-103511608D01*
X131959721Y-103490639D01*
X131966668Y-103480184D01*
X132031822Y-103382118D01*
X132053891Y-103348902D01*
X132114319Y-103189825D01*
X132138001Y-103021313D01*
X132138193Y-103007594D01*
X132138244Y-103003961D01*
X132138244Y-103003955D01*
X132138299Y-103000000D01*
X132119331Y-102830892D01*
X132116318Y-102822238D01*
X132065686Y-102676846D01*
X132063368Y-102670189D01*
X132049587Y-102648134D01*
X143741500Y-102648134D01*
X143748255Y-102710316D01*
X143799385Y-102846705D01*
X143886739Y-102963261D01*
X144003295Y-103050615D01*
X144139684Y-103101745D01*
X144201866Y-103108500D01*
X145998134Y-103108500D01*
X146060316Y-103101745D01*
X146196705Y-103050615D01*
X146313261Y-102963261D01*
X146400615Y-102846705D01*
X146415190Y-102807826D01*
X146444798Y-102728848D01*
X146487440Y-102672084D01*
X146554001Y-102647384D01*
X146623350Y-102662592D01*
X146658017Y-102690580D01*
X146683218Y-102719673D01*
X146690580Y-102726883D01*
X146854434Y-102862916D01*
X146862881Y-102868831D01*
X147046756Y-102976279D01*
X147056042Y-102980729D01*
X147255001Y-103056703D01*
X147264899Y-103059579D01*
X147368250Y-103080606D01*
X147382299Y-103079410D01*
X147386000Y-103069065D01*
X147386000Y-103068517D01*
X147894000Y-103068517D01*
X147898064Y-103082359D01*
X147911478Y-103084393D01*
X147918184Y-103083534D01*
X147928262Y-103081392D01*
X148132255Y-103020191D01*
X148141842Y-103016433D01*
X148333095Y-102922739D01*
X148341945Y-102917464D01*
X148515328Y-102793792D01*
X148523200Y-102787139D01*
X148674052Y-102636812D01*
X148680730Y-102628965D01*
X148805003Y-102456020D01*
X148810313Y-102447183D01*
X148904670Y-102256267D01*
X148908469Y-102246672D01*
X148970377Y-102042910D01*
X148972555Y-102032837D01*
X148973986Y-102021962D01*
X148971775Y-102007778D01*
X148958617Y-102004000D01*
X147912115Y-102004000D01*
X147896876Y-102008475D01*
X147895671Y-102009865D01*
X147894000Y-102017548D01*
X147894000Y-103068517D01*
X147386000Y-103068517D01*
X147386000Y-101477885D01*
X147894000Y-101477885D01*
X147898475Y-101493124D01*
X147899865Y-101494329D01*
X147907548Y-101496000D01*
X148958344Y-101496000D01*
X148971875Y-101492027D01*
X148973180Y-101482947D01*
X148931214Y-101315875D01*
X148927894Y-101306124D01*
X148842972Y-101110814D01*
X148838105Y-101101739D01*
X148722426Y-100922926D01*
X148716136Y-100914757D01*
X148572806Y-100757240D01*
X148565273Y-100750215D01*
X148398139Y-100618222D01*
X148389552Y-100612517D01*
X148203117Y-100509599D01*
X148193705Y-100505369D01*
X147992959Y-100434280D01*
X147982988Y-100431646D01*
X147911837Y-100418972D01*
X147898540Y-100420432D01*
X147894000Y-100434989D01*
X147894000Y-101477885D01*
X147386000Y-101477885D01*
X147386000Y-100433102D01*
X147382082Y-100419758D01*
X147367806Y-100417771D01*
X147329324Y-100423660D01*
X147319288Y-100426051D01*
X147116868Y-100492212D01*
X147107359Y-100496209D01*
X146918463Y-100594542D01*
X146909738Y-100600036D01*
X146739433Y-100727905D01*
X146731726Y-100734748D01*
X146654478Y-100815584D01*
X146592954Y-100851014D01*
X146522042Y-100847557D01*
X146464255Y-100806311D01*
X146445402Y-100772763D01*
X146403767Y-100661703D01*
X146400615Y-100653295D01*
X146313261Y-100536739D01*
X146196705Y-100449385D01*
X146060316Y-100398255D01*
X145998134Y-100391500D01*
X144201866Y-100391500D01*
X144139684Y-100398255D01*
X144003295Y-100449385D01*
X143886739Y-100536739D01*
X143799385Y-100653295D01*
X143748255Y-100789684D01*
X143741500Y-100851866D01*
X143741500Y-102648134D01*
X132049587Y-102648134D01*
X132042512Y-102636812D01*
X132017989Y-102597568D01*
X131973192Y-102525879D01*
X131853286Y-102405132D01*
X131709608Y-102313951D01*
X131549300Y-102256868D01*
X131549813Y-102255427D01*
X131496850Y-102225945D01*
X130268927Y-100998022D01*
X130234901Y-100935710D01*
X130232022Y-100908927D01*
X130232022Y-98239343D01*
X134111775Y-98239343D01*
X134128381Y-98408699D01*
X134182094Y-98570167D01*
X134185741Y-98576189D01*
X134185742Y-98576191D01*
X134260810Y-98700142D01*
X134270246Y-98715723D01*
X134388455Y-98838132D01*
X134530846Y-98931310D01*
X134537450Y-98933766D01*
X134537452Y-98933767D01*
X134571459Y-98946414D01*
X134690341Y-98990626D01*
X134859015Y-99013132D01*
X134866026Y-99012494D01*
X134866030Y-99012494D01*
X135021462Y-98998348D01*
X135028483Y-98997709D01*
X135035185Y-98995531D01*
X135035187Y-98995531D01*
X135183623Y-98947301D01*
X135183626Y-98947300D01*
X135190322Y-98945124D01*
X135305823Y-98876271D01*
X135370341Y-98858500D01*
X136770808Y-98858500D01*
X136838929Y-98878502D01*
X136885422Y-98932158D01*
X136890366Y-98944728D01*
X136908203Y-98998348D01*
X136932094Y-99070167D01*
X136935741Y-99076189D01*
X136935742Y-99076191D01*
X136949497Y-99098902D01*
X137020246Y-99215723D01*
X137138455Y-99338132D01*
X137189063Y-99371249D01*
X137255896Y-99414983D01*
X137280846Y-99431310D01*
X137287450Y-99433766D01*
X137287452Y-99433767D01*
X137360594Y-99460968D01*
X137440341Y-99490626D01*
X137609015Y-99513132D01*
X137616026Y-99512494D01*
X137616030Y-99512494D01*
X137771462Y-99498348D01*
X137778483Y-99497709D01*
X137785185Y-99495531D01*
X137785187Y-99495531D01*
X137933623Y-99447301D01*
X137933626Y-99447300D01*
X137940322Y-99445124D01*
X138086490Y-99357990D01*
X138091584Y-99353139D01*
X138091588Y-99353136D01*
X138159400Y-99288559D01*
X138209721Y-99240639D01*
X138303891Y-99098902D01*
X138364319Y-98939825D01*
X138365397Y-98932158D01*
X138372937Y-98878502D01*
X138388001Y-98771313D01*
X138388118Y-98762964D01*
X138388244Y-98753961D01*
X138388244Y-98753955D01*
X138388299Y-98750000D01*
X138369331Y-98580892D01*
X138313368Y-98420189D01*
X138301809Y-98401690D01*
X138259111Y-98333361D01*
X138223192Y-98275879D01*
X138186911Y-98239343D01*
X138108248Y-98160129D01*
X138103286Y-98155132D01*
X137959608Y-98063951D01*
X137903012Y-98043798D01*
X137805935Y-98009230D01*
X137805930Y-98009229D01*
X137799300Y-98006868D01*
X137792312Y-98006035D01*
X137792309Y-98006034D01*
X137778040Y-98004333D01*
X137712767Y-97976406D01*
X137703863Y-97968314D01*
X137589315Y-97853766D01*
X137578448Y-97841375D01*
X137564013Y-97822563D01*
X137558987Y-97816013D01*
X137527075Y-97791526D01*
X137527072Y-97791523D01*
X137431876Y-97718476D01*
X137283851Y-97657162D01*
X137275664Y-97656084D01*
X137275663Y-97656084D01*
X137264458Y-97654609D01*
X137218146Y-97648512D01*
X137164885Y-97641500D01*
X137164882Y-97641500D01*
X137164874Y-97641499D01*
X137133189Y-97637328D01*
X137125000Y-97636250D01*
X137093307Y-97640422D01*
X137076864Y-97641500D01*
X135368411Y-97641500D01*
X135300897Y-97621885D01*
X135215562Y-97567729D01*
X135215558Y-97567727D01*
X135209608Y-97563951D01*
X135049300Y-97506868D01*
X134880329Y-97486720D01*
X134873326Y-97487456D01*
X134873325Y-97487456D01*
X134718101Y-97503770D01*
X134718097Y-97503771D01*
X134711093Y-97504507D01*
X134704422Y-97506778D01*
X134556673Y-97557075D01*
X134556670Y-97557076D01*
X134550003Y-97559346D01*
X134544005Y-97563036D01*
X134544003Y-97563037D01*
X134411065Y-97644821D01*
X134411063Y-97644823D01*
X134405066Y-97648512D01*
X134283486Y-97767573D01*
X134279675Y-97773487D01*
X134279673Y-97773489D01*
X134231702Y-97847925D01*
X134191304Y-97910610D01*
X134167356Y-97976406D01*
X134142828Y-98043798D01*
X134133103Y-98070516D01*
X134111775Y-98239343D01*
X130232022Y-98239343D01*
X130232022Y-97315576D01*
X130235873Y-97288523D01*
X130235714Y-97288498D01*
X130242631Y-97244830D01*
X130245037Y-97233210D01*
X130254060Y-97198065D01*
X130254060Y-97198064D01*
X130256032Y-97190384D01*
X130256032Y-97170130D01*
X130257583Y-97150419D01*
X130259512Y-97138240D01*
X130260752Y-97130411D01*
X130256591Y-97086392D01*
X130256032Y-97074535D01*
X130256032Y-97055874D01*
X130276034Y-96987753D01*
X130329690Y-96941260D01*
X130350288Y-96934539D01*
X130350515Y-96934518D01*
X130357210Y-96932343D01*
X130357213Y-96932342D01*
X130505655Y-96884110D01*
X130505658Y-96884109D01*
X130512354Y-96881933D01*
X130658522Y-96794799D01*
X130663616Y-96789948D01*
X130663620Y-96789945D01*
X130768638Y-96689937D01*
X130781753Y-96677448D01*
X130875923Y-96535711D01*
X130936351Y-96376634D01*
X130955428Y-96240893D01*
X130984715Y-96176220D01*
X131015683Y-96150200D01*
X131080444Y-96111594D01*
X131086490Y-96107990D01*
X131091584Y-96103139D01*
X131091588Y-96103136D01*
X131158833Y-96039099D01*
X131209721Y-95990639D01*
X131303891Y-95848902D01*
X131352884Y-95719927D01*
X131361819Y-95696407D01*
X131361820Y-95696405D01*
X131364319Y-95689825D01*
X131365793Y-95679341D01*
X131378418Y-95589505D01*
X131383404Y-95570631D01*
X131383183Y-95570574D01*
X131388220Y-95550954D01*
X131394626Y-95532242D01*
X131399521Y-95520931D01*
X131402669Y-95513657D01*
X131403909Y-95505829D01*
X131403911Y-95505822D01*
X131409587Y-95469988D01*
X131411993Y-95458368D01*
X131421016Y-95423223D01*
X131421016Y-95423222D01*
X131422988Y-95415542D01*
X131422988Y-95395288D01*
X131424539Y-95375577D01*
X131426468Y-95363398D01*
X131427708Y-95355569D01*
X131423547Y-95311550D01*
X131422988Y-95299693D01*
X131422988Y-94597394D01*
X131423515Y-94586211D01*
X131425190Y-94578718D01*
X131423050Y-94510627D01*
X131422988Y-94506670D01*
X131422988Y-94478770D01*
X131422484Y-94474779D01*
X131421551Y-94462938D01*
X131420443Y-94427689D01*
X131438295Y-94358973D01*
X131459489Y-94332484D01*
X131534221Y-94261318D01*
X131628391Y-94119581D01*
X131688819Y-93960504D01*
X131712501Y-93791992D01*
X131712629Y-93782812D01*
X131712744Y-93774640D01*
X131712744Y-93774634D01*
X131712799Y-93770679D01*
X131693831Y-93601571D01*
X131637868Y-93440868D01*
X131634137Y-93434897D01*
X131634133Y-93434889D01*
X131602147Y-93383703D01*
X131583000Y-93316932D01*
X131583000Y-88746156D01*
X131583527Y-88734973D01*
X131585202Y-88727480D01*
X131584201Y-88695604D01*
X140812787Y-88695604D01*
X140822567Y-88906899D01*
X140823971Y-88912724D01*
X140823971Y-88912725D01*
X140868840Y-89098902D01*
X140872125Y-89112534D01*
X140874607Y-89117992D01*
X140874608Y-89117996D01*
X140918053Y-89213546D01*
X140959674Y-89305087D01*
X141082054Y-89477611D01*
X141234850Y-89623881D01*
X141412548Y-89738620D01*
X141418114Y-89740863D01*
X141603168Y-89815442D01*
X141603171Y-89815443D01*
X141608737Y-89817686D01*
X141816337Y-89858228D01*
X141821899Y-89858500D01*
X141977846Y-89858500D01*
X142135566Y-89843452D01*
X142338534Y-89783908D01*
X142422111Y-89740863D01*
X142521249Y-89689804D01*
X142521252Y-89689802D01*
X142526580Y-89687058D01*
X142692920Y-89556396D01*
X142696852Y-89551865D01*
X142696855Y-89551862D01*
X142827621Y-89401167D01*
X142831552Y-89396637D01*
X142834552Y-89391451D01*
X142834555Y-89391447D01*
X142934467Y-89218742D01*
X142937473Y-89213546D01*
X143006861Y-89013729D01*
X143025412Y-88885787D01*
X143036352Y-88810336D01*
X143036352Y-88810333D01*
X143037213Y-88804396D01*
X143027433Y-88593101D01*
X142977875Y-88387466D01*
X142973845Y-88378601D01*
X142912090Y-88242781D01*
X142890326Y-88194913D01*
X142767946Y-88022389D01*
X142615150Y-87876119D01*
X142437452Y-87761380D01*
X142377354Y-87737160D01*
X142246832Y-87684558D01*
X142246829Y-87684557D01*
X142241263Y-87682314D01*
X142033663Y-87641772D01*
X142028101Y-87641500D01*
X141872154Y-87641500D01*
X141714434Y-87656548D01*
X141511466Y-87716092D01*
X141506139Y-87718836D01*
X141506138Y-87718836D01*
X141328751Y-87810196D01*
X141328748Y-87810198D01*
X141323420Y-87812942D01*
X141157080Y-87943604D01*
X141153148Y-87948135D01*
X141153145Y-87948138D01*
X141034554Y-88084802D01*
X141018448Y-88103363D01*
X141015448Y-88108549D01*
X141015445Y-88108553D01*
X140936379Y-88245224D01*
X140912527Y-88286454D01*
X140843139Y-88486271D01*
X140842278Y-88492206D01*
X140842278Y-88492208D01*
X140814860Y-88681310D01*
X140812787Y-88695604D01*
X131584201Y-88695604D01*
X131584014Y-88689664D01*
X131583062Y-88659390D01*
X131583000Y-88655432D01*
X131583000Y-88627532D01*
X131582496Y-88623541D01*
X131581563Y-88611699D01*
X131581447Y-88607990D01*
X131580174Y-88567499D01*
X131574521Y-88548040D01*
X131570512Y-88528681D01*
X131570346Y-88527371D01*
X131567974Y-88508591D01*
X131565058Y-88501225D01*
X131565056Y-88501219D01*
X131551700Y-88467486D01*
X131547855Y-88456256D01*
X131537730Y-88421405D01*
X131537730Y-88421404D01*
X131535519Y-88413795D01*
X131525205Y-88396354D01*
X131516508Y-88378601D01*
X131511972Y-88367146D01*
X131509052Y-88359771D01*
X131483063Y-88324000D01*
X131476547Y-88314080D01*
X131467724Y-88299161D01*
X131454042Y-88276026D01*
X131439721Y-88261705D01*
X131426880Y-88246671D01*
X131419631Y-88236694D01*
X131414972Y-88230281D01*
X131380895Y-88202090D01*
X131372116Y-88194100D01*
X127187233Y-84009216D01*
X127179693Y-84000930D01*
X127175581Y-83994451D01*
X127125929Y-83947825D01*
X127123088Y-83945071D01*
X127103351Y-83925334D01*
X127100154Y-83922854D01*
X127091132Y-83915149D01*
X127064681Y-83890310D01*
X127058902Y-83884883D01*
X127051956Y-83881064D01*
X127051953Y-83881062D01*
X127041147Y-83875121D01*
X127024628Y-83864270D01*
X127024164Y-83863910D01*
X127008622Y-83851855D01*
X127001353Y-83848710D01*
X127001349Y-83848707D01*
X126968044Y-83834295D01*
X126957394Y-83829078D01*
X126918641Y-83807774D01*
X126899018Y-83802736D01*
X126880315Y-83796332D01*
X126869001Y-83791436D01*
X126869000Y-83791436D01*
X126861726Y-83788288D01*
X126853903Y-83787049D01*
X126853893Y-83787046D01*
X126818057Y-83781370D01*
X126806437Y-83778964D01*
X126771292Y-83769941D01*
X126771291Y-83769941D01*
X126763611Y-83767969D01*
X126743357Y-83767969D01*
X126723646Y-83766418D01*
X126711467Y-83764489D01*
X126703638Y-83763249D01*
X126695746Y-83763995D01*
X126659620Y-83767410D01*
X126647762Y-83767969D01*
X121091063Y-83767969D01*
X121022942Y-83747967D01*
X121001968Y-83731064D01*
X119075795Y-81804890D01*
X117760248Y-80489343D01*
X118861775Y-80489343D01*
X118878381Y-80658699D01*
X118932094Y-80820167D01*
X119020246Y-80965723D01*
X119138455Y-81088132D01*
X119280846Y-81181310D01*
X119287450Y-81183766D01*
X119287452Y-81183767D01*
X119360593Y-81210968D01*
X119440341Y-81240626D01*
X119609015Y-81263132D01*
X119616026Y-81262494D01*
X119616030Y-81262494D01*
X119677963Y-81256857D01*
X119731726Y-81251964D01*
X119801378Y-81265709D01*
X119852543Y-81314930D01*
X119868544Y-81365149D01*
X119871456Y-81394850D01*
X119925169Y-81556318D01*
X119928816Y-81562340D01*
X119928817Y-81562342D01*
X120000754Y-81681123D01*
X120013321Y-81701874D01*
X120131530Y-81824283D01*
X120137426Y-81828141D01*
X120225008Y-81885453D01*
X120273921Y-81917461D01*
X120280525Y-81919917D01*
X120280527Y-81919918D01*
X120316919Y-81933452D01*
X120433416Y-81976777D01*
X120602090Y-81999283D01*
X120609101Y-81998645D01*
X120609105Y-81998645D01*
X120764537Y-81984499D01*
X120771558Y-81983860D01*
X120778260Y-81981682D01*
X120778262Y-81981682D01*
X120926698Y-81933452D01*
X120926701Y-81933451D01*
X120933397Y-81931275D01*
X120983729Y-81901271D01*
X121048247Y-81883500D01*
X132796233Y-81883500D01*
X132807416Y-81884027D01*
X132814909Y-81885702D01*
X132822835Y-81885453D01*
X132822836Y-81885453D01*
X132882986Y-81883562D01*
X132886945Y-81883500D01*
X132914856Y-81883500D01*
X132918791Y-81883003D01*
X132918856Y-81882995D01*
X132930693Y-81882062D01*
X132962951Y-81881048D01*
X132966970Y-81880922D01*
X132974889Y-81880673D01*
X132994343Y-81875021D01*
X133013700Y-81871013D01*
X133025930Y-81869468D01*
X133025931Y-81869468D01*
X133033797Y-81868474D01*
X133041168Y-81865555D01*
X133041170Y-81865555D01*
X133074912Y-81852196D01*
X133086142Y-81848351D01*
X133120983Y-81838229D01*
X133120984Y-81838229D01*
X133128593Y-81836018D01*
X133135412Y-81831985D01*
X133135417Y-81831983D01*
X133146028Y-81825707D01*
X133163776Y-81817012D01*
X133182617Y-81809552D01*
X133218387Y-81783564D01*
X133228307Y-81777048D01*
X133259535Y-81758580D01*
X133259538Y-81758578D01*
X133266362Y-81754542D01*
X133280683Y-81740221D01*
X133295717Y-81727380D01*
X133305694Y-81720131D01*
X133312107Y-81715472D01*
X133340298Y-81681395D01*
X133348288Y-81672616D01*
X134249259Y-80771645D01*
X134299417Y-80740907D01*
X134433625Y-80697300D01*
X134440322Y-80695124D01*
X134586490Y-80607990D01*
X134591584Y-80603139D01*
X134591588Y-80603136D01*
X134670215Y-80528260D01*
X134709721Y-80490639D01*
X134721728Y-80472568D01*
X134785112Y-80377166D01*
X134803891Y-80348902D01*
X134864319Y-80189825D01*
X134888001Y-80021313D01*
X134888299Y-80000000D01*
X134869331Y-79830892D01*
X134863432Y-79813951D01*
X134836537Y-79736720D01*
X134813368Y-79670189D01*
X134807531Y-79660847D01*
X134762092Y-79588132D01*
X134723192Y-79525879D01*
X134711577Y-79514182D01*
X134608248Y-79410129D01*
X134603286Y-79405132D01*
X134587039Y-79394821D01*
X134544508Y-79367830D01*
X134459608Y-79313951D01*
X134299300Y-79256868D01*
X134130329Y-79236720D01*
X134123326Y-79237456D01*
X134123325Y-79237456D01*
X133968101Y-79253770D01*
X133968097Y-79253771D01*
X133961093Y-79254507D01*
X133954422Y-79256778D01*
X133806673Y-79307075D01*
X133806670Y-79307076D01*
X133800003Y-79309346D01*
X133794005Y-79313036D01*
X133794003Y-79313037D01*
X133661065Y-79394821D01*
X133661063Y-79394823D01*
X133655066Y-79398512D01*
X133650033Y-79403441D01*
X133540032Y-79511163D01*
X133533486Y-79517573D01*
X133529675Y-79523487D01*
X133529673Y-79523489D01*
X133528133Y-79525879D01*
X133441304Y-79660610D01*
X133383103Y-79820516D01*
X133383043Y-79820989D01*
X133350995Y-79878101D01*
X132649499Y-80579596D01*
X132587187Y-80613621D01*
X132560404Y-80616500D01*
X126958594Y-80616500D01*
X126890473Y-80596498D01*
X126843980Y-80542842D01*
X126833876Y-80472568D01*
X126863370Y-80407988D01*
X126869499Y-80401405D01*
X127589595Y-79681310D01*
X128499261Y-78771644D01*
X128549420Y-78740906D01*
X128683623Y-78697301D01*
X128683626Y-78697300D01*
X128690322Y-78695124D01*
X128836490Y-78607990D01*
X128841584Y-78603139D01*
X128841588Y-78603136D01*
X128936609Y-78512648D01*
X128959721Y-78490639D01*
X129053891Y-78348902D01*
X129114319Y-78189825D01*
X129138001Y-78021313D01*
X129138299Y-78000000D01*
X129119331Y-77830892D01*
X129063368Y-77670189D01*
X129057383Y-77660610D01*
X128984648Y-77544213D01*
X128973192Y-77525879D01*
X128961292Y-77513895D01*
X128858248Y-77410129D01*
X128853286Y-77405132D01*
X128841355Y-77397560D01*
X128781213Y-77359393D01*
X128709608Y-77313951D01*
X128549300Y-77256868D01*
X128380329Y-77236720D01*
X128373326Y-77237456D01*
X128373325Y-77237456D01*
X128218101Y-77253770D01*
X128218097Y-77253771D01*
X128211093Y-77254507D01*
X128204422Y-77256778D01*
X128056673Y-77307075D01*
X128056670Y-77307076D01*
X128050003Y-77309346D01*
X128044005Y-77313036D01*
X128044003Y-77313037D01*
X127911065Y-77394821D01*
X127911063Y-77394823D01*
X127905066Y-77398512D01*
X127783486Y-77517573D01*
X127779675Y-77523487D01*
X127779673Y-77523489D01*
X127722548Y-77612129D01*
X127691304Y-77660610D01*
X127633103Y-77820516D01*
X127633043Y-77820993D01*
X127600994Y-77878102D01*
X125649500Y-79829595D01*
X125587188Y-79863621D01*
X125560405Y-79866500D01*
X120079018Y-79866500D01*
X120011506Y-79846887D01*
X119959608Y-79813951D01*
X119799300Y-79756868D01*
X119630329Y-79736720D01*
X119623326Y-79737456D01*
X119623325Y-79737456D01*
X119468101Y-79753770D01*
X119468097Y-79753771D01*
X119461093Y-79754507D01*
X119454422Y-79756778D01*
X119306673Y-79807075D01*
X119306670Y-79807076D01*
X119300003Y-79809346D01*
X119294005Y-79813036D01*
X119294003Y-79813037D01*
X119161065Y-79894821D01*
X119161063Y-79894823D01*
X119155066Y-79898512D01*
X119104355Y-79948172D01*
X119052818Y-79998642D01*
X119033486Y-80017573D01*
X119029675Y-80023487D01*
X119029673Y-80023489D01*
X118945121Y-80154687D01*
X118941304Y-80160610D01*
X118883103Y-80320516D01*
X118861775Y-80489343D01*
X117760248Y-80489343D01*
X117149105Y-79878200D01*
X117119209Y-79830542D01*
X117111037Y-79807075D01*
X117063368Y-79670189D01*
X117057531Y-79660847D01*
X117012092Y-79588132D01*
X116973192Y-79525879D01*
X116961577Y-79514182D01*
X116858248Y-79410129D01*
X116853286Y-79405132D01*
X116837039Y-79394821D01*
X116794508Y-79367830D01*
X116709608Y-79313951D01*
X116549300Y-79256868D01*
X116380329Y-79236720D01*
X116373326Y-79237456D01*
X116373325Y-79237456D01*
X116218101Y-79253770D01*
X116218097Y-79253771D01*
X116211093Y-79254507D01*
X116204422Y-79256778D01*
X116056673Y-79307075D01*
X116056670Y-79307076D01*
X116050003Y-79309346D01*
X116044005Y-79313036D01*
X116044003Y-79313037D01*
X115911065Y-79394821D01*
X115911063Y-79394823D01*
X115905066Y-79398512D01*
X115900033Y-79403441D01*
X115790032Y-79511163D01*
X115783486Y-79517573D01*
X115779675Y-79523487D01*
X115779673Y-79523489D01*
X115778133Y-79525879D01*
X115691304Y-79660610D01*
X115685032Y-79677842D01*
X115637169Y-79809346D01*
X115633103Y-79820516D01*
X115611775Y-79989343D01*
X115628381Y-80158699D01*
X115630605Y-80165384D01*
X115630605Y-80165385D01*
X115636413Y-80182845D01*
X115682094Y-80320167D01*
X115685741Y-80326189D01*
X115685742Y-80326191D01*
X115731294Y-80401405D01*
X115770246Y-80465723D01*
X115888455Y-80588132D01*
X116030846Y-80681310D01*
X116037450Y-80683766D01*
X116037452Y-80683767D01*
X116103578Y-80708359D01*
X116190341Y-80740626D01*
X116195257Y-80741282D01*
X116253111Y-80774015D01*
X119481479Y-84002383D01*
X119515505Y-84064695D01*
X119510440Y-84135510D01*
X119467893Y-84192346D01*
X119401373Y-84217157D01*
X119392384Y-84217478D01*
X118040573Y-84217478D01*
X117972452Y-84197476D01*
X117951478Y-84180573D01*
X113496055Y-79725150D01*
X113466159Y-79677492D01*
X113460280Y-79660610D01*
X113410318Y-79517139D01*
X113404333Y-79507560D01*
X113374426Y-79459700D01*
X113320142Y-79372829D01*
X113200236Y-79252082D01*
X113183989Y-79241771D01*
X113145356Y-79217254D01*
X113056558Y-79160901D01*
X112896250Y-79103818D01*
X112727279Y-79083670D01*
X112720276Y-79084406D01*
X112720275Y-79084406D01*
X112565051Y-79100720D01*
X112565047Y-79100721D01*
X112558043Y-79101457D01*
X112551372Y-79103728D01*
X112403623Y-79154025D01*
X112403620Y-79154026D01*
X112396953Y-79156296D01*
X112390955Y-79159986D01*
X112390953Y-79159987D01*
X112258015Y-79241771D01*
X112258013Y-79241773D01*
X112252016Y-79245462D01*
X112130436Y-79364523D01*
X112126625Y-79370437D01*
X112126623Y-79370439D01*
X112069098Y-79459700D01*
X112038254Y-79507560D01*
X111980053Y-79667466D01*
X111958725Y-79836293D01*
X111975331Y-80005649D01*
X111976937Y-80010477D01*
X111971595Y-80080498D01*
X111928779Y-80137131D01*
X111862142Y-80161626D01*
X111792841Y-80146206D01*
X111764655Y-80125001D01*
X110517854Y-78878200D01*
X110487958Y-78830542D01*
X110482162Y-78813897D01*
X110432117Y-78670189D01*
X110426132Y-78660610D01*
X110390217Y-78603136D01*
X110341941Y-78525879D01*
X110306947Y-78490639D01*
X110226997Y-78410129D01*
X110222035Y-78405132D01*
X110205788Y-78394821D01*
X110133431Y-78348902D01*
X110078357Y-78313951D01*
X109918049Y-78256868D01*
X109749078Y-78236720D01*
X109742075Y-78237456D01*
X109742074Y-78237456D01*
X109586850Y-78253770D01*
X109586846Y-78253771D01*
X109579842Y-78254507D01*
X109573171Y-78256778D01*
X109425422Y-78307075D01*
X109425419Y-78307076D01*
X109418752Y-78309346D01*
X109412754Y-78313036D01*
X109412752Y-78313037D01*
X109279814Y-78394821D01*
X109279812Y-78394823D01*
X109273815Y-78398512D01*
X109152235Y-78517573D01*
X109148424Y-78523487D01*
X109148422Y-78523489D01*
X109091642Y-78611594D01*
X109060053Y-78660610D01*
X109001852Y-78820516D01*
X108980524Y-78989343D01*
X108997130Y-79158699D01*
X109050843Y-79320167D01*
X109054490Y-79326189D01*
X109054491Y-79326191D01*
X109102300Y-79405132D01*
X109138995Y-79465723D01*
X109257204Y-79588132D01*
X109263100Y-79591990D01*
X109378082Y-79667232D01*
X109399595Y-79681310D01*
X109462172Y-79704582D01*
X109519045Y-79747073D01*
X109543919Y-79813570D01*
X109528894Y-79882958D01*
X109484272Y-79929995D01*
X109454726Y-79948172D01*
X109397757Y-80003961D01*
X109377816Y-80023489D01*
X109333146Y-80067233D01*
X109329335Y-80073147D01*
X109329333Y-80073149D01*
X109268774Y-80167117D01*
X109240964Y-80210270D01*
X109182763Y-80370176D01*
X109161435Y-80539003D01*
X109178041Y-80708359D01*
X109231754Y-80869827D01*
X109235401Y-80875849D01*
X109235402Y-80875851D01*
X109292898Y-80970787D01*
X109319906Y-81015383D01*
X109438115Y-81137792D01*
X109444011Y-81141650D01*
X109572138Y-81225494D01*
X109580506Y-81230970D01*
X109587110Y-81233426D01*
X109587112Y-81233427D01*
X109636957Y-81251964D01*
X109740001Y-81290286D01*
X109744917Y-81290942D01*
X109802771Y-81323675D01*
X114621343Y-86142247D01*
X114628887Y-86150537D01*
X114633000Y-86157018D01*
X114638777Y-86162443D01*
X114682667Y-86203658D01*
X114685509Y-86206413D01*
X114705230Y-86226134D01*
X114708425Y-86228612D01*
X114717447Y-86236318D01*
X114749679Y-86266586D01*
X114756628Y-86270406D01*
X114767432Y-86276346D01*
X114783956Y-86287199D01*
X114799959Y-86299613D01*
X114840543Y-86317176D01*
X114851173Y-86322383D01*
X114889940Y-86343695D01*
X114897617Y-86345666D01*
X114897622Y-86345668D01*
X114909558Y-86348732D01*
X114928266Y-86355137D01*
X114946855Y-86363181D01*
X114954680Y-86364420D01*
X114954682Y-86364421D01*
X114990519Y-86370097D01*
X115002140Y-86372504D01*
X115037289Y-86381528D01*
X115044970Y-86383500D01*
X115065231Y-86383500D01*
X115084940Y-86385051D01*
X115104943Y-86388219D01*
X115112835Y-86387473D01*
X115118062Y-86386979D01*
X115148954Y-86384059D01*
X115160811Y-86383500D01*
X125810406Y-86383500D01*
X125878527Y-86403502D01*
X125899501Y-86420405D01*
X127356489Y-87877393D01*
X127390515Y-87939705D01*
X127385450Y-88010520D01*
X127342903Y-88067356D01*
X127276383Y-88092167D01*
X127267394Y-88092488D01*
X126279607Y-88092488D01*
X126268424Y-88091961D01*
X126260931Y-88090286D01*
X126253005Y-88090535D01*
X126253004Y-88090535D01*
X126192841Y-88092426D01*
X126188883Y-88092488D01*
X126160984Y-88092488D01*
X126156994Y-88092992D01*
X126145160Y-88093924D01*
X126100951Y-88095314D01*
X126093337Y-88097526D01*
X126093332Y-88097527D01*
X126081499Y-88100965D01*
X126062136Y-88104976D01*
X126042043Y-88107514D01*
X126034676Y-88110431D01*
X126034671Y-88110432D01*
X126000932Y-88123790D01*
X125989705Y-88127634D01*
X125947247Y-88139970D01*
X125940421Y-88144007D01*
X125929812Y-88150281D01*
X125912064Y-88158976D01*
X125893223Y-88166436D01*
X125886807Y-88171098D01*
X125886806Y-88171098D01*
X125857453Y-88192424D01*
X125847533Y-88198940D01*
X125817131Y-88216920D01*
X125748315Y-88234380D01*
X125680983Y-88211864D01*
X125636514Y-88156520D01*
X125628217Y-88090932D01*
X125628308Y-88090286D01*
X125638001Y-88021313D01*
X125638299Y-88000000D01*
X125619331Y-87830892D01*
X125563368Y-87670189D01*
X125555900Y-87658237D01*
X125499890Y-87568605D01*
X125473192Y-87525879D01*
X125353286Y-87405132D01*
X125345181Y-87399988D01*
X125296865Y-87369326D01*
X125209608Y-87313951D01*
X125049300Y-87256868D01*
X124880329Y-87236720D01*
X124873326Y-87237456D01*
X124873325Y-87237456D01*
X124718101Y-87253770D01*
X124718097Y-87253771D01*
X124711093Y-87254507D01*
X124550003Y-87309346D01*
X124487468Y-87347818D01*
X124421448Y-87366500D01*
X119535235Y-87366500D01*
X119524052Y-87365973D01*
X119516559Y-87364298D01*
X119508633Y-87364547D01*
X119508632Y-87364547D01*
X119448469Y-87366438D01*
X119444511Y-87366500D01*
X119416611Y-87366500D01*
X119412621Y-87367004D01*
X119400787Y-87367936D01*
X119356578Y-87369326D01*
X119348964Y-87371538D01*
X119348959Y-87371539D01*
X119337126Y-87374977D01*
X119317763Y-87378988D01*
X119297670Y-87381526D01*
X119290303Y-87384443D01*
X119290298Y-87384444D01*
X119256559Y-87397802D01*
X119245332Y-87401646D01*
X119202874Y-87413982D01*
X119196048Y-87418019D01*
X119185439Y-87424293D01*
X119167691Y-87432988D01*
X119148850Y-87440448D01*
X119142434Y-87445110D01*
X119142433Y-87445110D01*
X119113080Y-87466436D01*
X119103160Y-87472952D01*
X119071932Y-87491420D01*
X119071929Y-87491422D01*
X119065105Y-87495458D01*
X119050784Y-87509779D01*
X119035751Y-87522619D01*
X119019360Y-87534528D01*
X119014309Y-87540634D01*
X118991169Y-87568605D01*
X118983179Y-87577384D01*
X115897788Y-90662774D01*
X115849299Y-90692956D01*
X115788092Y-90713793D01*
X115702174Y-90743041D01*
X115702171Y-90743042D01*
X115695504Y-90745312D01*
X115689506Y-90749002D01*
X115689504Y-90749003D01*
X115556566Y-90830787D01*
X115556564Y-90830789D01*
X115550567Y-90834478D01*
X115428987Y-90953539D01*
X115336805Y-91096576D01*
X115278604Y-91256482D01*
X115257276Y-91425309D01*
X115273882Y-91594665D01*
X115327595Y-91756133D01*
X115385539Y-91851810D01*
X115403717Y-91920436D01*
X115381907Y-91987999D01*
X115366857Y-92006173D01*
X114573595Y-92799435D01*
X114511283Y-92833461D01*
X114440468Y-92828396D01*
X114383632Y-92785849D01*
X114358821Y-92719329D01*
X114358500Y-92710340D01*
X114358500Y-88303912D01*
X114358792Y-88295342D01*
X114362209Y-88245224D01*
X114362209Y-88245220D01*
X114362725Y-88237648D01*
X114351738Y-88174697D01*
X114350776Y-88168175D01*
X114349366Y-88156520D01*
X114343102Y-88104758D01*
X114340419Y-88097657D01*
X114339778Y-88095048D01*
X114335315Y-88078738D01*
X114334550Y-88076202D01*
X114333243Y-88068716D01*
X114307556Y-88010200D01*
X114305065Y-88004096D01*
X114285173Y-87951452D01*
X114285172Y-87951451D01*
X114282487Y-87944344D01*
X114278183Y-87938081D01*
X114276946Y-87935715D01*
X114268701Y-87920903D01*
X114267368Y-87918649D01*
X114264315Y-87911695D01*
X114225413Y-87860998D01*
X114221541Y-87855668D01*
X114189661Y-87809280D01*
X114189656Y-87809275D01*
X114185357Y-87803019D01*
X114138829Y-87761564D01*
X114133554Y-87756584D01*
X108120405Y-81743435D01*
X108086379Y-81681123D01*
X108083500Y-81654340D01*
X108083500Y-77845660D01*
X108103502Y-77777539D01*
X108120405Y-77756565D01*
X109131566Y-76745405D01*
X109193878Y-76711379D01*
X109220661Y-76708500D01*
X113081287Y-76708500D01*
X113125203Y-76716401D01*
X113190341Y-76740626D01*
X113359015Y-76763132D01*
X113366026Y-76762494D01*
X113366030Y-76762494D01*
X113521462Y-76748348D01*
X113528483Y-76747709D01*
X113535185Y-76745531D01*
X113535187Y-76745531D01*
X113683623Y-76697301D01*
X113683626Y-76697300D01*
X113690322Y-76695124D01*
X113836490Y-76607990D01*
X113841584Y-76603139D01*
X113841588Y-76603136D01*
X113918838Y-76529571D01*
X113959721Y-76490639D01*
X114053891Y-76348902D01*
X114114319Y-76189825D01*
X114138001Y-76021313D01*
X114138152Y-76010533D01*
X114138244Y-76003961D01*
X114138244Y-76003955D01*
X114138299Y-76000000D01*
X114119331Y-75830892D01*
X114111064Y-75807151D01*
X114083456Y-75727874D01*
X129762190Y-75727874D01*
X129778735Y-76014820D01*
X129779560Y-76019025D01*
X129779561Y-76019033D01*
X129811700Y-76182845D01*
X129834070Y-76296865D01*
X129835457Y-76300916D01*
X129920719Y-76549946D01*
X129927171Y-76568792D01*
X129967987Y-76649946D01*
X130024446Y-76762200D01*
X130056316Y-76825567D01*
X130058742Y-76829096D01*
X130058745Y-76829102D01*
X130097587Y-76885617D01*
X130219114Y-77062439D01*
X130268653Y-77116882D01*
X130396031Y-77256868D01*
X130412553Y-77275026D01*
X130415841Y-77277775D01*
X130629761Y-77456641D01*
X130629766Y-77456645D01*
X130633053Y-77459393D01*
X130735231Y-77523489D01*
X130872895Y-77609846D01*
X130872899Y-77609848D01*
X130876535Y-77612129D01*
X131138493Y-77730407D01*
X131414079Y-77812040D01*
X131418313Y-77812688D01*
X131418318Y-77812689D01*
X131583015Y-77837891D01*
X131698195Y-77855516D01*
X131844580Y-77857815D01*
X131981291Y-77859963D01*
X131981297Y-77859963D01*
X131985582Y-77860030D01*
X132270923Y-77825500D01*
X132548937Y-77752565D01*
X132552897Y-77750925D01*
X132552902Y-77750923D01*
X132695911Y-77691686D01*
X132814481Y-77642573D01*
X132838325Y-77628640D01*
X133058943Y-77499721D01*
X133058944Y-77499721D01*
X133062641Y-77497560D01*
X133174146Y-77410129D01*
X133285451Y-77322854D01*
X133288823Y-77320210D01*
X133294889Y-77313951D01*
X133441423Y-77162739D01*
X133488844Y-77113804D01*
X133491377Y-77110356D01*
X133491381Y-77110351D01*
X133656464Y-76885617D01*
X133659002Y-76882162D01*
X133796149Y-76629571D01*
X133856902Y-76468792D01*
X133896227Y-76364721D01*
X133896228Y-76364718D01*
X133897745Y-76360703D01*
X133961912Y-76080534D01*
X133968661Y-76004922D01*
X133987243Y-75796715D01*
X133987463Y-75794250D01*
X133987926Y-75750000D01*
X133987757Y-75747519D01*
X133968669Y-75467520D01*
X133968668Y-75467514D01*
X133968377Y-75463243D01*
X133965842Y-75450999D01*
X133910962Y-75185998D01*
X133910091Y-75181792D01*
X133902556Y-75160512D01*
X133815579Y-74914897D01*
X133814148Y-74910856D01*
X133682321Y-74655447D01*
X133609577Y-74551942D01*
X133519515Y-74423798D01*
X133517052Y-74420293D01*
X133321397Y-74209743D01*
X133098978Y-74027695D01*
X132853910Y-73877517D01*
X132849993Y-73875798D01*
X132849990Y-73875796D01*
X132631198Y-73779754D01*
X132590728Y-73761989D01*
X132586600Y-73760813D01*
X132586597Y-73760812D01*
X132500693Y-73736342D01*
X132314302Y-73683247D01*
X132310060Y-73682643D01*
X132310054Y-73682642D01*
X132033998Y-73643353D01*
X132029747Y-73642748D01*
X131878246Y-73641955D01*
X131746614Y-73641265D01*
X131746608Y-73641265D01*
X131742328Y-73641243D01*
X131738083Y-73641802D01*
X131738081Y-73641802D01*
X131672784Y-73650399D01*
X131457365Y-73678760D01*
X131180129Y-73754603D01*
X130915752Y-73867369D01*
X130912071Y-73869572D01*
X130672806Y-74012768D01*
X130672802Y-74012771D01*
X130669124Y-74014972D01*
X130665781Y-74017650D01*
X130665777Y-74017653D01*
X130569631Y-74094681D01*
X130444811Y-74194681D01*
X130246963Y-74403170D01*
X130079240Y-74636581D01*
X129944746Y-74890596D01*
X129845971Y-75160512D01*
X129784741Y-75441337D01*
X129762698Y-75721415D01*
X129762190Y-75727874D01*
X114083456Y-75727874D01*
X114081207Y-75721415D01*
X114063368Y-75670189D01*
X114050753Y-75650000D01*
X114032890Y-75621415D01*
X113973192Y-75525879D01*
X113958586Y-75511170D01*
X113915239Y-75467520D01*
X113853286Y-75405132D01*
X113822643Y-75385685D01*
X113780061Y-75358662D01*
X113709608Y-75313951D01*
X113549300Y-75256868D01*
X113380329Y-75236720D01*
X113373326Y-75237456D01*
X113373325Y-75237456D01*
X113218101Y-75253770D01*
X113218097Y-75253771D01*
X113211093Y-75254507D01*
X113204422Y-75256778D01*
X113122172Y-75284778D01*
X113081567Y-75291500D01*
X108903912Y-75291500D01*
X108895342Y-75291208D01*
X108845224Y-75287791D01*
X108845220Y-75287791D01*
X108837648Y-75287275D01*
X108830171Y-75288580D01*
X108830170Y-75288580D01*
X108815113Y-75291208D01*
X108774703Y-75298261D01*
X108768186Y-75299222D01*
X108704758Y-75306898D01*
X108697650Y-75309584D01*
X108695056Y-75310221D01*
X108678750Y-75314682D01*
X108676199Y-75315452D01*
X108668716Y-75316758D01*
X108661764Y-75319810D01*
X108661763Y-75319810D01*
X108610212Y-75342439D01*
X108604105Y-75344931D01*
X108566751Y-75359046D01*
X108544344Y-75367513D01*
X108538083Y-75371816D01*
X108535717Y-75373053D01*
X108520937Y-75381280D01*
X108518652Y-75382631D01*
X108511695Y-75385685D01*
X108505675Y-75390305D01*
X108505669Y-75390308D01*
X108474542Y-75414194D01*
X108460998Y-75424587D01*
X108455668Y-75428459D01*
X108409280Y-75460339D01*
X108409275Y-75460344D01*
X108403019Y-75464643D01*
X108397968Y-75470313D01*
X108397966Y-75470314D01*
X108361565Y-75511170D01*
X108356584Y-75516446D01*
X106894480Y-76978550D01*
X106888215Y-76984404D01*
X106844615Y-77022439D01*
X106840248Y-77028653D01*
X106807872Y-77074719D01*
X106803939Y-77080014D01*
X106764524Y-77130282D01*
X106761401Y-77137198D01*
X106760017Y-77139484D01*
X106751643Y-77154165D01*
X106750378Y-77156525D01*
X106746010Y-77162739D01*
X106743250Y-77169818D01*
X106743249Y-77169820D01*
X106740148Y-77177775D01*
X106724804Y-77217131D01*
X106722798Y-77222275D01*
X106720247Y-77228344D01*
X106693955Y-77286573D01*
X106692571Y-77294040D01*
X106691770Y-77296595D01*
X106687141Y-77312848D01*
X106686478Y-77315428D01*
X106683718Y-77322509D01*
X106682727Y-77330040D01*
X106682726Y-77330042D01*
X106675379Y-77385852D01*
X106674348Y-77392359D01*
X106662704Y-77455186D01*
X106663141Y-77462766D01*
X106663141Y-77462767D01*
X106666291Y-77517392D01*
X106666500Y-77524646D01*
X106666500Y-81971088D01*
X106666208Y-81979658D01*
X106664914Y-81998645D01*
X106662275Y-82037352D01*
X106663580Y-82044829D01*
X106663580Y-82044830D01*
X106673261Y-82100299D01*
X106674223Y-82106821D01*
X106681898Y-82170242D01*
X106684581Y-82177343D01*
X106685222Y-82179952D01*
X106689685Y-82196262D01*
X106690450Y-82198798D01*
X106691757Y-82206284D01*
X106694811Y-82213241D01*
X106717442Y-82264795D01*
X106719933Y-82270899D01*
X106742513Y-82330656D01*
X106746817Y-82336919D01*
X106748054Y-82339285D01*
X106756299Y-82354097D01*
X106757632Y-82356351D01*
X106760685Y-82363305D01*
X106765307Y-82369328D01*
X106799579Y-82413991D01*
X106803459Y-82419332D01*
X106835339Y-82465720D01*
X106835344Y-82465725D01*
X106839643Y-82471981D01*
X106845313Y-82477032D01*
X106845314Y-82477034D01*
X106886170Y-82513435D01*
X106891446Y-82518416D01*
X112904595Y-88531566D01*
X112938621Y-88593878D01*
X112941500Y-88620661D01*
X112941500Y-94648127D01*
X112939390Y-94671088D01*
X112937704Y-94680186D01*
X112938141Y-94687766D01*
X112938141Y-94687767D01*
X112941291Y-94742392D01*
X112941500Y-94749646D01*
X112941500Y-95366839D01*
X112921498Y-95434960D01*
X112867842Y-95481453D01*
X112828671Y-95492149D01*
X112780464Y-95497216D01*
X112711093Y-95504507D01*
X112550003Y-95559346D01*
X112487468Y-95597818D01*
X112421448Y-95616500D01*
X106203767Y-95616500D01*
X106192584Y-95615973D01*
X106185091Y-95614298D01*
X106177165Y-95614547D01*
X106177164Y-95614547D01*
X106117001Y-95616438D01*
X106113043Y-95616500D01*
X106085144Y-95616500D01*
X106081154Y-95617004D01*
X106069320Y-95617936D01*
X106025111Y-95619326D01*
X106017497Y-95621538D01*
X106017492Y-95621539D01*
X106005659Y-95624977D01*
X105986296Y-95628988D01*
X105966203Y-95631526D01*
X105958836Y-95634443D01*
X105958831Y-95634444D01*
X105925092Y-95647802D01*
X105913865Y-95651646D01*
X105871407Y-95663982D01*
X105864581Y-95668019D01*
X105853972Y-95674293D01*
X105836224Y-95682988D01*
X105817383Y-95690448D01*
X105810967Y-95695110D01*
X105810966Y-95695110D01*
X105781613Y-95716436D01*
X105771693Y-95722952D01*
X105740465Y-95741420D01*
X105740462Y-95741422D01*
X105733638Y-95745458D01*
X105719317Y-95759779D01*
X105704284Y-95772619D01*
X105687893Y-95784528D01*
X105659702Y-95818605D01*
X105651712Y-95827384D01*
X103148865Y-98330230D01*
X103075386Y-98424959D01*
X103011819Y-98571855D01*
X103003154Y-98626565D01*
X102994566Y-98680783D01*
X102993867Y-98684161D01*
X102993472Y-98687290D01*
X102991500Y-98694970D01*
X102991500Y-98698187D01*
X102990702Y-98700016D01*
X102991500Y-98700142D01*
X102986780Y-98729943D01*
X97383000Y-98729943D01*
X97383000Y-75627874D01*
X98262190Y-75627874D01*
X98278735Y-75914820D01*
X98279560Y-75919025D01*
X98279561Y-75919033D01*
X98299628Y-76021313D01*
X98334070Y-76196865D01*
X98335457Y-76200916D01*
X98411206Y-76422161D01*
X98427171Y-76468792D01*
X98467987Y-76549946D01*
X98548320Y-76709668D01*
X98556316Y-76725567D01*
X98558742Y-76729096D01*
X98558745Y-76729102D01*
X98642476Y-76850931D01*
X98719114Y-76962439D01*
X98768653Y-77016882D01*
X98901373Y-77162739D01*
X98912553Y-77175026D01*
X98915841Y-77177775D01*
X99129761Y-77356641D01*
X99129766Y-77356645D01*
X99133053Y-77359393D01*
X99203272Y-77403441D01*
X99372895Y-77509846D01*
X99372899Y-77509848D01*
X99376535Y-77512129D01*
X99380445Y-77513894D01*
X99380446Y-77513895D01*
X99401695Y-77523489D01*
X99638493Y-77630407D01*
X99914079Y-77712040D01*
X99918313Y-77712688D01*
X99918318Y-77712689D01*
X100168180Y-77750923D01*
X100198195Y-77755516D01*
X100344580Y-77757815D01*
X100481291Y-77759963D01*
X100481297Y-77759963D01*
X100485582Y-77760030D01*
X100770923Y-77725500D01*
X101048937Y-77652565D01*
X101052897Y-77650925D01*
X101052902Y-77650923D01*
X101195911Y-77591686D01*
X101314481Y-77542573D01*
X101332825Y-77531854D01*
X101558943Y-77399721D01*
X101558944Y-77399721D01*
X101562641Y-77397560D01*
X101742072Y-77256868D01*
X101785451Y-77222854D01*
X101788823Y-77220210D01*
X101988844Y-77013804D01*
X101991377Y-77010356D01*
X101991381Y-77010351D01*
X102156464Y-76785617D01*
X102159002Y-76782162D01*
X102296149Y-76529571D01*
X102359958Y-76360703D01*
X102396227Y-76264721D01*
X102396228Y-76264718D01*
X102397745Y-76260703D01*
X102451677Y-76025223D01*
X102460954Y-75984718D01*
X102460955Y-75984714D01*
X102461912Y-75980534D01*
X102468661Y-75904922D01*
X102487243Y-75696715D01*
X102487463Y-75694250D01*
X102487926Y-75650000D01*
X102486710Y-75632154D01*
X102473701Y-75441337D01*
X102468377Y-75363243D01*
X102463841Y-75341337D01*
X102410962Y-75085998D01*
X102410091Y-75081792D01*
X102402556Y-75060512D01*
X102315579Y-74814897D01*
X102314148Y-74810856D01*
X102182321Y-74555447D01*
X102017052Y-74320293D01*
X101911799Y-74207027D01*
X101824318Y-74112886D01*
X101824315Y-74112883D01*
X101821397Y-74109743D01*
X101598978Y-73927695D01*
X101353910Y-73777517D01*
X101349993Y-73775798D01*
X101349990Y-73775796D01*
X101233678Y-73724739D01*
X101090728Y-73661989D01*
X101086600Y-73660813D01*
X101086597Y-73660812D01*
X101000693Y-73636342D01*
X100814302Y-73583247D01*
X100810060Y-73582643D01*
X100810054Y-73582642D01*
X100533998Y-73543353D01*
X100529747Y-73542748D01*
X100378246Y-73541955D01*
X100246614Y-73541265D01*
X100246608Y-73541265D01*
X100242328Y-73541243D01*
X100238083Y-73541802D01*
X100238081Y-73541802D01*
X100172784Y-73550399D01*
X99957365Y-73578760D01*
X99680129Y-73654603D01*
X99415752Y-73767369D01*
X99412071Y-73769572D01*
X99172806Y-73912768D01*
X99172802Y-73912771D01*
X99169124Y-73914972D01*
X99165781Y-73917650D01*
X99165777Y-73917653D01*
X99153243Y-73927695D01*
X98944811Y-74094681D01*
X98746963Y-74303170D01*
X98579240Y-74536581D01*
X98444746Y-74790596D01*
X98345971Y-75060512D01*
X98284741Y-75341337D01*
X98262698Y-75621415D01*
X98262190Y-75627874D01*
X97383000Y-75627874D01*
X97383000Y-72884000D01*
X97403002Y-72815879D01*
X97456658Y-72769386D01*
X97509000Y-72758000D01*
X150741000Y-72758000D01*
X150809121Y-72778002D01*
G37*
%TD.AperFunction*%
%TA.AperFunction,Conductor*%
G36*
X121485504Y-105527524D02*
G01*
X121531997Y-105581180D01*
X121542101Y-105651454D01*
X121512607Y-105716034D01*
X121506478Y-105722617D01*
X120774500Y-106454595D01*
X120712188Y-106488621D01*
X120685405Y-106491500D01*
X106589017Y-106491500D01*
X106520896Y-106471498D01*
X106474403Y-106417842D01*
X106464299Y-106347568D01*
X106473910Y-106314251D01*
X106541109Y-106163319D01*
X106541109Y-106163318D01*
X106543794Y-106157288D01*
X106583500Y-105970487D01*
X106583500Y-105779513D01*
X106571407Y-105722617D01*
X106558037Y-105659719D01*
X106563439Y-105588928D01*
X106606256Y-105532296D01*
X106672894Y-105507802D01*
X106681284Y-105507522D01*
X121417383Y-105507522D01*
X121485504Y-105527524D01*
G37*
%TD.AperFunction*%
%TA.AperFunction,Conductor*%
G36*
X125417390Y-91653502D02*
G01*
X125463883Y-91707158D01*
X125473987Y-91777432D01*
X125444493Y-91842012D01*
X125438364Y-91848595D01*
X124745211Y-92541748D01*
X124682899Y-92575774D01*
X124656116Y-92578653D01*
X120980574Y-92578653D01*
X120913062Y-92559040D01*
X120861164Y-92526104D01*
X120700856Y-92469021D01*
X120531885Y-92448873D01*
X120524882Y-92449609D01*
X120524881Y-92449609D01*
X120369657Y-92465923D01*
X120369653Y-92465924D01*
X120362649Y-92466660D01*
X120355978Y-92468931D01*
X120208229Y-92519228D01*
X120208226Y-92519229D01*
X120201559Y-92521499D01*
X120195561Y-92525189D01*
X120195559Y-92525190D01*
X120062621Y-92606974D01*
X120062619Y-92606976D01*
X120056622Y-92610665D01*
X120017974Y-92648512D01*
X119968066Y-92697386D01*
X119905401Y-92730757D01*
X119834642Y-92724951D01*
X119802689Y-92706928D01*
X119800517Y-92705243D01*
X119800512Y-92705240D01*
X119794254Y-92700386D01*
X119786985Y-92697241D01*
X119786981Y-92697238D01*
X119753676Y-92682826D01*
X119743026Y-92677609D01*
X119704273Y-92656305D01*
X119684650Y-92651267D01*
X119665947Y-92644863D01*
X119654633Y-92639967D01*
X119654632Y-92639967D01*
X119647358Y-92636819D01*
X119639535Y-92635580D01*
X119639525Y-92635577D01*
X119603689Y-92629901D01*
X119592069Y-92627495D01*
X119557100Y-92618517D01*
X119520919Y-92602860D01*
X119494679Y-92586208D01*
X119459608Y-92563951D01*
X119299300Y-92506868D01*
X119130329Y-92486720D01*
X119123326Y-92487456D01*
X119123325Y-92487456D01*
X118968101Y-92503770D01*
X118968097Y-92503771D01*
X118961093Y-92504507D01*
X118954422Y-92506778D01*
X118806673Y-92557075D01*
X118806670Y-92557076D01*
X118800003Y-92559346D01*
X118794005Y-92563036D01*
X118794003Y-92563037D01*
X118661065Y-92644821D01*
X118661063Y-92644823D01*
X118655066Y-92648512D01*
X118533486Y-92767573D01*
X118531644Y-92765692D01*
X118483053Y-92799015D01*
X118457127Y-92804544D01*
X118410462Y-92809449D01*
X118342447Y-92816597D01*
X118342443Y-92816598D01*
X118335439Y-92817334D01*
X118328768Y-92819605D01*
X118181019Y-92869902D01*
X118181016Y-92869903D01*
X118174349Y-92872173D01*
X118168351Y-92875863D01*
X118168349Y-92875864D01*
X118035411Y-92957648D01*
X118035409Y-92957650D01*
X118029412Y-92961339D01*
X117907832Y-93080400D01*
X117904021Y-93086314D01*
X117904019Y-93086316D01*
X117834471Y-93194233D01*
X117780756Y-93240657D01*
X117741730Y-93251287D01*
X117718101Y-93253770D01*
X117718097Y-93253771D01*
X117711093Y-93254507D01*
X117704422Y-93256778D01*
X117556673Y-93307075D01*
X117556670Y-93307076D01*
X117550003Y-93309346D01*
X117544005Y-93313036D01*
X117544003Y-93313037D01*
X117411065Y-93394821D01*
X117411063Y-93394823D01*
X117405066Y-93398512D01*
X117283486Y-93517573D01*
X117191304Y-93660610D01*
X117188894Y-93667230D01*
X117186523Y-93672007D01*
X117138317Y-93724129D01*
X117086835Y-93741291D01*
X117044726Y-93745717D01*
X116961093Y-93754507D01*
X116954422Y-93756778D01*
X116806673Y-93807075D01*
X116806670Y-93807076D01*
X116800003Y-93809346D01*
X116794005Y-93813036D01*
X116794003Y-93813037D01*
X116661065Y-93894821D01*
X116661063Y-93894823D01*
X116655066Y-93898512D01*
X116533486Y-94017573D01*
X116529675Y-94023487D01*
X116529673Y-94023489D01*
X116463962Y-94125452D01*
X116441304Y-94160610D01*
X116383103Y-94320516D01*
X116361775Y-94489343D01*
X116378381Y-94658699D01*
X116380605Y-94665384D01*
X116380605Y-94665385D01*
X116420259Y-94784589D01*
X116422782Y-94855541D01*
X116388861Y-94914381D01*
X116283486Y-95017573D01*
X116191304Y-95160610D01*
X116188894Y-95167232D01*
X116138519Y-95305637D01*
X116133103Y-95320516D01*
X116111775Y-95489343D01*
X116128381Y-95658699D01*
X116182094Y-95820167D01*
X116185741Y-95826189D01*
X116185742Y-95826191D01*
X116199497Y-95848902D01*
X116270246Y-95965723D01*
X116388455Y-96088132D01*
X116394351Y-96091990D01*
X116523068Y-96176220D01*
X116530846Y-96181310D01*
X116537450Y-96183766D01*
X116537452Y-96183767D01*
X116545632Y-96186809D01*
X116690341Y-96240626D01*
X116695257Y-96241282D01*
X116753111Y-96274015D01*
X119066986Y-98587891D01*
X121371348Y-100892253D01*
X121378888Y-100900539D01*
X121383000Y-100907018D01*
X121388777Y-100912443D01*
X121432651Y-100953643D01*
X121435493Y-100956398D01*
X121455230Y-100976135D01*
X121458427Y-100978615D01*
X121467447Y-100986318D01*
X121499679Y-101016586D01*
X121506625Y-101020405D01*
X121506628Y-101020407D01*
X121517434Y-101026348D01*
X121533953Y-101037199D01*
X121549959Y-101049614D01*
X121557228Y-101052759D01*
X121557232Y-101052762D01*
X121590537Y-101067174D01*
X121601187Y-101072391D01*
X121639940Y-101093695D01*
X121644835Y-101094952D01*
X121664280Y-101105031D01*
X121780846Y-101181310D01*
X121787450Y-101183766D01*
X121787452Y-101183767D01*
X121823844Y-101197301D01*
X121940341Y-101240626D01*
X122109015Y-101263132D01*
X122116026Y-101262494D01*
X122116030Y-101262494D01*
X122271462Y-101248348D01*
X122278483Y-101247709D01*
X122285185Y-101245531D01*
X122285187Y-101245531D01*
X122433623Y-101197301D01*
X122433626Y-101197300D01*
X122440322Y-101195124D01*
X122586490Y-101107990D01*
X122591584Y-101103139D01*
X122591588Y-101103136D01*
X122682474Y-101016586D01*
X122709721Y-100990639D01*
X122715292Y-100982255D01*
X122770939Y-100898498D01*
X122803891Y-100848902D01*
X122864319Y-100689825D01*
X122888001Y-100521313D01*
X122888299Y-100500000D01*
X122869331Y-100330892D01*
X122813368Y-100170189D01*
X122723192Y-100025879D01*
X122603286Y-99905132D01*
X122570817Y-99884526D01*
X122461885Y-99815396D01*
X122415086Y-99762007D01*
X122404581Y-99691792D01*
X122433705Y-99627044D01*
X122493211Y-99588320D01*
X122529399Y-99583011D01*
X123761621Y-99583011D01*
X123772804Y-99583538D01*
X123780297Y-99585213D01*
X123788223Y-99584964D01*
X123788224Y-99584964D01*
X123848374Y-99583073D01*
X123852333Y-99583011D01*
X123880244Y-99583011D01*
X123884179Y-99582514D01*
X123884244Y-99582506D01*
X123896081Y-99581573D01*
X123928339Y-99580559D01*
X123932358Y-99580433D01*
X123940277Y-99580184D01*
X123959731Y-99574532D01*
X123979088Y-99570524D01*
X123991318Y-99568979D01*
X123991319Y-99568979D01*
X123999185Y-99567985D01*
X124006556Y-99565066D01*
X124006558Y-99565066D01*
X124040300Y-99551707D01*
X124051530Y-99547862D01*
X124086371Y-99537740D01*
X124086372Y-99537740D01*
X124093981Y-99535529D01*
X124100800Y-99531496D01*
X124100805Y-99531494D01*
X124111416Y-99525218D01*
X124129164Y-99516523D01*
X124148005Y-99509063D01*
X124166631Y-99495531D01*
X124183775Y-99483075D01*
X124193695Y-99476559D01*
X124224923Y-99458091D01*
X124224926Y-99458089D01*
X124231750Y-99454053D01*
X124246071Y-99439732D01*
X124261105Y-99426891D01*
X124271082Y-99419642D01*
X124277495Y-99414983D01*
X124305686Y-99380906D01*
X124313676Y-99372127D01*
X124895583Y-98790220D01*
X124945741Y-98759482D01*
X124974924Y-98750000D01*
X125086646Y-98713699D01*
X125232814Y-98626565D01*
X125237908Y-98621714D01*
X125237912Y-98621711D01*
X125339993Y-98524500D01*
X125356045Y-98509214D01*
X125450215Y-98367477D01*
X125510643Y-98208400D01*
X125534325Y-98039888D01*
X125534623Y-98018575D01*
X125515655Y-97849467D01*
X125459692Y-97688764D01*
X125437620Y-97653441D01*
X125417901Y-97621885D01*
X125369516Y-97544454D01*
X125249610Y-97423707D01*
X125105932Y-97332526D01*
X124945624Y-97275443D01*
X124940867Y-97274876D01*
X124879889Y-97240287D01*
X124851425Y-97194084D01*
X124847256Y-97182112D01*
X124757080Y-97037802D01*
X124637174Y-96917055D01*
X124588837Y-96886379D01*
X124581831Y-96881933D01*
X124493496Y-96825874D01*
X124333188Y-96768791D01*
X124164217Y-96748643D01*
X124157214Y-96749379D01*
X124157213Y-96749379D01*
X124140360Y-96751151D01*
X124112289Y-96754101D01*
X124042452Y-96741329D01*
X124009718Y-96717578D01*
X123977306Y-96684939D01*
X123833628Y-96593758D01*
X123673320Y-96536675D01*
X123673834Y-96535233D01*
X123620869Y-96505752D01*
X121175866Y-94060748D01*
X121141840Y-93998436D01*
X121146905Y-93927620D01*
X121189452Y-93870785D01*
X121255972Y-93845974D01*
X121264961Y-93845653D01*
X124891944Y-93845653D01*
X124903127Y-93846180D01*
X124910620Y-93847855D01*
X124918546Y-93847606D01*
X124918547Y-93847606D01*
X124978697Y-93845715D01*
X124982656Y-93845653D01*
X125010567Y-93845653D01*
X125014502Y-93845156D01*
X125014567Y-93845148D01*
X125026404Y-93844215D01*
X125058662Y-93843201D01*
X125062681Y-93843075D01*
X125070600Y-93842826D01*
X125090054Y-93837174D01*
X125109411Y-93833166D01*
X125121641Y-93831621D01*
X125121642Y-93831621D01*
X125129508Y-93830627D01*
X125136879Y-93827708D01*
X125136881Y-93827708D01*
X125170623Y-93814349D01*
X125181853Y-93810504D01*
X125216694Y-93800382D01*
X125216695Y-93800382D01*
X125224304Y-93798171D01*
X125231123Y-93794138D01*
X125231128Y-93794136D01*
X125241739Y-93787860D01*
X125259487Y-93779165D01*
X125278328Y-93771705D01*
X125285161Y-93766741D01*
X125314098Y-93745717D01*
X125324018Y-93739201D01*
X125355246Y-93720733D01*
X125355249Y-93720731D01*
X125362073Y-93716695D01*
X125376394Y-93702374D01*
X125391428Y-93689533D01*
X125401405Y-93682284D01*
X125407818Y-93677625D01*
X125436009Y-93643548D01*
X125443999Y-93634769D01*
X126276405Y-92802363D01*
X126338717Y-92768337D01*
X126409532Y-92773402D01*
X126466368Y-92815949D01*
X126491179Y-92882469D01*
X126491500Y-92891458D01*
X126491500Y-98435405D01*
X126471498Y-98503526D01*
X126454595Y-98524500D01*
X121224989Y-103754106D01*
X121162677Y-103788132D01*
X121135894Y-103791011D01*
X115134500Y-103791011D01*
X115066379Y-103771009D01*
X115019886Y-103717353D01*
X115008500Y-103665011D01*
X115008500Y-102351866D01*
X115001745Y-102289684D01*
X114950615Y-102153295D01*
X114863261Y-102036739D01*
X114746705Y-101949385D01*
X114610316Y-101898255D01*
X114548134Y-101891500D01*
X114484500Y-101891500D01*
X114416379Y-101871498D01*
X114369886Y-101817842D01*
X114358500Y-101765500D01*
X114358500Y-95070660D01*
X114378502Y-95002539D01*
X114395405Y-94981565D01*
X116317091Y-93059879D01*
X116379403Y-93025853D01*
X116450218Y-93030918D01*
X116475170Y-93043537D01*
X116543019Y-93087936D01*
X116549623Y-93090392D01*
X116549625Y-93090393D01*
X116586017Y-93103927D01*
X116702514Y-93147252D01*
X116871188Y-93169758D01*
X116878199Y-93169120D01*
X116878203Y-93169120D01*
X117033635Y-93154974D01*
X117040656Y-93154335D01*
X117047358Y-93152157D01*
X117047360Y-93152157D01*
X117195796Y-93103927D01*
X117195799Y-93103926D01*
X117202495Y-93101750D01*
X117348663Y-93014616D01*
X117353757Y-93009765D01*
X117353761Y-93009762D01*
X117421006Y-92945725D01*
X117471894Y-92897265D01*
X117481725Y-92882469D01*
X117545919Y-92785849D01*
X117566064Y-92755528D01*
X117626492Y-92596451D01*
X117627472Y-92589474D01*
X117628311Y-92586208D01*
X117661258Y-92528445D01*
X118519298Y-91670405D01*
X118581610Y-91636379D01*
X118608393Y-91633500D01*
X125349269Y-91633500D01*
X125417390Y-91653502D01*
G37*
%TD.AperFunction*%
%TA.AperFunction,Conductor*%
G36*
X112899900Y-101477315D02*
G01*
X112937082Y-101537796D01*
X112941500Y-101570870D01*
X112941500Y-101765500D01*
X112921498Y-101833621D01*
X112867842Y-101880114D01*
X112815500Y-101891500D01*
X112751866Y-101891500D01*
X112689684Y-101898255D01*
X112553295Y-101949385D01*
X112436739Y-102036739D01*
X112349385Y-102153295D01*
X112346233Y-102161703D01*
X112304919Y-102271907D01*
X112262277Y-102328671D01*
X112195716Y-102353371D01*
X112126367Y-102338163D01*
X112093743Y-102312476D01*
X112043151Y-102256875D01*
X112043142Y-102256866D01*
X112039670Y-102253051D01*
X112035619Y-102249852D01*
X112035615Y-102249848D01*
X111868414Y-102117800D01*
X111868410Y-102117798D01*
X111864359Y-102114598D01*
X111668789Y-102006638D01*
X111663920Y-102004914D01*
X111663916Y-102004912D01*
X111463087Y-101933795D01*
X111463083Y-101933794D01*
X111458212Y-101932069D01*
X111453119Y-101931162D01*
X111453116Y-101931161D01*
X111243373Y-101893800D01*
X111243367Y-101893799D01*
X111238284Y-101892894D01*
X111164452Y-101891992D01*
X111020081Y-101890228D01*
X111020079Y-101890228D01*
X111014911Y-101890165D01*
X110794091Y-101923955D01*
X110581756Y-101993357D01*
X110383607Y-102096507D01*
X110379474Y-102099610D01*
X110379471Y-102099612D01*
X110209100Y-102227530D01*
X110204965Y-102230635D01*
X110165525Y-102271907D01*
X110111280Y-102328671D01*
X110050629Y-102392138D01*
X109924743Y-102576680D01*
X109884864Y-102662592D01*
X109835071Y-102769863D01*
X109830688Y-102779305D01*
X109770989Y-102994570D01*
X109747251Y-103216695D01*
X109747548Y-103221848D01*
X109747548Y-103221851D01*
X109754494Y-103342314D01*
X109760110Y-103439715D01*
X109761247Y-103444762D01*
X109761248Y-103444766D01*
X109804641Y-103637310D01*
X109800105Y-103708161D01*
X109757984Y-103765313D01*
X109691650Y-103790619D01*
X109681724Y-103791011D01*
X108114106Y-103791011D01*
X108045985Y-103771009D01*
X108025010Y-103754106D01*
X107653023Y-103382118D01*
X107253647Y-102982742D01*
X107246113Y-102974463D01*
X107242000Y-102967982D01*
X107192348Y-102921356D01*
X107189507Y-102918602D01*
X107169770Y-102898865D01*
X107166573Y-102896385D01*
X107157551Y-102888680D01*
X107131100Y-102863841D01*
X107125321Y-102858414D01*
X107118375Y-102854595D01*
X107118372Y-102854593D01*
X107107566Y-102848652D01*
X107091047Y-102837801D01*
X107090583Y-102837441D01*
X107075041Y-102825386D01*
X107067772Y-102822241D01*
X107067768Y-102822238D01*
X107034463Y-102807826D01*
X107023813Y-102802609D01*
X106985060Y-102781305D01*
X106965437Y-102776267D01*
X106946734Y-102769863D01*
X106935420Y-102764967D01*
X106935419Y-102764967D01*
X106928145Y-102761819D01*
X106920322Y-102760580D01*
X106920312Y-102760577D01*
X106884476Y-102754901D01*
X106872856Y-102752495D01*
X106837711Y-102743472D01*
X106837710Y-102743472D01*
X106830030Y-102741500D01*
X106809776Y-102741500D01*
X106790065Y-102739949D01*
X106777886Y-102738020D01*
X106770057Y-102736780D01*
X106762165Y-102737526D01*
X106726039Y-102740941D01*
X106714181Y-102741500D01*
X106589017Y-102741500D01*
X106520896Y-102721498D01*
X106474403Y-102667842D01*
X106464299Y-102597568D01*
X106473910Y-102564251D01*
X106541109Y-102413319D01*
X106541109Y-102413318D01*
X106543794Y-102407288D01*
X106568792Y-102289684D01*
X106582128Y-102226944D01*
X106582128Y-102226939D01*
X106583500Y-102220487D01*
X106583500Y-102029513D01*
X106579029Y-102008475D01*
X106562788Y-101932069D01*
X106543794Y-101842712D01*
X106539747Y-101833621D01*
X106473910Y-101685749D01*
X106464476Y-101615382D01*
X106494583Y-101551085D01*
X106554671Y-101513271D01*
X106589017Y-101508500D01*
X112422233Y-101508500D01*
X112433416Y-101509027D01*
X112440909Y-101510702D01*
X112448835Y-101510453D01*
X112448836Y-101510453D01*
X112508986Y-101508562D01*
X112512945Y-101508500D01*
X112540856Y-101508500D01*
X112544791Y-101508003D01*
X112544856Y-101507995D01*
X112556693Y-101507062D01*
X112588951Y-101506048D01*
X112592970Y-101505922D01*
X112600889Y-101505673D01*
X112620343Y-101500021D01*
X112639700Y-101496013D01*
X112651930Y-101494468D01*
X112651931Y-101494468D01*
X112659797Y-101493474D01*
X112667168Y-101490555D01*
X112667170Y-101490555D01*
X112700912Y-101477196D01*
X112712142Y-101473351D01*
X112746983Y-101463229D01*
X112746984Y-101463229D01*
X112754593Y-101461018D01*
X112761414Y-101456984D01*
X112765460Y-101455233D01*
X112835922Y-101446536D01*
X112899900Y-101477315D01*
G37*
%TD.AperFunction*%
%TA.AperFunction,Conductor*%
G36*
X112489216Y-96904068D02*
G01*
X112530846Y-96931310D01*
X112537450Y-96933766D01*
X112537452Y-96933767D01*
X112610594Y-96960968D01*
X112690341Y-96990626D01*
X112832165Y-97009549D01*
X112897041Y-97038384D01*
X112936029Y-97097718D01*
X112941500Y-97134442D01*
X112941500Y-99491000D01*
X112921498Y-99559121D01*
X112867842Y-99605614D01*
X112815500Y-99617000D01*
X112755013Y-99617000D01*
X112748561Y-99618372D01*
X112748556Y-99618372D01*
X112661613Y-99636853D01*
X112568212Y-99656706D01*
X112562182Y-99659391D01*
X112562181Y-99659391D01*
X112399778Y-99731697D01*
X112399776Y-99731698D01*
X112393748Y-99734382D01*
X112239247Y-99846634D01*
X112234826Y-99851544D01*
X112234825Y-99851545D01*
X112135873Y-99961443D01*
X112111460Y-99988556D01*
X112015973Y-100153944D01*
X112013932Y-100160225D01*
X112011246Y-100166258D01*
X112008543Y-100165054D01*
X111975773Y-100213015D01*
X111910386Y-100240674D01*
X111895980Y-100241500D01*
X106658516Y-100241500D01*
X106590395Y-100221498D01*
X106543902Y-100167842D01*
X106533798Y-100097568D01*
X106538280Y-100077829D01*
X106576753Y-99955062D01*
X106583500Y-99881635D01*
X106583499Y-99368366D01*
X106576753Y-99294938D01*
X106557897Y-99234768D01*
X106527744Y-99138550D01*
X106527743Y-99138548D01*
X106525472Y-99131301D01*
X106436639Y-98984619D01*
X106315381Y-98863361D01*
X106168699Y-98774528D01*
X106161452Y-98772257D01*
X106161450Y-98772256D01*
X106051612Y-98737835D01*
X106005062Y-98723247D01*
X105931635Y-98716500D01*
X105928737Y-98716500D01*
X105423686Y-98716501D01*
X104918366Y-98716501D01*
X104915508Y-98716764D01*
X104915499Y-98716764D01*
X104864658Y-98721435D01*
X104794993Y-98707748D01*
X104743786Y-98658571D01*
X104727296Y-98589516D01*
X104750757Y-98522508D01*
X104764036Y-98506868D01*
X105353673Y-97917232D01*
X106350500Y-96920405D01*
X106412812Y-96886379D01*
X106439595Y-96883500D01*
X112420223Y-96883500D01*
X112489216Y-96904068D01*
G37*
%TD.AperFunction*%
%TD*%
M02*
