%TF.GenerationSoftware,KiCad,Pcbnew,(6.0.1)*%
%TF.CreationDate,2022-05-25T14:38:50-05:00*%
%TF.ProjectId,aatr-sensor,61617472-2d73-4656-9e73-6f722e6b6963,1*%
%TF.SameCoordinates,Original*%
%TF.FileFunction,Legend,Top*%
%TF.FilePolarity,Positive*%
%FSLAX46Y46*%
G04 Gerber Fmt 4.6, Leading zero omitted, Abs format (unit mm)*
G04 Created by KiCad (PCBNEW (6.0.1)) date 2022-05-25 14:38:50*
%MOMM*%
%LPD*%
G01*
G04 APERTURE LIST*
%ADD10C,0.150000*%
%ADD11C,0.120000*%
%ADD12C,0.100000*%
G04 APERTURE END LIST*
D10*
X109928571Y-101107142D02*
X109880952Y-101154761D01*
X109738095Y-101202380D01*
X109642857Y-101202380D01*
X109500000Y-101154761D01*
X109404761Y-101059523D01*
X109357142Y-100964285D01*
X109309523Y-100773809D01*
X109309523Y-100630952D01*
X109357142Y-100440476D01*
X109404761Y-100345238D01*
X109500000Y-100250000D01*
X109642857Y-100202380D01*
X109738095Y-100202380D01*
X109880952Y-100250000D01*
X109928571Y-100297619D01*
X110357142Y-100202380D02*
X110357142Y-101011904D01*
X110404761Y-101107142D01*
X110452380Y-101154761D01*
X110547619Y-101202380D01*
X110738095Y-101202380D01*
X110833333Y-101154761D01*
X110880952Y-101107142D01*
X110928571Y-101011904D01*
X110928571Y-100202380D01*
X111976190Y-101202380D02*
X111642857Y-100726190D01*
X111404761Y-101202380D02*
X111404761Y-100202380D01*
X111785714Y-100202380D01*
X111880952Y-100250000D01*
X111928571Y-100297619D01*
X111976190Y-100392857D01*
X111976190Y-100535714D01*
X111928571Y-100630952D01*
X111880952Y-100678571D01*
X111785714Y-100726190D01*
X111404761Y-100726190D01*
X112976190Y-101202380D02*
X112642857Y-100726190D01*
X112404761Y-101202380D02*
X112404761Y-100202380D01*
X112785714Y-100202380D01*
X112880952Y-100250000D01*
X112928571Y-100297619D01*
X112976190Y-100392857D01*
X112976190Y-100535714D01*
X112928571Y-100630952D01*
X112880952Y-100678571D01*
X112785714Y-100726190D01*
X112404761Y-100726190D01*
X113404761Y-100678571D02*
X113738095Y-100678571D01*
X113880952Y-101202380D02*
X113404761Y-101202380D01*
X113404761Y-100202380D01*
X113880952Y-100202380D01*
X114309523Y-101202380D02*
X114309523Y-100202380D01*
X114880952Y-101202380D01*
X114880952Y-100202380D01*
X115214285Y-100202380D02*
X115785714Y-100202380D01*
X115500000Y-101202380D02*
X115500000Y-100202380D01*
X127738095Y-89952380D02*
X128309523Y-89952380D01*
X128023809Y-90952380D02*
X128023809Y-89952380D01*
X128547619Y-89952380D02*
X129214285Y-90952380D01*
X129214285Y-89952380D02*
X128547619Y-90952380D01*
X144928571Y-105488095D02*
X144976190Y-105345238D01*
X145023809Y-105297619D01*
X145119047Y-105250000D01*
X145261904Y-105250000D01*
X145357142Y-105297619D01*
X145404761Y-105345238D01*
X145452380Y-105440476D01*
X145452380Y-105821428D01*
X144452380Y-105821428D01*
X144452380Y-105488095D01*
X144500000Y-105392857D01*
X144547619Y-105345238D01*
X144642857Y-105297619D01*
X144738095Y-105297619D01*
X144833333Y-105345238D01*
X144880952Y-105392857D01*
X144928571Y-105488095D01*
X144928571Y-105821428D01*
X145166666Y-104869047D02*
X145166666Y-104392857D01*
X145452380Y-104964285D02*
X144452380Y-104630952D01*
X145452380Y-104297619D01*
X144452380Y-104107142D02*
X144452380Y-103535714D01*
X145452380Y-103821428D02*
X144452380Y-103821428D01*
X101589285Y-84904761D02*
X101732142Y-84952380D01*
X101970238Y-84952380D01*
X102065476Y-84904761D01*
X102113095Y-84857142D01*
X102160714Y-84761904D01*
X102160714Y-84666666D01*
X102113095Y-84571428D01*
X102065476Y-84523809D01*
X101970238Y-84476190D01*
X101779761Y-84428571D01*
X101684523Y-84380952D01*
X101636904Y-84333333D01*
X101589285Y-84238095D01*
X101589285Y-84142857D01*
X101636904Y-84047619D01*
X101684523Y-84000000D01*
X101779761Y-83952380D01*
X102017857Y-83952380D01*
X102160714Y-84000000D01*
X103160714Y-84857142D02*
X103113095Y-84904761D01*
X102970238Y-84952380D01*
X102875000Y-84952380D01*
X102732142Y-84904761D01*
X102636904Y-84809523D01*
X102589285Y-84714285D01*
X102541666Y-84523809D01*
X102541666Y-84380952D01*
X102589285Y-84190476D01*
X102636904Y-84095238D01*
X102732142Y-84000000D01*
X102875000Y-83952380D01*
X102970238Y-83952380D01*
X103113095Y-84000000D01*
X103160714Y-84047619D01*
X103589285Y-84952380D02*
X103589285Y-83952380D01*
X104160714Y-84952380D02*
X103732142Y-84380952D01*
X104160714Y-83952380D02*
X103589285Y-84523809D01*
X101702380Y-99982142D02*
X101654761Y-100029761D01*
X101511904Y-100077380D01*
X101416666Y-100077380D01*
X101273809Y-100029761D01*
X101178571Y-99934523D01*
X101130952Y-99839285D01*
X101083333Y-99648809D01*
X101083333Y-99505952D01*
X101130952Y-99315476D01*
X101178571Y-99220238D01*
X101273809Y-99125000D01*
X101416666Y-99077380D01*
X101511904Y-99077380D01*
X101654761Y-99125000D01*
X101702380Y-99172619D01*
X101988095Y-99077380D02*
X102559523Y-99077380D01*
X102273809Y-100077380D02*
X102273809Y-99077380D01*
X102845238Y-100029761D02*
X102988095Y-100077380D01*
X103226190Y-100077380D01*
X103321428Y-100029761D01*
X103369047Y-99982142D01*
X103416666Y-99886904D01*
X103416666Y-99791666D01*
X103369047Y-99696428D01*
X103321428Y-99648809D01*
X103226190Y-99601190D01*
X103035714Y-99553571D01*
X102940476Y-99505952D01*
X102892857Y-99458333D01*
X102845238Y-99363095D01*
X102845238Y-99267857D01*
X102892857Y-99172619D01*
X102940476Y-99125000D01*
X103035714Y-99077380D01*
X103273809Y-99077380D01*
X103416666Y-99125000D01*
X101601190Y-87154761D02*
X101744047Y-87202380D01*
X101982142Y-87202380D01*
X102077380Y-87154761D01*
X102125000Y-87107142D01*
X102172619Y-87011904D01*
X102172619Y-86916666D01*
X102125000Y-86821428D01*
X102077380Y-86773809D01*
X101982142Y-86726190D01*
X101791666Y-86678571D01*
X101696428Y-86630952D01*
X101648809Y-86583333D01*
X101601190Y-86488095D01*
X101601190Y-86392857D01*
X101648809Y-86297619D01*
X101696428Y-86250000D01*
X101791666Y-86202380D01*
X102029761Y-86202380D01*
X102172619Y-86250000D01*
X102601190Y-87202380D02*
X102601190Y-86202380D01*
X102839285Y-86202380D01*
X102982142Y-86250000D01*
X103077380Y-86345238D01*
X103125000Y-86440476D01*
X103172619Y-86630952D01*
X103172619Y-86773809D01*
X103125000Y-86964285D01*
X103077380Y-87059523D01*
X102982142Y-87154761D01*
X102839285Y-87202380D01*
X102601190Y-87202380D01*
X103601190Y-87202380D02*
X103601190Y-86202380D01*
X101583333Y-97952380D02*
X101250000Y-97476190D01*
X101011904Y-97952380D02*
X101011904Y-96952380D01*
X101392857Y-96952380D01*
X101488095Y-97000000D01*
X101535714Y-97047619D01*
X101583333Y-97142857D01*
X101583333Y-97285714D01*
X101535714Y-97380952D01*
X101488095Y-97428571D01*
X101392857Y-97476190D01*
X101011904Y-97476190D01*
X101916666Y-96952380D02*
X102583333Y-97952380D01*
X102583333Y-96952380D02*
X101916666Y-97952380D01*
X102964285Y-97952380D02*
X102964285Y-96952380D01*
X103202380Y-96952380D01*
X103345238Y-97000000D01*
X103440476Y-97095238D01*
X103488095Y-97190476D01*
X103535714Y-97380952D01*
X103535714Y-97523809D01*
X103488095Y-97714285D01*
X103440476Y-97809523D01*
X103345238Y-97904761D01*
X103202380Y-97952380D01*
X102964285Y-97952380D01*
X117000000Y-112261904D02*
X116952380Y-112357142D01*
X116952380Y-112500000D01*
X117000000Y-112642857D01*
X117095238Y-112738095D01*
X117190476Y-112785714D01*
X117380952Y-112833333D01*
X117523809Y-112833333D01*
X117714285Y-112785714D01*
X117809523Y-112738095D01*
X117904761Y-112642857D01*
X117952380Y-112500000D01*
X117952380Y-112404761D01*
X117904761Y-112261904D01*
X117857142Y-112214285D01*
X117523809Y-112214285D01*
X117523809Y-112404761D01*
X117952380Y-111785714D02*
X116952380Y-111785714D01*
X117952380Y-111214285D01*
X116952380Y-111214285D01*
X117952380Y-110738095D02*
X116952380Y-110738095D01*
X116952380Y-110500000D01*
X117000000Y-110357142D01*
X117095238Y-110261904D01*
X117190476Y-110214285D01*
X117380952Y-110166666D01*
X117523809Y-110166666D01*
X117714285Y-110214285D01*
X117809523Y-110261904D01*
X117904761Y-110357142D01*
X117952380Y-110500000D01*
X117952380Y-110738095D01*
X123452380Y-78164404D02*
X122452380Y-78164404D01*
X122452380Y-77926309D01*
X122500000Y-77783452D01*
X122595238Y-77688214D01*
X122690476Y-77640595D01*
X122880952Y-77592976D01*
X123023809Y-77592976D01*
X123214285Y-77640595D01*
X123309523Y-77688214D01*
X123404761Y-77783452D01*
X123452380Y-77926309D01*
X123452380Y-78164404D01*
X122452380Y-76973928D02*
X122452380Y-76783452D01*
X122500000Y-76688214D01*
X122595238Y-76592976D01*
X122785714Y-76545357D01*
X123119047Y-76545357D01*
X123309523Y-76592976D01*
X123404761Y-76688214D01*
X123452380Y-76783452D01*
X123452380Y-76973928D01*
X123404761Y-77069166D01*
X123309523Y-77164404D01*
X123119047Y-77212023D01*
X122785714Y-77212023D01*
X122595238Y-77164404D01*
X122500000Y-77069166D01*
X122452380Y-76973928D01*
X126029761Y-79035714D02*
X126077380Y-78892857D01*
X126077380Y-78654761D01*
X126029761Y-78559523D01*
X125982142Y-78511904D01*
X125886904Y-78464285D01*
X125791666Y-78464285D01*
X125696428Y-78511904D01*
X125648809Y-78559523D01*
X125601190Y-78654761D01*
X125553571Y-78845238D01*
X125505952Y-78940476D01*
X125458333Y-78988095D01*
X125363095Y-79035714D01*
X125267857Y-79035714D01*
X125172619Y-78988095D01*
X125125000Y-78940476D01*
X125077380Y-78845238D01*
X125077380Y-78607142D01*
X125125000Y-78464285D01*
X125982142Y-77464285D02*
X126029761Y-77511904D01*
X126077380Y-77654761D01*
X126077380Y-77750000D01*
X126029761Y-77892857D01*
X125934523Y-77988095D01*
X125839285Y-78035714D01*
X125648809Y-78083333D01*
X125505952Y-78083333D01*
X125315476Y-78035714D01*
X125220238Y-77988095D01*
X125125000Y-77892857D01*
X125077380Y-77750000D01*
X125077380Y-77654761D01*
X125125000Y-77511904D01*
X125172619Y-77464285D01*
X126077380Y-77035714D02*
X125077380Y-77035714D01*
X126077380Y-76464285D02*
X125505952Y-76892857D01*
X125077380Y-76464285D02*
X125648809Y-77035714D01*
X128333333Y-93452380D02*
X128000000Y-92976190D01*
X127761904Y-93452380D02*
X127761904Y-92452380D01*
X128142857Y-92452380D01*
X128238095Y-92500000D01*
X128285714Y-92547619D01*
X128333333Y-92642857D01*
X128333333Y-92785714D01*
X128285714Y-92880952D01*
X128238095Y-92928571D01*
X128142857Y-92976190D01*
X127761904Y-92976190D01*
X128666666Y-92452380D02*
X129333333Y-93452380D01*
X129333333Y-92452380D02*
X128666666Y-93452380D01*
X128045000Y-75726190D02*
X128045000Y-74726190D01*
X129232142Y-74916666D02*
X129279761Y-74964285D01*
X129327380Y-75107142D01*
X129327380Y-75202380D01*
X129279761Y-75345238D01*
X129184523Y-75440476D01*
X129089285Y-75488095D01*
X128898809Y-75535714D01*
X128755952Y-75535714D01*
X128565476Y-75488095D01*
X128470238Y-75440476D01*
X128375000Y-75345238D01*
X128327380Y-75202380D01*
X128327380Y-75107142D01*
X128375000Y-74964285D01*
X128422619Y-74916666D01*
X128045000Y-74726190D02*
X128045000Y-73773809D01*
X129279761Y-74535714D02*
X129327380Y-74392857D01*
X129327380Y-74154761D01*
X129279761Y-74059523D01*
X129232142Y-74011904D01*
X129136904Y-73964285D01*
X129041666Y-73964285D01*
X128946428Y-74011904D01*
X128898809Y-74059523D01*
X128851190Y-74154761D01*
X128803571Y-74345238D01*
X128755952Y-74440476D01*
X128708333Y-74488095D01*
X128613095Y-74535714D01*
X128517857Y-74535714D01*
X128422619Y-74488095D01*
X128375000Y-74440476D01*
X128327380Y-74345238D01*
X128327380Y-74107142D01*
X128375000Y-73964285D01*
X101130952Y-104077380D02*
X101130952Y-103077380D01*
X101702380Y-104077380D01*
X101702380Y-103077380D01*
X102178571Y-103553571D02*
X102511904Y-103553571D01*
X102654761Y-104077380D02*
X102178571Y-104077380D01*
X102178571Y-103077380D01*
X102654761Y-103077380D01*
X102940476Y-103077380D02*
X103511904Y-103077380D01*
X103226190Y-104077380D02*
X103226190Y-103077380D01*
X101702380Y-102077380D02*
X101369047Y-101601190D01*
X101130952Y-102077380D02*
X101130952Y-101077380D01*
X101511904Y-101077380D01*
X101607142Y-101125000D01*
X101654761Y-101172619D01*
X101702380Y-101267857D01*
X101702380Y-101410714D01*
X101654761Y-101505952D01*
X101607142Y-101553571D01*
X101511904Y-101601190D01*
X101130952Y-101601190D01*
X101988095Y-101077380D02*
X102559523Y-101077380D01*
X102273809Y-102077380D02*
X102273809Y-101077380D01*
X102845238Y-102029761D02*
X102988095Y-102077380D01*
X103226190Y-102077380D01*
X103321428Y-102029761D01*
X103369047Y-101982142D01*
X103416666Y-101886904D01*
X103416666Y-101791666D01*
X103369047Y-101696428D01*
X103321428Y-101648809D01*
X103226190Y-101601190D01*
X103035714Y-101553571D01*
X102940476Y-101505952D01*
X102892857Y-101458333D01*
X102845238Y-101363095D01*
X102845238Y-101267857D01*
X102892857Y-101172619D01*
X102940476Y-101125000D01*
X103035714Y-101077380D01*
X103273809Y-101077380D01*
X103416666Y-101125000D01*
X116952380Y-108940476D02*
X116952380Y-109416666D01*
X117428571Y-109464285D01*
X117380952Y-109416666D01*
X117333333Y-109321428D01*
X117333333Y-109083333D01*
X117380952Y-108988095D01*
X117428571Y-108940476D01*
X117523809Y-108892857D01*
X117761904Y-108892857D01*
X117857142Y-108940476D01*
X117904761Y-108988095D01*
X117952380Y-109083333D01*
X117952380Y-109321428D01*
X117904761Y-109416666D01*
X117857142Y-109464285D01*
X116952380Y-108607142D02*
X117952380Y-108273809D01*
X116952380Y-107940476D01*
X139803571Y-101321428D02*
X139803571Y-101654761D01*
X140327380Y-101654761D02*
X139327380Y-101654761D01*
X139327380Y-101178571D01*
X140327380Y-100797619D02*
X139327380Y-100797619D01*
X139327380Y-100416666D02*
X140327380Y-99750000D01*
X139327380Y-99750000D02*
X140327380Y-100416666D01*
X141827380Y-76440476D02*
X141827380Y-77011904D01*
X141827380Y-76726190D02*
X140827380Y-76726190D01*
X140970238Y-76821428D01*
X141065476Y-76916666D01*
X141113095Y-77011904D01*
X141827380Y-76011904D02*
X140827380Y-76011904D01*
X140827380Y-75630952D01*
X140875000Y-75535714D01*
X140922619Y-75488095D01*
X141017857Y-75440476D01*
X141160714Y-75440476D01*
X141255952Y-75488095D01*
X141303571Y-75535714D01*
X141351190Y-75630952D01*
X141351190Y-76011904D01*
X141827380Y-75011904D02*
X140827380Y-75011904D01*
X140827380Y-74630952D01*
X140875000Y-74535714D01*
X140922619Y-74488095D01*
X141017857Y-74440476D01*
X141160714Y-74440476D01*
X141255952Y-74488095D01*
X141303571Y-74535714D01*
X141351190Y-74630952D01*
X141351190Y-75011904D01*
X141779761Y-74059523D02*
X141827380Y-73916666D01*
X141827380Y-73678571D01*
X141779761Y-73583333D01*
X141732142Y-73535714D01*
X141636904Y-73488095D01*
X141541666Y-73488095D01*
X141446428Y-73535714D01*
X141398809Y-73583333D01*
X141351190Y-73678571D01*
X141303571Y-73869047D01*
X141255952Y-73964285D01*
X141208333Y-74011904D01*
X141113095Y-74059523D01*
X141017857Y-74059523D01*
X140922619Y-74011904D01*
X140875000Y-73964285D01*
X140827380Y-73869047D01*
X140827380Y-73630952D01*
X140875000Y-73488095D01*
X147250000Y-105761904D02*
X147202380Y-105857142D01*
X147202380Y-106000000D01*
X147250000Y-106142857D01*
X147345238Y-106238095D01*
X147440476Y-106285714D01*
X147630952Y-106333333D01*
X147773809Y-106333333D01*
X147964285Y-106285714D01*
X148059523Y-106238095D01*
X148154761Y-106142857D01*
X148202380Y-106000000D01*
X148202380Y-105904761D01*
X148154761Y-105761904D01*
X148107142Y-105714285D01*
X147773809Y-105714285D01*
X147773809Y-105904761D01*
X148202380Y-105285714D02*
X147202380Y-105285714D01*
X148202380Y-104714285D01*
X147202380Y-104714285D01*
X148202380Y-104238095D02*
X147202380Y-104238095D01*
X147202380Y-104000000D01*
X147250000Y-103857142D01*
X147345238Y-103761904D01*
X147440476Y-103714285D01*
X147630952Y-103666666D01*
X147773809Y-103666666D01*
X147964285Y-103714285D01*
X148059523Y-103761904D01*
X148154761Y-103857142D01*
X148202380Y-104000000D01*
X148202380Y-104238095D01*
X134045000Y-102107142D02*
X134045000Y-101107142D01*
X135327380Y-101297619D02*
X134851190Y-101630952D01*
X135327380Y-101869047D02*
X134327380Y-101869047D01*
X134327380Y-101488095D01*
X134375000Y-101392857D01*
X134422619Y-101345238D01*
X134517857Y-101297619D01*
X134660714Y-101297619D01*
X134755952Y-101345238D01*
X134803571Y-101392857D01*
X134851190Y-101488095D01*
X134851190Y-101869047D01*
X134045000Y-101107142D02*
X134045000Y-100154761D01*
X135279761Y-100916666D02*
X135327380Y-100773809D01*
X135327380Y-100535714D01*
X135279761Y-100440476D01*
X135232142Y-100392857D01*
X135136904Y-100345238D01*
X135041666Y-100345238D01*
X134946428Y-100392857D01*
X134898809Y-100440476D01*
X134851190Y-100535714D01*
X134803571Y-100726190D01*
X134755952Y-100821428D01*
X134708333Y-100869047D01*
X134613095Y-100916666D01*
X134517857Y-100916666D01*
X134422619Y-100869047D01*
X134375000Y-100821428D01*
X134327380Y-100726190D01*
X134327380Y-100488095D01*
X134375000Y-100345238D01*
X134045000Y-100154761D02*
X134045000Y-99392857D01*
X134327380Y-100059523D02*
X134327380Y-99488095D01*
X135327380Y-99773809D02*
X134327380Y-99773809D01*
X101309523Y-110029761D02*
X101452380Y-110077380D01*
X101690476Y-110077380D01*
X101785714Y-110029761D01*
X101833333Y-109982142D01*
X101880952Y-109886904D01*
X101880952Y-109791666D01*
X101833333Y-109696428D01*
X101785714Y-109648809D01*
X101690476Y-109601190D01*
X101500000Y-109553571D01*
X101404761Y-109505952D01*
X101357142Y-109458333D01*
X101309523Y-109363095D01*
X101309523Y-109267857D01*
X101357142Y-109172619D01*
X101404761Y-109125000D01*
X101500000Y-109077380D01*
X101738095Y-109077380D01*
X101880952Y-109125000D01*
X102785714Y-110077380D02*
X102309523Y-110077380D01*
X102309523Y-109077380D01*
X103119047Y-110077380D02*
X103119047Y-109077380D01*
X103500000Y-109077380D01*
X103595238Y-109125000D01*
X103642857Y-109172619D01*
X103690476Y-109267857D01*
X103690476Y-109410714D01*
X103642857Y-109505952D01*
X103595238Y-109553571D01*
X103500000Y-109601190D01*
X103119047Y-109601190D01*
X101565476Y-82904761D02*
X101708333Y-82952380D01*
X101946428Y-82952380D01*
X102041666Y-82904761D01*
X102089285Y-82857142D01*
X102136904Y-82761904D01*
X102136904Y-82666666D01*
X102089285Y-82571428D01*
X102041666Y-82523809D01*
X101946428Y-82476190D01*
X101755952Y-82428571D01*
X101660714Y-82380952D01*
X101613095Y-82333333D01*
X101565476Y-82238095D01*
X101565476Y-82142857D01*
X101613095Y-82047619D01*
X101660714Y-82000000D01*
X101755952Y-81952380D01*
X101994047Y-81952380D01*
X102136904Y-82000000D01*
X102565476Y-82952380D02*
X102565476Y-81952380D01*
X102803571Y-81952380D01*
X102946428Y-82000000D01*
X103041666Y-82095238D01*
X103089285Y-82190476D01*
X103136904Y-82380952D01*
X103136904Y-82523809D01*
X103089285Y-82714285D01*
X103041666Y-82809523D01*
X102946428Y-82904761D01*
X102803571Y-82952380D01*
X102565476Y-82952380D01*
X103755952Y-81952380D02*
X103946428Y-81952380D01*
X104041666Y-82000000D01*
X104136904Y-82095238D01*
X104184523Y-82285714D01*
X104184523Y-82619047D01*
X104136904Y-82809523D01*
X104041666Y-82904761D01*
X103946428Y-82952380D01*
X103755952Y-82952380D01*
X103660714Y-82904761D01*
X103565476Y-82809523D01*
X103517857Y-82619047D01*
X103517857Y-82285714D01*
X103565476Y-82095238D01*
X103660714Y-82000000D01*
X103755952Y-81952380D01*
X120375000Y-79702380D02*
X120375000Y-78702380D01*
X120613095Y-78702380D01*
X120755952Y-78750000D01*
X120851190Y-78845238D01*
X120898809Y-78940476D01*
X120946428Y-79130952D01*
X120946428Y-79273809D01*
X120898809Y-79464285D01*
X120851190Y-79559523D01*
X120755952Y-79654761D01*
X120613095Y-79702380D01*
X120375000Y-79702380D01*
X121375000Y-79702380D02*
X121375000Y-78702380D01*
X101398809Y-79670000D02*
X102398809Y-79670000D01*
X102208333Y-80857142D02*
X102160714Y-80904761D01*
X102017857Y-80952380D01*
X101922619Y-80952380D01*
X101779761Y-80904761D01*
X101684523Y-80809523D01*
X101636904Y-80714285D01*
X101589285Y-80523809D01*
X101589285Y-80380952D01*
X101636904Y-80190476D01*
X101684523Y-80095238D01*
X101779761Y-80000000D01*
X101922619Y-79952380D01*
X102017857Y-79952380D01*
X102160714Y-80000000D01*
X102208333Y-80047619D01*
X102398809Y-79670000D02*
X103351190Y-79670000D01*
X102589285Y-80904761D02*
X102732142Y-80952380D01*
X102970238Y-80952380D01*
X103065476Y-80904761D01*
X103113095Y-80857142D01*
X103160714Y-80761904D01*
X103160714Y-80666666D01*
X103113095Y-80571428D01*
X103065476Y-80523809D01*
X102970238Y-80476190D01*
X102779761Y-80428571D01*
X102684523Y-80380952D01*
X102636904Y-80333333D01*
X102589285Y-80238095D01*
X102589285Y-80142857D01*
X102636904Y-80047619D01*
X102684523Y-80000000D01*
X102779761Y-79952380D01*
X103017857Y-79952380D01*
X103160714Y-80000000D01*
X101696428Y-106077380D02*
X101363095Y-105601190D01*
X101125000Y-106077380D02*
X101125000Y-105077380D01*
X101505952Y-105077380D01*
X101601190Y-105125000D01*
X101648809Y-105172619D01*
X101696428Y-105267857D01*
X101696428Y-105410714D01*
X101648809Y-105505952D01*
X101601190Y-105553571D01*
X101505952Y-105601190D01*
X101125000Y-105601190D01*
X102125000Y-106077380D02*
X102125000Y-105077380D01*
X121994047Y-83702380D02*
X121994047Y-82702380D01*
X122470238Y-83702380D02*
X122470238Y-82702380D01*
X123041666Y-83702380D01*
X123041666Y-82702380D01*
X123375000Y-82702380D02*
X123946428Y-82702380D01*
X123660714Y-83702380D02*
X123660714Y-82702380D01*
X124803571Y-83702380D02*
X124232142Y-83702380D01*
X124517857Y-83702380D02*
X124517857Y-82702380D01*
X124422619Y-82845238D01*
X124327380Y-82940476D01*
X124232142Y-82988095D01*
X130744047Y-79702380D02*
X130744047Y-78702380D01*
X131220238Y-79702380D02*
X131220238Y-78702380D01*
X131791666Y-79702380D01*
X131791666Y-78702380D01*
X132125000Y-78702380D02*
X132696428Y-78702380D01*
X132410714Y-79702380D02*
X132410714Y-78702380D01*
X132982142Y-78797619D02*
X133029761Y-78750000D01*
X133125000Y-78702380D01*
X133363095Y-78702380D01*
X133458333Y-78750000D01*
X133505952Y-78797619D01*
X133553571Y-78892857D01*
X133553571Y-78988095D01*
X133505952Y-79130952D01*
X132934523Y-79702380D01*
X133553571Y-79702380D01*
X101113095Y-107077380D02*
X101684523Y-107077380D01*
X101398809Y-108077380D02*
X101398809Y-107077380D01*
X101922619Y-107077380D02*
X102589285Y-108077380D01*
X102589285Y-107077380D02*
X101922619Y-108077380D01*
%TO.C,U5*%
X115452380Y-115761904D02*
X116261904Y-115761904D01*
X116357142Y-115714285D01*
X116404761Y-115666666D01*
X116452380Y-115571428D01*
X116452380Y-115380952D01*
X116404761Y-115285714D01*
X116357142Y-115238095D01*
X116261904Y-115190476D01*
X115452380Y-115190476D01*
X115452380Y-114238095D02*
X115452380Y-114714285D01*
X115928571Y-114761904D01*
X115880952Y-114714285D01*
X115833333Y-114619047D01*
X115833333Y-114380952D01*
X115880952Y-114285714D01*
X115928571Y-114238095D01*
X116023809Y-114190476D01*
X116261904Y-114190476D01*
X116357142Y-114238095D01*
X116404761Y-114285714D01*
X116452380Y-114380952D01*
X116452380Y-114619047D01*
X116404761Y-114714285D01*
X116357142Y-114761904D01*
%TO.C,U3*%
X106238095Y-113074880D02*
X106238095Y-113884404D01*
X106285714Y-113979642D01*
X106333333Y-114027261D01*
X106428571Y-114074880D01*
X106619047Y-114074880D01*
X106714285Y-114027261D01*
X106761904Y-113979642D01*
X106809523Y-113884404D01*
X106809523Y-113074880D01*
X107190476Y-113074880D02*
X107809523Y-113074880D01*
X107476190Y-113455833D01*
X107619047Y-113455833D01*
X107714285Y-113503452D01*
X107761904Y-113551071D01*
X107809523Y-113646309D01*
X107809523Y-113884404D01*
X107761904Y-113979642D01*
X107714285Y-114027261D01*
X107619047Y-114074880D01*
X107333333Y-114074880D01*
X107238095Y-114027261D01*
X107190476Y-113979642D01*
%TO.C,J4*%
X128041666Y-104789880D02*
X128041666Y-105504166D01*
X127994047Y-105647023D01*
X127898809Y-105742261D01*
X127755952Y-105789880D01*
X127660714Y-105789880D01*
X128946428Y-105123214D02*
X128946428Y-105789880D01*
X128708333Y-104742261D02*
X128470238Y-105456547D01*
X129089285Y-105456547D01*
%TO.C,J6*%
X146541666Y-77452380D02*
X146541666Y-78166666D01*
X146494047Y-78309523D01*
X146398809Y-78404761D01*
X146255952Y-78452380D01*
X146160714Y-78452380D01*
X147446428Y-77452380D02*
X147255952Y-77452380D01*
X147160714Y-77500000D01*
X147113095Y-77547619D01*
X147017857Y-77690476D01*
X146970238Y-77880952D01*
X146970238Y-78261904D01*
X147017857Y-78357142D01*
X147065476Y-78404761D01*
X147160714Y-78452380D01*
X147351190Y-78452380D01*
X147446428Y-78404761D01*
X147494047Y-78357142D01*
X147541666Y-78261904D01*
X147541666Y-78023809D01*
X147494047Y-77928571D01*
X147446428Y-77880952D01*
X147351190Y-77833333D01*
X147160714Y-77833333D01*
X147065476Y-77880952D01*
X147017857Y-77928571D01*
X146970238Y-78023809D01*
%TO.C,J5*%
X147916666Y-98952380D02*
X147916666Y-99666666D01*
X147869047Y-99809523D01*
X147773809Y-99904761D01*
X147630952Y-99952380D01*
X147535714Y-99952380D01*
X148869047Y-98952380D02*
X148392857Y-98952380D01*
X148345238Y-99428571D01*
X148392857Y-99380952D01*
X148488095Y-99333333D01*
X148726190Y-99333333D01*
X148821428Y-99380952D01*
X148869047Y-99428571D01*
X148916666Y-99523809D01*
X148916666Y-99761904D01*
X148869047Y-99857142D01*
X148821428Y-99904761D01*
X148726190Y-99952380D01*
X148488095Y-99952380D01*
X148392857Y-99904761D01*
X148345238Y-99857142D01*
%TO.C,J7*%
X115432380Y-103583333D02*
X116146666Y-103583333D01*
X116289523Y-103630952D01*
X116384761Y-103726190D01*
X116432380Y-103869047D01*
X116432380Y-103964285D01*
X115432380Y-103202380D02*
X115432380Y-102535714D01*
X116432380Y-102964285D01*
%TO.C,C3*%
X124708333Y-88177142D02*
X124660714Y-88224761D01*
X124517857Y-88272380D01*
X124422619Y-88272380D01*
X124279761Y-88224761D01*
X124184523Y-88129523D01*
X124136904Y-88034285D01*
X124089285Y-87843809D01*
X124089285Y-87700952D01*
X124136904Y-87510476D01*
X124184523Y-87415238D01*
X124279761Y-87320000D01*
X124422619Y-87272380D01*
X124517857Y-87272380D01*
X124660714Y-87320000D01*
X124708333Y-87367619D01*
X125041666Y-87272380D02*
X125660714Y-87272380D01*
X125327380Y-87653333D01*
X125470238Y-87653333D01*
X125565476Y-87700952D01*
X125613095Y-87748571D01*
X125660714Y-87843809D01*
X125660714Y-88081904D01*
X125613095Y-88177142D01*
X125565476Y-88224761D01*
X125470238Y-88272380D01*
X125184523Y-88272380D01*
X125089285Y-88224761D01*
X125041666Y-88177142D01*
%TO.C,C5*%
X131708333Y-85107142D02*
X131660714Y-85154761D01*
X131517857Y-85202380D01*
X131422619Y-85202380D01*
X131279761Y-85154761D01*
X131184523Y-85059523D01*
X131136904Y-84964285D01*
X131089285Y-84773809D01*
X131089285Y-84630952D01*
X131136904Y-84440476D01*
X131184523Y-84345238D01*
X131279761Y-84250000D01*
X131422619Y-84202380D01*
X131517857Y-84202380D01*
X131660714Y-84250000D01*
X131708333Y-84297619D01*
X132613095Y-84202380D02*
X132136904Y-84202380D01*
X132089285Y-84678571D01*
X132136904Y-84630952D01*
X132232142Y-84583333D01*
X132470238Y-84583333D01*
X132565476Y-84630952D01*
X132613095Y-84678571D01*
X132660714Y-84773809D01*
X132660714Y-85011904D01*
X132613095Y-85107142D01*
X132565476Y-85154761D01*
X132470238Y-85202380D01*
X132232142Y-85202380D01*
X132136904Y-85154761D01*
X132089285Y-85107142D01*
%TO.C,R1*%
X111208333Y-96632380D02*
X110875000Y-96156190D01*
X110636904Y-96632380D02*
X110636904Y-95632380D01*
X111017857Y-95632380D01*
X111113095Y-95680000D01*
X111160714Y-95727619D01*
X111208333Y-95822857D01*
X111208333Y-95965714D01*
X111160714Y-96060952D01*
X111113095Y-96108571D01*
X111017857Y-96156190D01*
X110636904Y-96156190D01*
X112160714Y-96632380D02*
X111589285Y-96632380D01*
X111875000Y-96632380D02*
X111875000Y-95632380D01*
X111779761Y-95775238D01*
X111684523Y-95870476D01*
X111589285Y-95918095D01*
%TO.C,FB2*%
X124291666Y-103678571D02*
X123958333Y-103678571D01*
X123958333Y-104202380D02*
X123958333Y-103202380D01*
X124434523Y-103202380D01*
X125148809Y-103678571D02*
X125291666Y-103726190D01*
X125339285Y-103773809D01*
X125386904Y-103869047D01*
X125386904Y-104011904D01*
X125339285Y-104107142D01*
X125291666Y-104154761D01*
X125196428Y-104202380D01*
X124815476Y-104202380D01*
X124815476Y-103202380D01*
X125148809Y-103202380D01*
X125244047Y-103250000D01*
X125291666Y-103297619D01*
X125339285Y-103392857D01*
X125339285Y-103488095D01*
X125291666Y-103583333D01*
X125244047Y-103630952D01*
X125148809Y-103678571D01*
X124815476Y-103678571D01*
X125767857Y-103297619D02*
X125815476Y-103250000D01*
X125910714Y-103202380D01*
X126148809Y-103202380D01*
X126244047Y-103250000D01*
X126291666Y-103297619D01*
X126339285Y-103392857D01*
X126339285Y-103488095D01*
X126291666Y-103630952D01*
X125720238Y-104202380D01*
X126339285Y-104202380D01*
%TO.C,C6*%
X132708333Y-98357142D02*
X132660714Y-98404761D01*
X132517857Y-98452380D01*
X132422619Y-98452380D01*
X132279761Y-98404761D01*
X132184523Y-98309523D01*
X132136904Y-98214285D01*
X132089285Y-98023809D01*
X132089285Y-97880952D01*
X132136904Y-97690476D01*
X132184523Y-97595238D01*
X132279761Y-97500000D01*
X132422619Y-97452380D01*
X132517857Y-97452380D01*
X132660714Y-97500000D01*
X132708333Y-97547619D01*
X133565476Y-97452380D02*
X133375000Y-97452380D01*
X133279761Y-97500000D01*
X133232142Y-97547619D01*
X133136904Y-97690476D01*
X133089285Y-97880952D01*
X133089285Y-98261904D01*
X133136904Y-98357142D01*
X133184523Y-98404761D01*
X133279761Y-98452380D01*
X133470238Y-98452380D01*
X133565476Y-98404761D01*
X133613095Y-98357142D01*
X133660714Y-98261904D01*
X133660714Y-98023809D01*
X133613095Y-97928571D01*
X133565476Y-97880952D01*
X133470238Y-97833333D01*
X133279761Y-97833333D01*
X133184523Y-97880952D01*
X133136904Y-97928571D01*
X133089285Y-98023809D01*
%TO.C,U2*%
X127113095Y-78002380D02*
X127113095Y-78811904D01*
X127160714Y-78907142D01*
X127208333Y-78954761D01*
X127303571Y-79002380D01*
X127494047Y-79002380D01*
X127589285Y-78954761D01*
X127636904Y-78907142D01*
X127684523Y-78811904D01*
X127684523Y-78002380D01*
X128113095Y-78097619D02*
X128160714Y-78050000D01*
X128255952Y-78002380D01*
X128494047Y-78002380D01*
X128589285Y-78050000D01*
X128636904Y-78097619D01*
X128684523Y-78192857D01*
X128684523Y-78288095D01*
X128636904Y-78430952D01*
X128065476Y-79002380D01*
X128684523Y-79002380D01*
%TO.C,U4*%
X139077380Y-89511904D02*
X139886904Y-89511904D01*
X139982142Y-89464285D01*
X140029761Y-89416666D01*
X140077380Y-89321428D01*
X140077380Y-89130952D01*
X140029761Y-89035714D01*
X139982142Y-88988095D01*
X139886904Y-88940476D01*
X139077380Y-88940476D01*
X139410714Y-88035714D02*
X140077380Y-88035714D01*
X139029761Y-88273809D02*
X139744047Y-88511904D01*
X139744047Y-87892857D01*
%TO.C,R2*%
X111208333Y-91047380D02*
X110875000Y-90571190D01*
X110636904Y-91047380D02*
X110636904Y-90047380D01*
X111017857Y-90047380D01*
X111113095Y-90095000D01*
X111160714Y-90142619D01*
X111208333Y-90237857D01*
X111208333Y-90380714D01*
X111160714Y-90475952D01*
X111113095Y-90523571D01*
X111017857Y-90571190D01*
X110636904Y-90571190D01*
X111589285Y-90142619D02*
X111636904Y-90095000D01*
X111732142Y-90047380D01*
X111970238Y-90047380D01*
X112065476Y-90095000D01*
X112113095Y-90142619D01*
X112160714Y-90237857D01*
X112160714Y-90333095D01*
X112113095Y-90475952D01*
X111541666Y-91047380D01*
X112160714Y-91047380D01*
%TO.C,J1*%
X142827380Y-115833333D02*
X143541666Y-115833333D01*
X143684523Y-115880952D01*
X143779761Y-115976190D01*
X143827380Y-116119047D01*
X143827380Y-116214285D01*
X143827380Y-114833333D02*
X143827380Y-115404761D01*
X143827380Y-115119047D02*
X142827380Y-115119047D01*
X142970238Y-115214285D01*
X143065476Y-115309523D01*
X143113095Y-115404761D01*
%TO.C,C4*%
X131708333Y-83607142D02*
X131660714Y-83654761D01*
X131517857Y-83702380D01*
X131422619Y-83702380D01*
X131279761Y-83654761D01*
X131184523Y-83559523D01*
X131136904Y-83464285D01*
X131089285Y-83273809D01*
X131089285Y-83130952D01*
X131136904Y-82940476D01*
X131184523Y-82845238D01*
X131279761Y-82750000D01*
X131422619Y-82702380D01*
X131517857Y-82702380D01*
X131660714Y-82750000D01*
X131708333Y-82797619D01*
X132565476Y-83035714D02*
X132565476Y-83702380D01*
X132327380Y-82654761D02*
X132089285Y-83369047D01*
X132708333Y-83369047D01*
%TO.C,C8*%
X108982142Y-104666666D02*
X109029761Y-104714285D01*
X109077380Y-104857142D01*
X109077380Y-104952380D01*
X109029761Y-105095238D01*
X108934523Y-105190476D01*
X108839285Y-105238095D01*
X108648809Y-105285714D01*
X108505952Y-105285714D01*
X108315476Y-105238095D01*
X108220238Y-105190476D01*
X108125000Y-105095238D01*
X108077380Y-104952380D01*
X108077380Y-104857142D01*
X108125000Y-104714285D01*
X108172619Y-104666666D01*
X108505952Y-104095238D02*
X108458333Y-104190476D01*
X108410714Y-104238095D01*
X108315476Y-104285714D01*
X108267857Y-104285714D01*
X108172619Y-104238095D01*
X108125000Y-104190476D01*
X108077380Y-104095238D01*
X108077380Y-103904761D01*
X108125000Y-103809523D01*
X108172619Y-103761904D01*
X108267857Y-103714285D01*
X108315476Y-103714285D01*
X108410714Y-103761904D01*
X108458333Y-103809523D01*
X108505952Y-103904761D01*
X108505952Y-104095238D01*
X108553571Y-104190476D01*
X108601190Y-104238095D01*
X108696428Y-104285714D01*
X108886904Y-104285714D01*
X108982142Y-104238095D01*
X109029761Y-104190476D01*
X109077380Y-104095238D01*
X109077380Y-103904761D01*
X109029761Y-103809523D01*
X108982142Y-103761904D01*
X108886904Y-103714285D01*
X108696428Y-103714285D01*
X108601190Y-103761904D01*
X108553571Y-103809523D01*
X108505952Y-103904761D01*
%TO.C,D2*%
X114136904Y-91052380D02*
X114136904Y-90052380D01*
X114375000Y-90052380D01*
X114517857Y-90100000D01*
X114613095Y-90195238D01*
X114660714Y-90290476D01*
X114708333Y-90480952D01*
X114708333Y-90623809D01*
X114660714Y-90814285D01*
X114613095Y-90909523D01*
X114517857Y-91004761D01*
X114375000Y-91052380D01*
X114136904Y-91052380D01*
X115089285Y-90147619D02*
X115136904Y-90100000D01*
X115232142Y-90052380D01*
X115470238Y-90052380D01*
X115565476Y-90100000D01*
X115613095Y-90147619D01*
X115660714Y-90242857D01*
X115660714Y-90338095D01*
X115613095Y-90480952D01*
X115041666Y-91052380D01*
X115660714Y-91052380D01*
%TO.C,C7*%
X116208333Y-106607142D02*
X116160714Y-106654761D01*
X116017857Y-106702380D01*
X115922619Y-106702380D01*
X115779761Y-106654761D01*
X115684523Y-106559523D01*
X115636904Y-106464285D01*
X115589285Y-106273809D01*
X115589285Y-106130952D01*
X115636904Y-105940476D01*
X115684523Y-105845238D01*
X115779761Y-105750000D01*
X115922619Y-105702380D01*
X116017857Y-105702380D01*
X116160714Y-105750000D01*
X116208333Y-105797619D01*
X116541666Y-105702380D02*
X117208333Y-105702380D01*
X116779761Y-106702380D01*
%TO.C,C1*%
X118708333Y-98107142D02*
X118660714Y-98154761D01*
X118517857Y-98202380D01*
X118422619Y-98202380D01*
X118279761Y-98154761D01*
X118184523Y-98059523D01*
X118136904Y-97964285D01*
X118089285Y-97773809D01*
X118089285Y-97630952D01*
X118136904Y-97440476D01*
X118184523Y-97345238D01*
X118279761Y-97250000D01*
X118422619Y-97202380D01*
X118517857Y-97202380D01*
X118660714Y-97250000D01*
X118708333Y-97297619D01*
X119660714Y-98202380D02*
X119089285Y-98202380D01*
X119375000Y-98202380D02*
X119375000Y-97202380D01*
X119279761Y-97345238D01*
X119184523Y-97440476D01*
X119089285Y-97488095D01*
%TO.C,J3*%
X119541666Y-105702380D02*
X119541666Y-106416666D01*
X119494047Y-106559523D01*
X119398809Y-106654761D01*
X119255952Y-106702380D01*
X119160714Y-106702380D01*
X119922619Y-105702380D02*
X120541666Y-105702380D01*
X120208333Y-106083333D01*
X120351190Y-106083333D01*
X120446428Y-106130952D01*
X120494047Y-106178571D01*
X120541666Y-106273809D01*
X120541666Y-106511904D01*
X120494047Y-106607142D01*
X120446428Y-106654761D01*
X120351190Y-106702380D01*
X120065476Y-106702380D01*
X119970238Y-106654761D01*
X119922619Y-106607142D01*
%TO.C,U1*%
X125363095Y-96452380D02*
X125363095Y-97261904D01*
X125410714Y-97357142D01*
X125458333Y-97404761D01*
X125553571Y-97452380D01*
X125744047Y-97452380D01*
X125839285Y-97404761D01*
X125886904Y-97357142D01*
X125934523Y-97261904D01*
X125934523Y-96452380D01*
X126934523Y-97452380D02*
X126363095Y-97452380D01*
X126648809Y-97452380D02*
X126648809Y-96452380D01*
X126553571Y-96595238D01*
X126458333Y-96690476D01*
X126363095Y-96738095D01*
%TO.C,D3*%
X122277380Y-105850595D02*
X121277380Y-105850595D01*
X121277380Y-105612500D01*
X121325000Y-105469642D01*
X121420238Y-105374404D01*
X121515476Y-105326785D01*
X121705952Y-105279166D01*
X121848809Y-105279166D01*
X122039285Y-105326785D01*
X122134523Y-105374404D01*
X122229761Y-105469642D01*
X122277380Y-105612500D01*
X122277380Y-105850595D01*
X121277380Y-104945833D02*
X121277380Y-104326785D01*
X121658333Y-104660119D01*
X121658333Y-104517261D01*
X121705952Y-104422023D01*
X121753571Y-104374404D01*
X121848809Y-104326785D01*
X122086904Y-104326785D01*
X122182142Y-104374404D01*
X122229761Y-104422023D01*
X122277380Y-104517261D01*
X122277380Y-104802976D01*
X122229761Y-104898214D01*
X122182142Y-104945833D01*
%TO.C,D1*%
X113886904Y-96952380D02*
X113886904Y-95952380D01*
X114125000Y-95952380D01*
X114267857Y-96000000D01*
X114363095Y-96095238D01*
X114410714Y-96190476D01*
X114458333Y-96380952D01*
X114458333Y-96523809D01*
X114410714Y-96714285D01*
X114363095Y-96809523D01*
X114267857Y-96904761D01*
X114125000Y-96952380D01*
X113886904Y-96952380D01*
X115410714Y-96952380D02*
X114839285Y-96952380D01*
X115125000Y-96952380D02*
X115125000Y-95952380D01*
X115029761Y-96095238D01*
X114934523Y-96190476D01*
X114839285Y-96238095D01*
%TO.C,C2*%
X121708333Y-88177142D02*
X121660714Y-88224761D01*
X121517857Y-88272380D01*
X121422619Y-88272380D01*
X121279761Y-88224761D01*
X121184523Y-88129523D01*
X121136904Y-88034285D01*
X121089285Y-87843809D01*
X121089285Y-87700952D01*
X121136904Y-87510476D01*
X121184523Y-87415238D01*
X121279761Y-87320000D01*
X121422619Y-87272380D01*
X121517857Y-87272380D01*
X121660714Y-87320000D01*
X121708333Y-87367619D01*
X122089285Y-87367619D02*
X122136904Y-87320000D01*
X122232142Y-87272380D01*
X122470238Y-87272380D01*
X122565476Y-87320000D01*
X122613095Y-87367619D01*
X122660714Y-87462857D01*
X122660714Y-87558095D01*
X122613095Y-87700952D01*
X122041666Y-88272380D01*
X122660714Y-88272380D01*
%TO.C,J2*%
X119582380Y-86163333D02*
X120296666Y-86163333D01*
X120439523Y-86210952D01*
X120534761Y-86306190D01*
X120582380Y-86449047D01*
X120582380Y-86544285D01*
X119677619Y-85734761D02*
X119630000Y-85687142D01*
X119582380Y-85591904D01*
X119582380Y-85353809D01*
X119630000Y-85258571D01*
X119677619Y-85210952D01*
X119772857Y-85163333D01*
X119868095Y-85163333D01*
X120010952Y-85210952D01*
X120582380Y-85782380D01*
X120582380Y-85163333D01*
%TO.C,FB1*%
X120541666Y-100608571D02*
X120208333Y-100608571D01*
X120208333Y-101132380D02*
X120208333Y-100132380D01*
X120684523Y-100132380D01*
X121398809Y-100608571D02*
X121541666Y-100656190D01*
X121589285Y-100703809D01*
X121636904Y-100799047D01*
X121636904Y-100941904D01*
X121589285Y-101037142D01*
X121541666Y-101084761D01*
X121446428Y-101132380D01*
X121065476Y-101132380D01*
X121065476Y-100132380D01*
X121398809Y-100132380D01*
X121494047Y-100180000D01*
X121541666Y-100227619D01*
X121589285Y-100322857D01*
X121589285Y-100418095D01*
X121541666Y-100513333D01*
X121494047Y-100560952D01*
X121398809Y-100608571D01*
X121065476Y-100608571D01*
X122589285Y-101132380D02*
X122017857Y-101132380D01*
X122303571Y-101132380D02*
X122303571Y-100132380D01*
X122208333Y-100275238D01*
X122113095Y-100370476D01*
X122017857Y-100418095D01*
D11*
%TO.C,U5*%
X109465000Y-109862500D02*
X109465000Y-113622500D01*
X109465000Y-113622500D02*
X110725000Y-113622500D01*
X116285000Y-107612500D02*
X116285000Y-113622500D01*
X116285000Y-113622500D02*
X115025000Y-113622500D01*
%TO.C,U3*%
X104165000Y-98015000D02*
X104165000Y-112485000D01*
X104675000Y-105250000D02*
X104675000Y-98525000D01*
X104675000Y-105250000D02*
X104675000Y-111975000D01*
X105425000Y-112175000D02*
X106225000Y-112175000D01*
X107585000Y-112485000D02*
X107585000Y-98015000D01*
X103875000Y-97725000D02*
X104875000Y-97725000D01*
X106225000Y-98525000D02*
X107075000Y-98525000D01*
X106225000Y-111975000D02*
X107075000Y-111975000D01*
X107585000Y-98015000D02*
X104165000Y-98015000D01*
X107075000Y-111975000D02*
X107075000Y-105250000D01*
X105425000Y-98325000D02*
X106225000Y-98325000D01*
X106225000Y-112175000D02*
X106225000Y-111975000D01*
X104165000Y-112485000D02*
X107585000Y-112485000D01*
X105425000Y-111975000D02*
X105425000Y-112175000D01*
X106225000Y-98325000D02*
X106225000Y-98525000D01*
X104675000Y-98525000D02*
X105425000Y-98525000D01*
X107075000Y-98525000D02*
X107075000Y-105250000D01*
X104675000Y-111975000D02*
X105425000Y-111975000D01*
X105425000Y-98525000D02*
X105425000Y-98325000D01*
X103875000Y-97725000D02*
X103875000Y-98725000D01*
%TO.C,J4*%
X126325000Y-106537500D02*
X127025000Y-106537500D01*
X132335000Y-116597500D02*
X132335000Y-114937500D01*
X132335000Y-109437500D02*
X132335000Y-112037500D01*
X124415000Y-114937500D02*
X124415000Y-116597500D01*
X126325000Y-107127500D02*
X126325000Y-106537500D01*
X124415000Y-112037500D02*
X124415000Y-109437500D01*
X125175000Y-107127500D02*
X126325000Y-107127500D01*
X124415000Y-116597500D02*
X132335000Y-116597500D01*
X130425000Y-107127500D02*
X131575000Y-107127500D01*
%TO.C,J6*%
X148825000Y-76210000D02*
X147715000Y-76210000D01*
X146625000Y-77260000D02*
X147125000Y-77260000D01*
X146035000Y-72500000D02*
X144925000Y-72500000D01*
X146875000Y-76760000D02*
X146625000Y-77260000D01*
X147125000Y-77260000D02*
X146875000Y-76760000D01*
X148825000Y-72500000D02*
X147715000Y-72500000D01*
X146035000Y-76210000D02*
X144925000Y-76210000D01*
%TO.C,J5*%
X145100000Y-103080000D02*
X143770000Y-103080000D01*
X148970000Y-103080000D02*
X148970000Y-100420000D01*
X146370000Y-103080000D02*
X148970000Y-103080000D01*
X146370000Y-103080000D02*
X146370000Y-100420000D01*
X143770000Y-103080000D02*
X143770000Y-101750000D01*
X146370000Y-100420000D02*
X148970000Y-100420000D01*
%TO.C,J7*%
X113650000Y-101920000D02*
X114980000Y-101920000D01*
X109780000Y-101920000D02*
X109780000Y-104580000D01*
X112380000Y-101920000D02*
X109780000Y-101920000D01*
X112380000Y-101920000D02*
X112380000Y-104580000D01*
X114980000Y-101920000D02*
X114980000Y-103250000D01*
X112380000Y-104580000D02*
X109780000Y-104580000D01*
%TO.C,C3*%
X124734420Y-89760000D02*
X125015580Y-89760000D01*
X124734420Y-88740000D02*
X125015580Y-88740000D01*
%TO.C,C5*%
X129234420Y-85260000D02*
X129515580Y-85260000D01*
X129234420Y-84240000D02*
X129515580Y-84240000D01*
%TO.C,R1*%
X111612258Y-94227500D02*
X111137742Y-94227500D01*
X111612258Y-95272500D02*
X111137742Y-95272500D01*
%TO.C,FB2*%
X125537779Y-104602500D02*
X125212221Y-104602500D01*
X125537779Y-105622500D02*
X125212221Y-105622500D01*
%TO.C,C6*%
X132365000Y-95609420D02*
X132365000Y-95890580D01*
X133385000Y-95609420D02*
X133385000Y-95890580D01*
%TO.C,U2*%
X129485000Y-79390000D02*
X129485000Y-79540000D01*
X129485000Y-82110000D02*
X129485000Y-81960000D01*
X128835000Y-82110000D02*
X129485000Y-82110000D01*
X126915000Y-82110000D02*
X126265000Y-82110000D01*
X126915000Y-79390000D02*
X126265000Y-79390000D01*
X126265000Y-82110000D02*
X126265000Y-81960000D01*
X128835000Y-79390000D02*
X129485000Y-79390000D01*
%TO.C,R2*%
X111137742Y-92547500D02*
X111612258Y-92547500D01*
X111137742Y-91502500D02*
X111612258Y-91502500D01*
%TO.C,J1*%
X137375000Y-117100000D02*
X137375000Y-113750000D01*
X142375000Y-104400000D02*
X137375000Y-104400000D01*
X143875000Y-111750000D02*
X143875000Y-109750000D01*
X142375000Y-104400000D02*
X142375000Y-107750000D01*
X137375000Y-117100000D02*
X142375000Y-117100000D01*
X137375000Y-104400000D02*
X137375000Y-107750000D01*
X142375000Y-117100000D02*
X142375000Y-113750000D01*
%TO.C,C4*%
X129234420Y-83760000D02*
X129515580Y-83760000D01*
X129234420Y-82740000D02*
X129515580Y-82740000D01*
%TO.C,C8*%
X110459420Y-106760000D02*
X110740580Y-106760000D01*
X110459420Y-105740000D02*
X110740580Y-105740000D01*
%TO.C,D2*%
X113190000Y-93210000D02*
X115875000Y-93210000D01*
X113190000Y-91290000D02*
X113190000Y-93210000D01*
X115875000Y-91290000D02*
X113190000Y-91290000D01*
%TO.C,C7*%
X113684420Y-106760000D02*
X113965580Y-106760000D01*
X113684420Y-105740000D02*
X113965580Y-105740000D01*
%TO.C,C1*%
X121234420Y-98260000D02*
X121515580Y-98260000D01*
X121234420Y-97240000D02*
X121515580Y-97240000D01*
%TO.C,J3*%
X118545000Y-108837500D02*
X118545000Y-107507500D01*
X118545000Y-112707500D02*
X121205000Y-112707500D01*
X118545000Y-110107500D02*
X118545000Y-112707500D01*
X118545000Y-110107500D02*
X121205000Y-110107500D01*
X118545000Y-107507500D02*
X119875000Y-107507500D01*
X121205000Y-110107500D02*
X121205000Y-112707500D01*
%TO.C,U1*%
X121065000Y-96060000D02*
X121065000Y-95585000D01*
X125810000Y-90840000D02*
X126285000Y-90840000D01*
X125810000Y-96060000D02*
X126285000Y-96060000D01*
X126285000Y-90840000D02*
X126285000Y-91315000D01*
X121540000Y-96060000D02*
X121065000Y-96060000D01*
X126285000Y-96060000D02*
X126285000Y-95585000D01*
X121540000Y-90840000D02*
X121065000Y-90840000D01*
D12*
%TO.C,D3*%
X122925000Y-105972500D02*
G75*
G03*
X122925000Y-105972500I-50000J0D01*
G01*
D11*
%TO.C,D1*%
X113190000Y-95710000D02*
X115875000Y-95710000D01*
X113190000Y-93790000D02*
X113190000Y-95710000D01*
X115875000Y-93790000D02*
X113190000Y-93790000D01*
%TO.C,C2*%
X121734420Y-89760000D02*
X122015580Y-89760000D01*
X121734420Y-88740000D02*
X122015580Y-88740000D01*
%TO.C,J2*%
X118999700Y-73509359D02*
X118999700Y-73028400D01*
X118999700Y-88471600D02*
X118999700Y-76079839D01*
X104750300Y-75079838D02*
X104750300Y-88471600D01*
X104750300Y-88471600D02*
X110144560Y-88471600D01*
X118999700Y-73028400D02*
X106306241Y-73028400D01*
X117805440Y-88471600D02*
X118999700Y-88471600D01*
X112105440Y-88471600D02*
X114607024Y-88471600D01*
%TO.C,FB1*%
X121537779Y-98740000D02*
X121212221Y-98740000D01*
X121537779Y-99760000D02*
X121212221Y-99760000D01*
%TD*%
M02*
