%TF.GenerationSoftware,KiCad,Pcbnew,(6.0.1)*%
%TF.CreationDate,2022-05-25T14:38:50-05:00*%
%TF.ProjectId,aatr-sensor,61617472-2d73-4656-9e73-6f722e6b6963,1*%
%TF.SameCoordinates,Original*%
%TF.FileFunction,Soldermask,Top*%
%TF.FilePolarity,Negative*%
%FSLAX46Y46*%
G04 Gerber Fmt 4.6, Leading zero omitted, Abs format (unit mm)*
G04 Created by KiCad (PCBNEW (6.0.1)) date 2022-05-25 14:38:50*
%MOMM*%
%LPD*%
G01*
G04 APERTURE LIST*
G04 Aperture macros list*
%AMRoundRect*
0 Rectangle with rounded corners*
0 $1 Rounding radius*
0 $2 $3 $4 $5 $6 $7 $8 $9 X,Y pos of 4 corners*
0 Add a 4 corners polygon primitive as box body*
4,1,4,$2,$3,$4,$5,$6,$7,$8,$9,$2,$3,0*
0 Add four circle primitives for the rounded corners*
1,1,$1+$1,$2,$3*
1,1,$1+$1,$4,$5*
1,1,$1+$1,$6,$7*
1,1,$1+$1,$8,$9*
0 Add four rect primitives between the rounded corners*
20,1,$1+$1,$2,$3,$4,$5,0*
20,1,$1+$1,$4,$5,$6,$7,0*
20,1,$1+$1,$6,$7,$8,$9,0*
20,1,$1+$1,$8,$9,$2,$3,0*%
%AMFreePoly0*
4,1,48,0.036020,0.199191,0.037970,0.199714,0.040958,0.198321,0.057086,0.195477,0.069630,0.184951,0.084467,0.178033,0.290533,-0.028033,0.293203,-0.031847,0.294953,-0.032857,0.296081,-0.035957,0.305473,-0.049370,0.306900,-0.065680,0.312500,-0.081066,0.312500,-0.125000,0.310782,-0.134742,0.311361,-0.138024,0.309695,-0.140910,0.307977,-0.150652,0.295451,-0.165579,0.285709,-0.182453,
0.279350,-0.184767,0.275000,-0.189952,0.255809,-0.193336,0.237500,-0.200000,-0.237500,-0.200000,-0.247242,-0.198282,-0.250524,-0.198861,-0.253410,-0.197195,-0.263152,-0.195477,-0.278079,-0.182951,-0.294953,-0.173209,-0.297267,-0.166850,-0.302452,-0.162500,-0.305836,-0.143309,-0.312500,-0.125000,-0.312500,0.125000,-0.310782,0.134742,-0.311361,0.138024,-0.309695,0.140910,-0.307977,0.150652,
-0.295451,0.165579,-0.285709,0.182453,-0.279350,0.184767,-0.275000,0.189952,-0.255809,0.193336,-0.237500,0.200000,0.031434,0.200000,0.036020,0.199191,0.036020,0.199191,$1*%
%AMFreePoly1*
4,1,48,0.247242,0.198282,0.250524,0.198861,0.253410,0.197195,0.263152,0.195477,0.278079,0.182951,0.294953,0.173209,0.297267,0.166850,0.302452,0.162500,0.305836,0.143309,0.312500,0.125000,0.312500,0.081066,0.311691,0.076480,0.312214,0.074529,0.310820,0.071540,0.307977,0.055414,0.297452,0.042871,0.290533,0.028033,0.084467,-0.178033,0.080653,-0.180703,0.079643,-0.182453,
0.076543,-0.183581,0.063130,-0.192973,0.046819,-0.194400,0.031434,-0.200000,-0.237500,-0.200000,-0.247242,-0.198282,-0.250524,-0.198861,-0.253410,-0.197195,-0.263152,-0.195477,-0.278079,-0.182951,-0.294953,-0.173209,-0.297267,-0.166850,-0.302452,-0.162500,-0.305836,-0.143309,-0.312500,-0.125000,-0.312500,0.125000,-0.310782,0.134742,-0.311361,0.138024,-0.309695,0.140910,-0.307977,0.150652,
-0.295451,0.165579,-0.285709,0.182453,-0.279350,0.184767,-0.275000,0.189952,-0.255809,0.193336,-0.237500,0.200000,0.237500,0.200000,0.247242,0.198282,0.247242,0.198282,$1*%
%AMFreePoly2*
4,1,48,0.134742,0.310782,0.138024,0.311361,0.140910,0.309695,0.150652,0.307977,0.165579,0.295451,0.182453,0.285709,0.184767,0.279350,0.189952,0.275000,0.193336,0.255809,0.200000,0.237500,0.200000,-0.237500,0.198282,-0.247242,0.198861,-0.250524,0.197195,-0.253410,0.195477,-0.263152,0.182951,-0.278079,0.173209,-0.294953,0.166850,-0.297267,0.162500,-0.302452,0.143309,-0.305836,
0.125000,-0.312500,-0.125000,-0.312500,-0.134742,-0.310782,-0.138024,-0.311361,-0.140910,-0.309695,-0.150652,-0.307977,-0.165579,-0.295451,-0.182453,-0.285709,-0.184767,-0.279350,-0.189952,-0.275000,-0.193336,-0.255809,-0.200000,-0.237500,-0.200000,0.031434,-0.199191,0.036020,-0.199714,0.037970,-0.198321,0.040958,-0.195477,0.057086,-0.184951,0.069630,-0.178033,0.084467,0.028033,0.290533,
0.031847,0.293203,0.032857,0.294953,0.035957,0.296081,0.049370,0.305473,0.065680,0.306900,0.081066,0.312500,0.125000,0.312500,0.134742,0.310782,0.134742,0.310782,$1*%
%AMFreePoly3*
4,1,48,-0.076480,0.311691,-0.074530,0.312214,-0.071542,0.310821,-0.055414,0.307977,-0.042870,0.297451,-0.028033,0.290533,0.178033,0.084467,0.180703,0.080653,0.182453,0.079643,0.183581,0.076543,0.192973,0.063130,0.194400,0.046820,0.200000,0.031434,0.200000,-0.237500,0.198282,-0.247242,0.198861,-0.250524,0.197195,-0.253410,0.195477,-0.263152,0.182951,-0.278079,0.173209,-0.294953,
0.166850,-0.297267,0.162500,-0.302452,0.143309,-0.305836,0.125000,-0.312500,-0.125000,-0.312500,-0.134742,-0.310782,-0.138024,-0.311361,-0.140910,-0.309695,-0.150652,-0.307977,-0.165579,-0.295451,-0.182453,-0.285709,-0.184767,-0.279350,-0.189952,-0.275000,-0.193336,-0.255809,-0.200000,-0.237500,-0.200000,0.237500,-0.198282,0.247242,-0.198861,0.250524,-0.197195,0.253410,-0.195477,0.263152,
-0.182951,0.278079,-0.173209,0.294953,-0.166850,0.297267,-0.162500,0.302452,-0.143309,0.305836,-0.125000,0.312500,-0.081066,0.312500,-0.076480,0.311691,-0.076480,0.311691,$1*%
%AMFreePoly4*
4,1,48,0.247242,0.198282,0.250524,0.198861,0.253410,0.197195,0.263152,0.195477,0.278079,0.182951,0.294953,0.173209,0.297267,0.166850,0.302452,0.162500,0.305836,0.143309,0.312500,0.125000,0.312500,-0.125000,0.310782,-0.134742,0.311361,-0.138024,0.309695,-0.140910,0.307977,-0.150652,0.295451,-0.165579,0.285709,-0.182453,0.279350,-0.184767,0.275000,-0.189952,0.255809,-0.193336,
0.237500,-0.200000,-0.031434,-0.200000,-0.036020,-0.199191,-0.037971,-0.199714,-0.040960,-0.198320,-0.057086,-0.195477,-0.069629,-0.184952,-0.084467,-0.178033,-0.290533,0.028033,-0.293203,0.031847,-0.294953,0.032857,-0.296081,0.035957,-0.305473,0.049370,-0.306900,0.065681,-0.312500,0.081066,-0.312500,0.125000,-0.310782,0.134742,-0.311361,0.138024,-0.309695,0.140910,-0.307977,0.150652,
-0.295451,0.165579,-0.285709,0.182453,-0.279350,0.184767,-0.275000,0.189952,-0.255809,0.193336,-0.237500,0.200000,0.237500,0.200000,0.247242,0.198282,0.247242,0.198282,$1*%
%AMFreePoly5*
4,1,48,0.247242,0.198282,0.250524,0.198861,0.253410,0.197195,0.263152,0.195477,0.278079,0.182951,0.294953,0.173209,0.297267,0.166850,0.302452,0.162500,0.305836,0.143309,0.312500,0.125000,0.312500,-0.125000,0.310782,-0.134742,0.311361,-0.138024,0.309695,-0.140910,0.307977,-0.150652,0.295451,-0.165579,0.285709,-0.182453,0.279350,-0.184767,0.275000,-0.189952,0.255809,-0.193336,
0.237500,-0.200000,-0.237500,-0.200000,-0.247242,-0.198282,-0.250524,-0.198861,-0.253410,-0.197195,-0.263152,-0.195477,-0.278079,-0.182951,-0.294953,-0.173209,-0.297267,-0.166850,-0.302452,-0.162500,-0.305836,-0.143309,-0.312500,-0.125000,-0.312500,-0.081066,-0.311691,-0.076480,-0.312214,-0.074530,-0.310821,-0.071542,-0.307977,-0.055414,-0.297451,-0.042870,-0.290533,-0.028033,-0.084467,0.178033,
-0.080653,0.180703,-0.079643,0.182453,-0.076543,0.183581,-0.063130,0.192973,-0.046820,0.194400,-0.031434,0.200000,0.237500,0.200000,0.247242,0.198282,0.247242,0.198282,$1*%
%AMFreePoly6*
4,1,48,0.134742,0.310782,0.138024,0.311361,0.140910,0.309695,0.150652,0.307977,0.165579,0.295451,0.182453,0.285709,0.184767,0.279350,0.189952,0.275000,0.193336,0.255809,0.200000,0.237500,0.200000,-0.031434,0.199191,-0.036020,0.199714,-0.037971,0.198320,-0.040960,0.195477,-0.057086,0.184952,-0.069629,0.178033,-0.084467,-0.028033,-0.290533,-0.031847,-0.293203,-0.032857,-0.294953,
-0.035957,-0.296081,-0.049370,-0.305473,-0.065681,-0.306900,-0.081066,-0.312500,-0.125000,-0.312500,-0.134742,-0.310782,-0.138024,-0.311361,-0.140910,-0.309695,-0.150652,-0.307977,-0.165579,-0.295451,-0.182453,-0.285709,-0.184767,-0.279350,-0.189952,-0.275000,-0.193336,-0.255809,-0.200000,-0.237500,-0.200000,0.237500,-0.198282,0.247242,-0.198861,0.250524,-0.197195,0.253410,-0.195477,0.263152,
-0.182951,0.278079,-0.173209,0.294953,-0.166850,0.297267,-0.162500,0.302452,-0.143309,0.305836,-0.125000,0.312500,0.125000,0.312500,0.134742,0.310782,0.134742,0.310782,$1*%
%AMFreePoly7*
4,1,48,0.134742,0.310782,0.138024,0.311361,0.140910,0.309695,0.150652,0.307977,0.165579,0.295451,0.182453,0.285709,0.184767,0.279350,0.189952,0.275000,0.193336,0.255809,0.200000,0.237500,0.200000,-0.237500,0.198282,-0.247242,0.198861,-0.250524,0.197195,-0.253410,0.195477,-0.263152,0.182951,-0.278079,0.173209,-0.294953,0.166850,-0.297267,0.162500,-0.302452,0.143309,-0.305836,
0.125000,-0.312500,0.081066,-0.312500,0.076480,-0.311691,0.074529,-0.312214,0.071540,-0.310820,0.055414,-0.307977,0.042871,-0.297452,0.028033,-0.290533,-0.178033,-0.084467,-0.180703,-0.080653,-0.182453,-0.079643,-0.183581,-0.076543,-0.192973,-0.063130,-0.194400,-0.046819,-0.200000,-0.031434,-0.200000,0.237500,-0.198282,0.247242,-0.198861,0.250524,-0.197195,0.253410,-0.195477,0.263152,
-0.182951,0.278079,-0.173209,0.294953,-0.166850,0.297267,-0.162500,0.302452,-0.143309,0.305836,-0.125000,0.312500,0.125000,0.312500,0.134742,0.310782,0.134742,0.310782,$1*%
G04 Aperture macros list end*
%ADD10R,0.600000X2.200000*%
%ADD11R,3.450000X2.150000*%
%ADD12RoundRect,0.200000X-0.450000X0.200000X-0.450000X-0.200000X0.450000X-0.200000X0.450000X0.200000X0*%
%ADD13O,1.300000X0.800000*%
%ADD14C,0.900000*%
%ADD15R,0.500000X2.500000*%
%ADD16R,2.000000X2.500000*%
%ADD17R,1.270000X3.600000*%
%ADD18R,1.350000X4.200000*%
%ADD19R,1.700000X1.700000*%
%ADD20O,1.700000X1.700000*%
%ADD21RoundRect,0.237500X-0.987500X-0.237500X0.987500X-0.237500X0.987500X0.237500X-0.987500X0.237500X0*%
%ADD22RoundRect,0.237500X-0.237500X0.987500X-0.237500X-0.987500X0.237500X-0.987500X0.237500X0.987500X0*%
%ADD23RoundRect,0.225000X-0.225000X-0.250000X0.225000X-0.250000X0.225000X0.250000X-0.225000X0.250000X0*%
%ADD24RoundRect,0.200000X0.200000X0.275000X-0.200000X0.275000X-0.200000X-0.275000X0.200000X-0.275000X0*%
%ADD25RoundRect,0.218750X0.218750X0.256250X-0.218750X0.256250X-0.218750X-0.256250X0.218750X-0.256250X0*%
%ADD26RoundRect,0.225000X-0.250000X0.225000X-0.250000X-0.225000X0.250000X-0.225000X0.250000X0.225000X0*%
%ADD27FreePoly0,0.000000*%
%ADD28RoundRect,0.100000X-0.212500X-0.100000X0.212500X-0.100000X0.212500X0.100000X-0.212500X0.100000X0*%
%ADD29FreePoly1,0.000000*%
%ADD30FreePoly2,0.000000*%
%ADD31RoundRect,0.100000X-0.100000X-0.212500X0.100000X-0.212500X0.100000X0.212500X-0.100000X0.212500X0*%
%ADD32FreePoly3,0.000000*%
%ADD33FreePoly4,0.000000*%
%ADD34FreePoly5,0.000000*%
%ADD35FreePoly6,0.000000*%
%ADD36FreePoly7,0.000000*%
%ADD37C,1.200000*%
%ADD38R,1.000000X2.000000*%
%ADD39RoundRect,0.237500X0.237500X-0.987500X0.237500X0.987500X-0.237500X0.987500X-0.237500X-0.987500X0*%
%ADD40RoundRect,0.237500X0.987500X0.237500X-0.987500X0.237500X-0.987500X-0.237500X0.987500X-0.237500X0*%
%ADD41RoundRect,0.200000X-0.200000X-0.275000X0.200000X-0.275000X0.200000X0.275000X-0.200000X0.275000X0*%
%ADD42R,2.770000X0.650000*%
%ADD43RoundRect,0.243750X-0.243750X-0.456250X0.243750X-0.456250X0.243750X0.456250X-0.243750X0.456250X0*%
%ADD44RoundRect,0.062500X-0.337500X-0.062500X0.337500X-0.062500X0.337500X0.062500X-0.337500X0.062500X0*%
%ADD45RoundRect,0.062500X-0.062500X-0.337500X0.062500X-0.337500X0.062500X0.337500X-0.062500X0.337500X0*%
%ADD46R,3.600000X3.600000*%
%ADD47RoundRect,0.100000X0.100000X-0.130000X0.100000X0.130000X-0.100000X0.130000X-0.100000X-0.130000X0*%
%ADD48R,0.812800X1.498600*%
%ADD49R,0.990600X0.939800*%
%ADD50R,1.397000X1.905000*%
%ADD51R,1.295400X1.397000*%
G04 APERTURE END LIST*
D10*
%TO.C,U5*%
X115415000Y-108612500D03*
X114145000Y-108612500D03*
X112875000Y-108612500D03*
X111605000Y-108612500D03*
X110335000Y-108612500D03*
D11*
X112875000Y-114912500D03*
%TD*%
D12*
%TO.C,U3*%
X105425000Y-99625000D03*
D13*
X105425000Y-100875000D03*
X105425000Y-102125000D03*
X105425000Y-103375000D03*
X105425000Y-104625000D03*
X105425000Y-105875000D03*
X105425000Y-107125000D03*
X105425000Y-108375000D03*
X105425000Y-109625000D03*
X105425000Y-110875000D03*
%TD*%
D14*
%TO.C,J4*%
X130575000Y-110587500D03*
X126175000Y-110587500D03*
D15*
X126775000Y-107987500D03*
X127575000Y-107987500D03*
X128375000Y-107987500D03*
X129175000Y-107987500D03*
X129975000Y-107987500D03*
D16*
X132775000Y-113487500D03*
X132775000Y-107987500D03*
X123975000Y-107987500D03*
X123975000Y-113487500D03*
%TD*%
D17*
%TO.C,J6*%
X146875000Y-74300000D03*
D18*
X144050000Y-74500000D03*
X149700000Y-74500000D03*
%TD*%
D19*
%TO.C,J5*%
X145100000Y-101750000D03*
D20*
X147640000Y-101750000D03*
%TD*%
D21*
%TO.C,TP21*%
X99375000Y-103625000D03*
%TD*%
D19*
%TO.C,J7*%
X113650000Y-103250000D03*
D20*
X111110000Y-103250000D03*
%TD*%
D22*
%TO.C,TP4*%
X139875000Y-75250000D03*
%TD*%
D23*
%TO.C,C3*%
X124100000Y-89250000D03*
X125650000Y-89250000D03*
%TD*%
D21*
%TO.C,TP20*%
X130875000Y-90500000D03*
%TD*%
D23*
%TO.C,C5*%
X128600000Y-84750000D03*
X130150000Y-84750000D03*
%TD*%
D21*
%TO.C,TP8*%
X99375000Y-99625000D03*
%TD*%
D24*
%TO.C,R1*%
X112200000Y-94750000D03*
X110550000Y-94750000D03*
%TD*%
D21*
%TO.C,TP16*%
X99625000Y-84500000D03*
%TD*%
%TO.C,TP7*%
X99375000Y-101625000D03*
%TD*%
%TO.C,TP19*%
X130875000Y-92750000D03*
%TD*%
D25*
%TO.C,FB2*%
X126162500Y-105112500D03*
X124587500Y-105112500D03*
%TD*%
D26*
%TO.C,C6*%
X132875000Y-94975000D03*
X132875000Y-96525000D03*
%TD*%
D27*
%TO.C,U2*%
X126712500Y-80000000D03*
D28*
X126712500Y-80500000D03*
X126712500Y-81000000D03*
D29*
X126712500Y-81500000D03*
D30*
X127375000Y-81662500D03*
D31*
X127875000Y-81662500D03*
D32*
X128375000Y-81662500D03*
D33*
X129037500Y-81500000D03*
D28*
X129037500Y-81000000D03*
X129037500Y-80500000D03*
D34*
X129037500Y-80000000D03*
D35*
X128375000Y-79837500D03*
D31*
X127875000Y-79837500D03*
D36*
X127375000Y-79837500D03*
%TD*%
D37*
%TO.C,U4*%
X141925000Y-88750000D03*
D38*
X135125000Y-96750000D03*
X136625000Y-96750000D03*
X138125000Y-96750000D03*
X139625000Y-96750000D03*
X141125000Y-96750000D03*
X142625000Y-96750000D03*
X144125000Y-96750000D03*
X145625000Y-96750000D03*
X147125000Y-96750000D03*
X148625000Y-96750000D03*
X148625000Y-80750000D03*
X147125000Y-80750000D03*
X145625000Y-80750000D03*
X144125000Y-80750000D03*
X142625000Y-80750000D03*
X141125000Y-80750000D03*
X139625000Y-80750000D03*
X138125000Y-80750000D03*
X136625000Y-80750000D03*
X135125000Y-80750000D03*
%TD*%
D39*
%TO.C,TP12*%
X125000000Y-74750000D03*
%TD*%
D21*
%TO.C,TP5*%
X99375000Y-107625000D03*
%TD*%
D40*
%TO.C,TP9*%
X123375000Y-79250000D03*
%TD*%
D41*
%TO.C,R2*%
X110550000Y-92025000D03*
X112200000Y-92025000D03*
%TD*%
D42*
%TO.C,J1*%
X141890000Y-113290000D03*
X137860000Y-113290000D03*
X141890000Y-112020000D03*
X137860000Y-112020000D03*
X141890000Y-110750000D03*
X137860000Y-110750000D03*
X141890000Y-109480000D03*
X137860000Y-109480000D03*
X141890000Y-108210000D03*
X137860000Y-108210000D03*
%TD*%
D21*
%TO.C,TP1*%
X123375000Y-81750000D03*
%TD*%
D39*
%TO.C,TP13*%
X141375000Y-100750000D03*
%TD*%
D23*
%TO.C,C4*%
X128600000Y-83250000D03*
X130150000Y-83250000D03*
%TD*%
D21*
%TO.C,TP22*%
X99375000Y-105625000D03*
%TD*%
%TO.C,TP6*%
X99375000Y-97625000D03*
%TD*%
D23*
%TO.C,C8*%
X109825000Y-106250000D03*
X111375000Y-106250000D03*
%TD*%
D43*
%TO.C,D2*%
X113937500Y-92250000D03*
X115812500Y-92250000D03*
%TD*%
D21*
%TO.C,TP17*%
X99625000Y-80500000D03*
%TD*%
D23*
%TO.C,C7*%
X113050000Y-106250000D03*
X114600000Y-106250000D03*
%TD*%
%TO.C,C1*%
X120600000Y-97750000D03*
X122150000Y-97750000D03*
%TD*%
D19*
%TO.C,J3*%
X119875000Y-108837500D03*
D20*
X119875000Y-111377500D03*
%TD*%
D44*
%TO.C,U1*%
X121225000Y-91700000D03*
X121225000Y-92200000D03*
X121225000Y-92700000D03*
X121225000Y-93200000D03*
X121225000Y-93700000D03*
X121225000Y-94200000D03*
X121225000Y-94700000D03*
X121225000Y-95200000D03*
D45*
X121925000Y-95900000D03*
X122425000Y-95900000D03*
X122925000Y-95900000D03*
X123425000Y-95900000D03*
X123925000Y-95900000D03*
X124425000Y-95900000D03*
X124925000Y-95900000D03*
X125425000Y-95900000D03*
D44*
X126125000Y-95200000D03*
X126125000Y-94700000D03*
X126125000Y-94200000D03*
X126125000Y-93700000D03*
X126125000Y-93200000D03*
X126125000Y-92700000D03*
X126125000Y-92200000D03*
X126125000Y-91700000D03*
D45*
X125425000Y-91000000D03*
X124925000Y-91000000D03*
X124425000Y-91000000D03*
X123925000Y-91000000D03*
X123425000Y-91000000D03*
X122925000Y-91000000D03*
X122425000Y-91000000D03*
X121925000Y-91000000D03*
D46*
X123675000Y-93450000D03*
%TD*%
D47*
%TO.C,D3*%
X122875000Y-105432500D03*
X122875000Y-104792500D03*
%TD*%
D21*
%TO.C,TP14*%
X99375000Y-109625000D03*
%TD*%
D22*
%TO.C,TP10*%
X127000000Y-74750000D03*
%TD*%
D21*
%TO.C,TP2*%
X132085000Y-80750000D03*
%TD*%
%TO.C,TP18*%
X99625000Y-86500000D03*
%TD*%
%TO.C,TP15*%
X99625000Y-82500000D03*
%TD*%
D39*
%TO.C,TP3*%
X136375000Y-100750000D03*
%TD*%
D43*
%TO.C,D1*%
X113937500Y-94750000D03*
X115812500Y-94750000D03*
%TD*%
D39*
%TO.C,TP11*%
X123000000Y-74750000D03*
%TD*%
D23*
%TO.C,C2*%
X121100000Y-89250000D03*
X122650000Y-89250000D03*
%TD*%
D48*
%TO.C,J2*%
X109934999Y-77084600D03*
X111034999Y-77484599D03*
X112134999Y-77084600D03*
X113235000Y-76884600D03*
X114335000Y-77084600D03*
X115435000Y-76884600D03*
X116534884Y-77084600D03*
X117634884Y-77084600D03*
D49*
X115435064Y-88169599D03*
D50*
X118424999Y-74794599D03*
D51*
X111125000Y-87944600D03*
X116825000Y-87944600D03*
D50*
X105275001Y-73794598D03*
%TD*%
D25*
%TO.C,FB1*%
X122162500Y-99250000D03*
X120587500Y-99250000D03*
%TD*%
M02*
