M48
; DRILL file {KiCad (6.0.1)} date Wed May 25 14:38:52 2022
; FORMAT={-:-/ absolute / inch / decimal}
; #@! TF.CreationDate,2022-05-25T14:38:52-05:00
; #@! TF.GenerationSoftware,Kicad,Pcbnew,(6.0.1)
; #@! TF.FileFunction,MixedPlating,1,2
FMAT,2
INCH
; #@! TA.AperFunction,Plated,PTH,ViaDrill
T1C0.0118
; #@! TA.AperFunction,Plated,PTH,ViaDrill
T2C0.0157
; #@! TA.AperFunction,Plated,PTH,ComponentDrill
T3C0.0197
; #@! TA.AperFunction,Plated,PTH,ComponentDrill
T4C0.0394
; #@! TA.AperFunction,NonPlated,NPTH,ComponentDrill
T5C0.0354
; #@! TA.AperFunction,NonPlated,NPTH,ComponentDrill
T6C0.0472
%
G90
G05
T1
X3.9321Y-3.563
X3.9419Y-3.7402
X4.0551Y-4.3701
X4.0699Y-3.7008
X4.1388Y-3.5728
X4.188Y-4.5079
X4.2372Y-3.6713
X4.2766Y-4.065
X4.2963Y-3.8386
X4.3206Y-3.1102
X4.3277Y-3.1712
X4.3455Y-3.8484
X4.4242Y-3.8878
X4.4379Y-3.1436
X4.4439Y-3.7894
X4.4636Y-2.9921
X4.5677Y-3.5998
X4.5817Y-3.1496
X4.5817Y-3.9567
X4.5817Y-4.0059
X4.6014Y-3.7598
X4.6019Y-3.6381
X4.6112Y-3.7205
X4.6309Y-4.1732
X4.6407Y-3.7008
X4.6407Y-3.9567
X4.6506Y-4.0157
X4.6653Y-3.6836
X4.69Y-3.6713
X4.7096Y-3.1693
X4.7392Y-4.065
X4.7451Y-3.6698
X4.7487Y-3.1983
X4.7618Y-3.5601
X4.7785Y-3.9862
X4.7884Y-4.0256
X4.797Y-3.5421
X4.8081Y-3.4154
X4.8081Y-3.9567
X4.8278Y-3.4941
X4.8278Y-3.6319
X4.8278Y-3.7205
X4.8474Y-3.8553
X4.8573Y-3.2776
X4.8622Y-3.8299
X4.8671Y-3.6319
X4.8881Y-3.8391
X4.8967Y-3.7106
X4.9123Y-3.859
X4.9163Y-3.4646
X4.936Y-3.2776
X4.9656Y-3.4252
X4.9754Y-3.5433
X4.9929Y-3.565
X5.004Y-3.623
X5.0201Y-3.5708
X5.0217Y-3.6002
X5.0344Y-3.2579
X5.0344Y-3.3071
X5.0452Y-3.7992
X5.0541Y-3.0709
X5.1259Y-3.7869
X5.1266Y-3.7306
X5.1427Y-3.7598
X5.1427Y-4.0748
X5.1555Y-3.6918
X5.1722Y-4.0551
X5.2215Y-3.2874
X5.2805Y-3.1496
X5.2805Y-4.1142
X5.31Y-3.8681
X5.3396Y-3.4941
X5.3494Y-3.2972
X5.4183Y-3.8878
X5.4577Y-3.4843
X5.497Y-3.2874
X5.6841Y-3.4646
X5.8317Y-3.4646
X5.8415Y-3.3268
X5.8415Y-3.6024
T2
X4.4429Y-3.9577
T3
X4.1506Y-3.9222
X4.1506Y-3.9715
X4.1506Y-4.0207
X4.1506Y-4.0699
X4.1506Y-4.1191
X4.1506Y-4.1683
X4.1506Y-4.2175
X4.1506Y-4.2667
X4.1506Y-4.3159
X4.1506Y-4.3652
T4
X4.3744Y-4.065
X4.4744Y-4.065
X4.7195Y-4.2849
X4.7195Y-4.3849
X5.7126Y-4.0059
X5.8126Y-4.0059
T5
X4.9675Y-4.3538
X5.1407Y-4.3538
T6
X5.5876Y-3.4941
T0
M30
